<svg width="178" height="168" viewBox="0 0 178 168" fill="none" xmlns="http://www.w3.org/2000/svg">
<g clip-path="url(#clip0_13069_46821)">
<path d="M101.303 167.513C132.379 167.513 157.571 142.321 157.571 111.245C157.571 80.1685 132.379 54.9762 101.303 54.9762C70.2265 54.9762 45.0342 80.1685 45.0342 111.245C45.0342 142.321 70.2265 167.513 101.303 167.513Z" fill="#3ABEF9"/>
<path d="M100.332 166.503C130.871 166.503 155.629 141.535 155.629 110.736C155.629 79.9363 130.871 54.9684 100.332 54.9684C69.7916 54.9684 45.0342 79.9363 45.0342 110.736C45.0342 141.535 69.7916 166.503 100.332 166.503Z" fill="#1D1E28"/>
<path d="M137.841 147.777C159.072 126.546 159.072 92.1239 137.841 70.8929C116.61 49.662 82.1877 49.662 60.9567 70.8929C39.7257 92.1239 39.7257 126.546 60.9567 147.777C82.1877 169.008 116.61 169.008 137.841 147.777Z" fill="url(#paint0_linear_13069_46821)"/>
<path opacity="0.15" d="M45.7393 118.106C45.7393 118.106 46.5852 93.8645 58.9997 82.4134C71.4142 70.9623 75.5889 90.3555 75.5889 90.3555L74.8056 95.6581C74.8056 95.6581 69.55 85.9145 63.8401 87.669C47.2118 92.7679 46.6087 122.461 46.6087 122.461L45.7393 118.106Z" fill="#22213E"/>
<path opacity="0.15" d="M47.9405 126.996C47.9405 126.996 46.139 102.606 59.2192 93.4337C72.2995 84.2619 75.1584 112.49 75.1584 112.49V114.487C75.1584 114.487 70.6938 94.4519 63.1042 94.9062C46.2565 95.807 48.7864 129.236 48.7864 129.236L47.9405 126.996Z" fill="#22213E"/>
<path style="mix-blend-mode:screen" opacity="0.56" d="M151.383 99.6919C151.383 99.6919 146.958 82.9774 137.285 73.0614C129.131 64.759 123.523 62.2761 123.421 62.934C123.32 63.592 120.218 69.4193 121.988 69.5682C123.758 69.717 131.097 72.8656 134.786 75.5522C144.146 82.4291 151.383 99.6919 151.383 99.6919Z" fill="url(#paint1_linear_13069_46821)"/>
<path style="mix-blend-mode:screen" opacity="0.56" d="M109.535 57.4826C109.535 57.4826 87.7762 55.1329 85.4343 59.0961C84.6041 60.4825 80.5547 82.2568 80.5547 82.2568C80.5547 82.2568 87.228 65.1819 89.8049 62.8714C92.3817 60.5608 109.535 57.4826 109.535 57.4826Z" fill="url(#paint2_linear_13069_46821)"/>
<g opacity="0.36">
<path style="mix-blend-mode:multiply" d="M99.3999 54.9684C92.0324 54.9629 84.741 56.4579 77.9702 59.3624C84.3235 56.873 91.0881 55.6003 97.9117 55.6106C124.26 55.6106 145.619 73.829 145.619 96.3396C145.619 118.85 124.26 137.068 97.9117 137.068C71.5632 137.068 50.2119 118.85 50.2119 96.3396C50.2559 88.4701 52.8563 80.8282 57.6214 74.5652C49.7098 84.0682 45.2742 95.9844 45.0463 108.348C44.8185 120.711 48.812 132.782 56.368 142.57C63.9241 152.358 74.5911 159.278 86.6091 162.188C98.6271 165.098 111.278 163.824 122.475 158.576C133.671 153.328 142.744 144.42 148.197 133.322C153.649 122.224 155.156 109.599 152.467 97.5294C149.779 85.4599 143.056 74.6675 133.409 66.9328C123.761 59.1982 111.765 54.9835 99.3999 54.984V54.9684Z" fill="url(#paint3_linear_13069_46821)"/>
<path style="mix-blend-mode:multiply" d="M77.9699 59.3624C69.9041 62.4373 62.853 67.6958 57.6055 74.5496C63.1049 67.9563 70.082 62.753 77.9699 59.3624Z" fill="url(#paint4_linear_13069_46821)"/>
</g>
<path style="mix-blend-mode:screen" opacity="0.56" d="M63.6754 71.0093C63.6754 71.0093 54.339 75.2859 49.3106 92.2667C44.2821 109.248 48.2924 126.73 48.2924 126.73C48.2924 126.73 47.3603 105.582 52.3574 93.2144C55.5081 85.5118 59.2938 78.0845 63.6754 71.0093Z" fill="url(#paint5_linear_13069_46821)"/>
<path opacity="0.15" d="M82.145 159.783C82.145 159.783 68.5322 91.9064 89.1473 75.4973C109.762 59.0883 113.052 119.359 113.052 119.359L114.415 138.87C114.415 138.87 108.932 86.0242 96.6978 84.1522C67.7959 79.7347 85.09 161.788 85.09 161.788L82.3878 161.005L82.145 159.783Z" fill="#22213E"/>
<path opacity="0.15" d="M83.97 162.07C83.97 162.07 81.2521 107.039 89.4058 102.543C104.836 94.0055 111.775 162.07 111.775 162.07L109.261 162.759C109.261 162.759 107.107 103.851 91.9748 106.483C85.8655 107.548 85.5287 162.516 85.5287 162.516L83.97 162.07Z" fill="#22213E"/>
<path opacity="0.15" d="M119.271 66.9599C119.271 66.9599 109.543 107.172 126.61 118.482C143.677 129.792 151.729 124.137 151.729 124.137L150.945 126.73C150.945 126.73 143.262 130.646 127.746 126.73C107.898 121.686 116.537 74.5496 116.537 74.5496L119.271 66.9599Z" fill="#22213E"/>
<path opacity="0.15" d="M120.736 62.8635C120.736 62.8635 119.616 96.7704 125.059 106.068C135.022 123.095 152.324 121.137 152.324 121.137L152.763 119.767C152.763 119.767 131.153 119.422 125.615 104.344C120.078 89.2668 122.138 59.942 122.138 59.942L120.736 62.8635Z" fill="#22213E"/>
<path d="M82.4034 57.6863C82.4034 57.6863 74.751 89.6585 74.5709 99.637C74.3907 109.616 79.6933 159.994 79.6933 159.994L82.4425 160.989C82.4425 160.989 75.0017 124.685 76.341 102.073C77.6804 79.4606 85.1448 56.8012 85.1448 56.8012L82.4034 57.6863Z" fill="#22213E"/>
<path d="M120.297 59.1353C120.297 59.1353 114.532 68.2601 113.201 103.726C111.869 139.191 119.772 159.783 119.772 159.783L122.733 158.569C122.733 158.569 114.305 143.601 114.305 108.793C114.305 72.2703 122.138 59.9655 122.138 59.9655L120.297 59.1353Z" fill="#22213E"/>
<path style="mix-blend-mode:multiply" opacity="0.51" d="M117.748 151.071C140.029 141.457 150.298 115.6 140.684 93.3184C131.069 71.0366 105.212 60.7678 82.9305 70.3823C60.6488 79.9967 50.38 105.854 59.9945 128.135C69.6089 150.417 95.4659 160.686 117.748 151.071Z" fill="url(#paint6_linear_13069_46821)"/>
<path d="M138.797 16.4482C138.797 16.4482 149.379 7.51918 152.684 5.88219C154.11 5.15913 155.693 4.79939 157.291 4.83492C158.89 4.87044 160.455 5.30013 161.848 6.08584C163.986 7.47219 175.641 18.9781 176.73 20.1216C177.818 21.2652 178.147 23.6384 177.043 27.4607C175.993 31.1028 168.224 51.0835 168.224 51.0835L138.797 16.4482Z" fill="#3ABEF9"/>
<path d="M115.543 39.9457L104.515 69.9284C103.901 71.5964 103.901 73.4284 104.516 75.0961C105.13 76.7638 106.318 78.1583 107.867 79.0298C112.263 81.9415 116.804 84.6289 121.472 87.0816C122.565 87.6325 123.772 87.9194 124.997 87.9194C126.221 87.9194 127.428 87.6325 128.521 87.0816C129.179 86.7526 129.602 86.5098 129.602 86.5098L158.7 69.5525C162.271 67.1401 163.791 63.9914 165.89 57.6236C168.498 49.7128 175.884 27.5155 175.884 27.5155C175.884 27.5155 176.072 26.9986 176.323 26.2623C176.644 25.3307 176.707 24.3299 176.508 23.365C176.308 22.4002 175.852 21.5071 175.187 20.7796C168.381 13.3074 162.851 8.04396 162.851 8.04396C159.922 4.95012 154.721 4.84047 151.275 7.34686L126.626 25.2519C121.561 28.9473 117.704 34.0603 115.543 39.9457Z" fill="url(#paint7_linear_13069_46821)"/>
<g style="mix-blend-mode:screen" opacity="0.55">
<path d="M138.092 46.2508L127.315 49.0862L114.196 64.0462L118.95 49.5013L111.031 47.598L124.754 35.7788L132.97 19.6517L136.698 26.8889L149.7 18.8136L138.28 35.1052L138.092 46.2508Z" fill="#C8C8C7"/>
</g>
<g style="mix-blend-mode:screen" opacity="0.55">
<path d="M173.886 33.8598L168.913 17.2706L162.482 29.0899L149.488 25.5966L158.292 41.0266L155.363 55.8848L167.08 53.629L173.886 33.8598Z" fill="#C8C8C7"/>
</g>
<g style="mix-blend-mode:screen" opacity="0.55">
<path d="M136.447 82.7267L118.135 82.7502L127.769 74.4399L119.819 64.5084L138.28 67.9703L152.143 61.8062L153.921 72.2547L136.447 82.7267Z" fill="#C8C8C7"/>
</g>
<path style="mix-blend-mode:screen" d="M151.251 7.34687L126.625 25.2519C121.56 28.9473 117.704 34.0603 115.542 39.9457L104.514 69.9284C103.959 71.4564 103.917 73.1235 104.393 74.6778C104.869 76.2321 105.838 77.5892 107.154 78.5442C104.882 76.7114 104.091 74.5183 107.632 71.4479C113.255 66.5761 125.129 59.7619 133.479 55.2112C136.395 53.6261 138.96 51.4656 141.017 48.8605C143.074 46.2554 144.581 43.2599 145.447 40.0553C148.689 28.0795 153.781 9.65745 155.026 7.54268C155.314 7.01328 155.727 6.56239 156.23 6.22929C156.732 5.89619 157.308 5.69099 157.908 5.63155C155.553 5.35372 153.179 5.96545 151.251 7.34687Z" fill="url(#paint8_linear_13069_46821)"/>
<path style="mix-blend-mode:multiply" d="M157.932 5.65506C157.56 5.6112 157.186 5.59028 156.812 5.5924C156.033 6.04664 155.421 6.73842 155.065 7.56619C153.451 10.5739 147.021 34.4316 145.486 40.0788C145.235 41.0109 144.953 41.8568 144.663 42.6244C143.959 44.4707 143.876 46.4961 144.426 48.394C144.976 50.2919 146.129 51.9592 147.71 53.1434C152.809 56.9422 158.754 61.3519 160.242 62.5972C163.837 65.6362 129.602 86.4785 129.602 86.4785C129.602 86.4785 158.472 70.2496 162.247 66.208C164.668 63.6155 175.884 27.4842 175.884 27.4842C175.884 27.4842 176.072 26.9673 176.322 26.231C176.643 25.2994 176.707 24.2985 176.507 23.3337C176.307 22.3689 175.851 21.4758 175.187 20.7483C168.38 13.2761 162.85 8.01264 162.85 8.01264C161.534 6.68006 159.795 5.84662 157.932 5.65506Z" fill="url(#paint9_linear_13069_46821)"/>
<path style="mix-blend-mode:multiply" opacity="0.5" d="M138.617 74.5731L123.179 62.3387L124.22 55.8065L137.575 17.2941L138.295 16.7693C138.295 16.7693 127.04 54.3653 126.429 56.8168C125.818 59.2684 126.155 60.6156 127.541 62.3544C128.928 64.0932 146.198 76.7584 146.198 76.7584L143.175 78.3797L138.617 74.5731Z" fill="url(#paint10_linear_13069_46821)"/>
<path style="mix-blend-mode:multiply" opacity="0.5" d="M169.766 46.8539L170.832 43.1648L150.608 27.868L145.909 29.035L110.521 53.5899L110.169 54.5533C110.169 54.5533 142.854 33.7972 145.415 32.5361C147.976 31.2751 149.715 30.2491 151.72 31.4396C153.725 32.6301 169.86 45.6947 169.86 45.6947L169.359 47.1202L168.255 50.2532L169.766 46.8539Z" fill="url(#paint11_linear_13069_46821)"/>
<g style="mix-blend-mode:screen" opacity="0.55">
<path d="M124.088 60.5216C124.088 60.5216 138.797 50.7075 144.069 52.8693C149.34 55.0311 157.956 60.8506 157.956 60.8506C157.956 60.8506 150.703 55.4775 147.695 53.1434C144.687 50.8093 143.238 47.3317 144.648 42.6244C146.058 37.9171 147.656 32.3482 147.656 32.3482C147.656 32.3482 143.591 43.0787 138.547 48.6084C133.503 54.1382 124.088 60.5216 124.088 60.5216Z" fill="#C8C8C7"/>
</g>
<path d="M146.989 76.4059L143.496 79.3901C142.965 79.8428 142.296 80.1018 141.599 80.1245C140.902 80.1473 140.217 79.9325 139.658 79.5154C135.131 76.1396 124.236 68.0173 122.544 66.7798C120.406 65.2133 120.132 61.7826 121.526 58.446C122.92 55.1094 133.314 18.9703 133.314 18.9703L136.604 16.5109L137.567 17.2941C137.567 17.2941 126.993 51.3341 125.56 56.5505C124.126 61.767 125.834 62.9262 128.129 64.7903C130.424 66.6544 144.671 77.2205 144.671 77.2205L147.021 76.4372L146.989 76.4059Z" fill="url(#paint12_linear_13069_46821)"/>
<path style="mix-blend-mode:multiply" d="M146.99 76.4059L144.641 77.1891C144.641 77.1891 130.432 66.6544 128.138 64.7903C125.843 62.9262 124.135 61.7748 125.568 56.5505C127.002 51.3263 137.576 17.2941 137.576 17.2941L136.612 16.5109C136.612 16.5109 124.699 56.95 124.159 59.0804C123.924 59.9423 123.929 60.8517 124.172 61.7112C124.415 62.5707 124.887 63.3481 125.537 63.9601C126.587 64.8138 143.638 77.8627 143.638 77.8627L145.87 77.1656L146.99 76.4059Z" fill="url(#paint13_linear_13069_46821)"/>
<g style="mix-blend-mode:screen">
<path d="M121.096 59.66C119.929 62.9967 120.908 65.5814 122.545 66.7798L125.568 68.9885C125.568 68.9885 122.294 66.6388 122.968 65.7224C123.642 64.806 126.696 64.9391 126.696 64.9391C126.284 64.6596 125.896 64.3451 125.537 63.9992C124.88 63.3918 124.404 62.6147 124.16 61.7536C123.917 60.8925 123.917 59.981 124.159 59.1196C124.848 56.6445 123.375 60.7331 122.467 61.4693C121.558 62.2056 121.096 59.66 121.096 59.66Z" fill="#D6D5D5"/>
</g>
<path d="M171.161 44.0499L171.897 43.0395C172.342 42.4501 172.538 41.7097 172.443 40.9774C172.348 40.2451 171.969 39.5793 171.388 39.1233C167.073 35.6691 157.454 27.9698 155.112 25.996C152.058 23.4426 148.972 23.3565 145.04 26.3406C141.484 29.035 110.804 48.7024 110.804 48.7024L109.551 53.0103L110.522 53.5507C110.522 53.5507 138.68 35.7553 142.518 33.0374C146.356 30.3195 149.567 27.5547 153.319 30.8443C157.07 34.134 170.26 44.6452 170.26 44.6452L168.968 48.3421L171.161 44.0499Z" fill="url(#paint14_linear_13069_46821)"/>
<path style="mix-blend-mode:multiply" d="M169.508 47.1672L170.542 43.8071L153.068 29.6303C150.186 27.2805 147.671 28.5181 144.664 30.5075C142.486 31.9409 109.551 53.0494 109.551 53.0494L110.522 53.5898C110.522 53.5898 138.68 35.7944 142.518 33.0766C146.356 30.3587 149.567 27.5938 153.319 30.8835C157.07 34.1731 170.26 44.6452 170.26 44.6452L168.968 48.3421L169.508 47.1672Z" fill="url(#paint15_linear_13069_46821)"/>
<g style="mix-blend-mode:screen" opacity="0.7">
<path d="M146.755 25.2441C147.839 24.5142 149.117 24.1282 150.424 24.1366C151.731 24.145 153.004 24.5474 154.078 25.2911C155.08 25.9504 156.018 26.7002 156.882 27.5312C156.882 27.5312 153.616 25.0091 152.52 26.3563C151.157 28.0325 153.757 30.1864 153.757 30.1864C153.15 29.6302 152.47 29.1586 151.737 28.7844C150.988 28.4442 150.167 28.2948 149.347 28.3495C148.527 28.4042 147.734 28.6612 147.037 29.0977C144.758 30.2804 148.306 27.0691 148.878 26.043C149.449 25.017 146.755 25.2441 146.755 25.2441Z" fill="#D6D5D5"/>
</g>
<path d="M127.432 39.789C130.025 39.883 112.488 37.1338 107.961 32.7398C102.76 27.7348 102.141 22.2208 103.465 19.4246C103.853 18.6235 104.4 17.9102 105.074 17.3283C105.747 16.7465 106.532 16.3084 107.381 16.0409L99.1961 15.3595C99.1961 15.3595 95.9456 21.2495 97.1753 24.8368C98.9533 30.0141 102.611 38.8961 127.432 39.789Z" fill="url(#paint16_linear_13069_46821)"/>
<path d="M129.242 38.669C129.242 38.669 126.712 16.4482 117.399 11.9132C108.086 7.37819 103.489 11.9132 100.653 13.981C97.8178 16.0488 96.4315 20.8657 96.5881 22.4871C96.6931 21.3419 97.1152 20.2486 97.8069 19.33C98.4987 18.4113 99.4328 17.7036 100.504 17.2863C118.911 10.0961 127.049 36.7657 127.832 38.3792C128.615 39.9927 129.242 38.669 129.242 38.669Z" fill="url(#paint17_linear_13069_46821)"/>
<g style="mix-blend-mode:screen">
<path d="M114.72 10.8088C116.141 11.2887 117.501 11.9355 118.77 12.7356C120.884 14.0672 122.999 17.7014 122.999 17.7014C122.999 17.7014 120.931 14.4509 119.2 15.5162C117.469 16.5814 117.9 19.0251 118.143 19.4324C118.386 19.8397 119.067 21.32 119.067 21.32C119.067 21.32 115.785 17.9521 113.396 17.0122C111.53 16.3354 109.62 15.7859 107.679 15.3673C107.679 15.3673 110.694 15.9156 112.691 15.1637C114.689 14.4118 115.605 13.2839 115.574 12.814C115.456 11.0673 114.72 10.8088 114.72 10.8088Z" fill="#D6D5D5"/>
</g>
<path style="mix-blend-mode:multiply" opacity="0.38" d="M104.898 15.8373C105.987 15.6571 103.136 17.4038 102.219 21.32C101.201 25.714 103.974 29.6538 103.551 29.8339C101.421 30.6172 98.5695 25.6122 99.0238 21.3044C99.4076 17.2315 103.59 16.0488 104.898 15.8373Z" fill="url(#paint18_linear_13069_46821)"/>
<path d="M115.299 39.2564C103.402 36.7109 98.8041 30.7347 97.222 27.7975C95.9609 25.4477 95.4362 21.79 97.1045 18.8763C98.2715 16.832 101.898 13.8165 110.232 15.8686C123.453 19.1034 128.043 38.8648 128.09 39.0606L127.753 39.4601C127.706 39.2799 122.2 20.1373 109.519 17.0357C103.793 15.6336 100.245 16.6049 98.5065 19.636C97.1358 22.0249 97.9034 26.419 98.9765 28.4084C100.935 32.0349 107.114 39.3739 127.753 39.4601L127.377 40.4391C123.321 40.4597 119.274 40.0633 115.299 39.2564Z" fill="url(#paint19_linear_13069_46821)"/>
<path style="mix-blend-mode:multiply" d="M128.09 39.0606C128.09 39.0606 125.545 29.2387 122.897 25.1893C120.25 21.1399 119.991 16.4952 122.028 17.5448C124.738 18.9546 127.988 32.6066 128.803 35.7318C129.766 39.4131 128.388 39.7577 128.09 39.0606Z" fill="url(#paint20_linear_13069_46821)"/>
<path style="mix-blend-mode:multiply" d="M129.954 40.1728C129.954 40.1728 133.628 37.0398 132.664 36.2566C131.701 35.4733 130.056 36.5464 130.056 36.5464L129.954 40.1728Z" fill="url(#paint21_linear_13069_46821)"/>
<path d="M128.153 40.6663C128.842 38.0267 122.396 55.642 117.673 59.7932C112.245 64.5475 107.491 64.5788 105.447 62.9262C103.402 61.2735 103.551 58.5243 103.551 58.5243L101.045 66.8111C101.045 66.8111 105.212 70.7822 108.509 69.9441C113.232 68.6831 121.566 65.926 128.153 40.6663Z" fill="url(#paint22_linear_13069_46821)"/>
<path d="M127.636 38.7003C127.636 38.7003 108.407 38.8413 102.407 47.8565C96.4074 56.8717 99.1018 62.0646 100.191 65.1898C101.279 68.3149 104.961 70.2574 106.355 70.2809C106.355 70.2809 103.222 69.6778 102.916 65.7146C101.248 46.1333 125.513 40.7681 127.04 40.1337C128.568 39.4992 127.636 38.7003 127.636 38.7003Z" fill="url(#paint23_linear_13069_46821)"/>
<g style="mix-blend-mode:screen">
<path d="M100.849 50.4725C101.586 49.0909 102.448 47.78 103.426 46.5563C105.039 44.5433 108.587 42.781 108.587 42.781C108.587 42.781 105.376 44.5355 105.854 46.4231C106.331 48.3108 108.493 48.1385 108.893 47.9348C109.292 47.7312 110.702 47.1907 110.702 47.1907C110.702 47.1907 107.099 50.1749 105.744 52.5168C104.736 54.3552 103.827 56.2455 103.018 58.1797C103.018 58.1797 104.193 55.1564 104.029 53.0338C103.864 50.9112 103.144 49.8538 102.752 49.8381C101.248 49.752 100.849 50.4725 100.849 50.4725Z" fill="#D6D5D5"/>
</g>
<path style="mix-blend-mode:multiply" opacity="0.38" d="M102.767 61.0934C102.877 59.9655 103.629 63.0672 106.754 64.4378C110.177 65.9417 114.14 63.5528 114.179 64.0541C114.352 66.3176 109.48 68.6752 105.955 67.7353C102.627 66.8189 102.619 62.4171 102.767 61.0934Z" fill="url(#paint24_linear_13069_46821)"/>
<path d="M124.84 53.0024C119.897 64.8765 113.796 68.918 110.96 70.2339C108.697 71.2678 105.478 71.4009 103.457 69.3723C102.024 67.9546 100.324 63.8896 104.036 55.6341C109.872 42.4912 127.534 39.9692 127.698 39.9692L127.957 40.353C127.792 40.353 110.443 43.9089 104.843 56.5192C102.313 62.2213 102.298 65.9182 104.428 68.0565C106.104 69.717 109.966 69.4193 111.885 68.5421C115.394 66.9756 123.03 61.438 127.957 40.3451L128.685 40.8386C127.736 44.991 126.45 49.0591 124.84 53.0024Z" fill="url(#paint25_linear_13069_46821)"/>
<path style="mix-blend-mode:multiply" d="M127.698 39.9457C127.698 39.9457 118.863 41.4652 114.845 43.7288C110.827 45.9924 106.864 45.7417 108.227 43.7836C110.044 41.1676 122.263 39.3504 125.075 38.857C128.396 38.2382 128.349 39.6872 127.698 39.9457Z" fill="url(#paint26_linear_13069_46821)"/>
<path d="M130.722 37.8466C128.552 38.9353 142.423 29.8339 144.671 24.4687C147.248 18.3045 145.76 13.5032 143.622 11.7252C142.987 11.2124 142.253 10.8363 141.466 10.6207C140.678 10.405 139.855 10.3544 139.048 10.472L145.744 6.71243C145.744 6.71243 150.648 10.3075 150.914 13.7617C151.329 18.6805 151.439 27.4137 130.722 37.8466Z" fill="url(#paint27_linear_13069_46821)"/>
<path d="M128.779 37.5959C128.779 37.5959 122.811 18.2575 129.053 10.8871C135.296 3.51677 140.841 5.48273 144.006 6.10149C147.17 6.72026 150.099 10.1352 150.561 11.5372C150.047 10.6253 149.283 9.87959 148.359 9.38825C147.434 8.89691 146.388 8.68048 145.345 8.76454C127.111 10.0099 129.97 35.1835 129.884 36.8127C129.797 38.4418 128.779 37.5959 128.779 37.5959Z" fill="url(#paint28_linear_13069_46821)"/>
<g style="mix-blend-mode:screen">
<path d="M130.918 8.96036C129.894 9.91306 128.98 10.977 128.192 12.1325C126.884 14.0593 126.414 17.8816 126.414 17.8816C126.414 17.8816 126.986 14.3961 128.842 14.5919C130.698 14.7877 131.192 16.9887 131.192 17.4194C131.192 17.8502 131.098 19.3462 131.098 19.3462C131.098 19.3462 132.664 15.2812 134.341 13.5737C135.676 12.2866 137.094 11.0883 138.586 9.98641C138.586 9.98641 136.236 11.6156 134.262 11.7722C132.288 11.9289 131.129 11.3571 130.965 10.989C130.401 9.46164 130.918 8.96036 130.918 8.96036Z" fill="#D6D5D5"/>
</g>
<path style="mix-blend-mode:multiply" opacity="0.38" d="M141.084 9.28932C140.097 9.56345 143.136 9.86109 145.361 12.7826C147.812 16.0096 146.927 20.341 147.366 20.3018C149.473 20.1451 150.052 14.8817 148.094 11.4981C146.254 8.30242 142.267 8.95252 141.084 9.28932Z" fill="url(#paint29_linear_13069_46821)"/>
<path d="M140.81 32.6771C149.966 25.9412 151.689 19.2131 151.956 16.1741C152.175 13.746 151.282 10.5112 148.823 8.75673C147.092 7.53486 142.917 6.45397 136.596 11.3963C126.57 19.2288 129.891 37.3218 129.915 37.5019L130.346 37.7056C130.346 37.5333 127.996 19.5812 137.63 12.0777C141.969 8.68623 145.337 8.11446 147.914 9.93943C149.943 11.3728 150.898 15.3047 150.718 17.3646C150.381 21.1164 147.828 29.6068 130.354 37.7291L130.964 38.3792C134.429 36.8134 137.728 34.9031 140.81 32.6771Z" fill="url(#paint30_linear_13069_46821)"/>
<path style="mix-blend-mode:multiply" d="M129.891 37.5019C129.891 37.5019 128.466 28.4006 129.233 24.0222C130.001 19.6439 128.528 15.712 127.189 17.3724C125.403 19.589 127.627 32.1367 128.074 35.0347C128.614 38.4497 129.899 38.1912 129.891 37.5019Z" fill="url(#paint31_linear_13069_46821)"/>
<path d="M130.181 39.7969C128.403 38.4653 141.57 46.0628 146.959 45.4989C153.138 44.8723 156.553 41.4338 157.188 38.8178C157.367 38.0646 157.39 37.2825 157.256 36.52C157.121 35.7575 156.831 35.0307 156.405 34.3846L162.232 38.3009C162.232 38.3009 161.19 44.0734 158.425 45.867C154.462 48.4674 147.178 52.5638 130.181 39.7969Z" fill="url(#paint32_linear_13069_46821)"/>
<path d="M129.578 38.058C129.578 38.058 143.347 24.218 152.01 26.1448C160.673 28.0716 161.284 33.6248 162.028 36.5855C162.772 39.5462 161.104 43.5721 160.117 44.5903C160.667 43.7566 160.979 42.7885 161.019 41.7905C161.059 40.7925 160.826 39.8025 160.344 38.9274C151.987 24.0927 132.1 37.9562 130.706 38.622C129.312 39.2877 129.578 38.058 129.578 38.058Z" fill="url(#paint33_linear_13069_46821)"/>
<g style="mix-blend-mode:screen">
<path d="M154.392 26.8341C153.183 26.3958 151.926 26.1065 150.648 25.9725C148.517 25.7375 145.165 27.0847 145.165 27.0847C145.165 27.0847 148.298 25.9804 148.885 27.6408C149.473 29.3013 147.836 30.7738 147.452 30.8913C147.068 31.0088 145.807 31.6746 145.807 31.6746C145.807 31.6746 149.825 31.142 151.932 31.7842C153.541 32.3295 155.112 32.9837 156.632 33.7424C155.354 33.0517 154.251 32.0794 153.405 30.8992C152.488 29.3327 152.488 28.0481 152.755 27.7662C153.765 26.6305 154.392 26.8341 154.392 26.8341Z" fill="#D6D5D5"/>
</g>
<path style="mix-blend-mode:multiply" opacity="0.38" d="M158.198 35.5673C157.564 34.8546 158.543 37.5646 156.984 40.7759C155.277 44.3005 151.298 45.4754 151.502 45.8827C152.481 47.5823 157.11 45.679 159.154 42.4912C161.089 39.4836 158.95 36.4132 158.198 35.5673Z" fill="url(#paint34_linear_13069_46821)"/>
<path d="M138.539 45.9689C147.836 50.6683 154.149 49.0392 156.804 47.88C158.047 47.3412 159.143 46.5125 160 45.4632C160.858 44.414 161.451 43.1746 161.731 41.849C162.06 39.8204 161.292 35.8023 154.627 32.7163C144.069 27.7975 130.268 38.8335 130.135 38.9353V39.3974C130.268 39.2956 144.343 29.2152 154.47 33.9147C159.044 36.0451 160.869 38.6142 160.384 41.6375C159.992 43.9872 157.094 46.5955 155.3 47.3787C152.026 48.8042 143.904 50.5117 130.135 39.4209L129.853 40.2903C132.542 42.4803 135.454 44.3834 138.539 45.9689Z" fill="url(#paint35_linear_13069_46821)"/>
<path style="mix-blend-mode:multiply" d="M130.134 38.9353C130.134 38.9353 137.183 33.6014 141.1 32.2542C145.016 30.907 147.765 27.8837 145.838 27.5077C143.269 27.0064 133.682 34.5569 131.434 36.2801C128.818 38.2774 129.554 39.2564 130.134 38.9353Z" fill="url(#paint36_linear_13069_46821)"/>
<path d="M130.126 36.2566C131.105 36.5385 130.839 37.7526 130.424 39.1781C130.009 40.6036 129.64 41.6845 128.646 41.4025C127.651 41.1205 127.197 39.742 127.604 38.3165C128.011 36.891 129.139 35.9746 130.126 36.2566Z" fill="url(#paint37_linear_13069_46821)"/>
<g style="mix-blend-mode:screen">
<path d="M128.998 39.6167C129.124 40.2825 128.936 40.8699 128.591 40.9326C128.246 40.9952 127.855 40.5175 127.729 39.8595C127.604 39.2016 127.792 38.6063 128.144 38.5437C128.497 38.481 128.873 38.9588 128.998 39.6167Z" fill="#E4E0DC"/>
</g>
<path style="mix-blend-mode:multiply" d="M130.424 39.1624C130.839 37.7369 131.105 36.5229 130.126 36.2409C129.829 36.177 129.52 36.1934 129.231 36.2884C128.942 36.3833 128.683 36.5535 128.481 36.7813C129.038 36.5229 129.367 36.4602 129.774 37.0007C130.181 37.5411 129.938 40.6663 129.343 41.0422C128.748 41.4182 128.646 41.3868 128.646 41.3868C129.625 41.6845 130.017 40.5958 130.424 39.1624Z" fill="url(#paint38_linear_13069_46821)"/>
<path style="mix-blend-mode:screen" d="M81.6356 161.381C126.2 161.381 162.326 125.254 162.326 80.6903C162.326 36.1263 126.2 0 81.6356 0C37.0716 0 0.945312 36.1263 0.945312 80.6903C0.945312 125.254 37.0716 161.381 81.6356 161.381Z" fill="url(#paint39_radial_13069_46821)"/>
<path d="M101.452 69.3958C101.452 69.3958 114.517 64.7355 118.198 64.3517C119.79 64.1691 121.402 64.3824 122.891 64.9727C124.38 65.563 125.701 66.5119 126.735 67.7353C128.302 69.7875 137.865 103.123 139.205 106.115C139.988 107.838 140.842 110.305 139.267 112.819C137.693 115.333 124.832 133.763 124.832 133.763L101.452 69.3958Z" fill="#3ABEF9"/>
<path d="M71.4374 83.3925L50.5873 107.744C49.4334 109.102 48.7998 110.826 48.7998 112.608C48.7998 114.39 49.4334 116.114 50.5873 117.472L78.7216 143.389C79.721 144.488 80.9627 145.338 82.3483 145.872C83.7338 146.407 85.2248 146.61 86.7029 146.467L109.033 144.251C112.324 143.924 115.486 142.8 118.246 140.977C121.005 139.154 123.279 136.686 124.871 133.787L136.925 114.519C137.607 113.274 138.017 111.899 138.127 110.484C138.238 109.068 138.047 107.646 137.567 106.31L126.97 69.9206C125.301 66.0043 120.445 64.0697 116.333 65.2211L86.9457 73.4687C80.9095 75.172 75.513 78.6252 71.4374 83.3925Z" fill="url(#paint40_linear_13069_46821)"/>
<g style="mix-blend-mode:screen" opacity="0.55">
<path d="M111.65 100.318L108.979 82.3508L119.13 90.3477L128.521 81.2777L128.239 98.3839L136.768 111.723L125.521 115.208L121.229 133.356L115.221 115.568L104.318 113.555L111.65 100.318Z" fill="#C8C8C7"/>
</g>
<g style="mix-blend-mode:screen" opacity="0.55">
<path d="M71.258 119.994L67.2478 107.892L83.3905 117.581L98.5777 116.618L96.6039 127.059L111.243 139.387L92.4684 135.682L85.1685 144.039L75.5032 131.155L59.3135 124.45L71.258 119.994Z" fill="#C8C8C7"/>
</g>
<path style="mix-blend-mode:screen" d="M116.333 65.2211L86.9457 73.4687C80.9095 75.172 75.513 78.6252 71.4374 83.3925L50.5873 107.744C49.524 108.986 48.8963 110.541 48.8001 112.173C48.7039 113.806 49.1446 115.424 50.0547 116.782C48.5587 114.276 48.5822 111.942 52.9762 110.289C59.9628 107.665 73.4973 105.402 82.959 104.023C86.2484 103.553 89.4085 102.422 92.2488 100.697C95.0892 98.9731 97.5509 96.6913 99.4855 93.9898C106.707 83.8624 117.923 68.3228 119.85 66.772C120.305 66.3743 120.851 66.0949 121.44 65.9583C122.029 65.8217 122.642 65.8321 123.226 65.9887C121.106 64.8757 118.646 64.6017 116.333 65.2211Z" fill="url(#paint41_linear_13069_46821)"/>
<path d="M87.4551 75.231C85.7789 75.7166 77.3981 78.693 73.9988 83.181C70.5995 87.669 53.5482 106.005 52.8041 106.89C52.06 107.775 52.1932 109.302 55.6552 107.892C59.1171 106.483 76.7245 103.444 82.0193 101.525C89.6951 98.7363 93.768 95.4623 96.5721 92.6505C98.5537 90.6532 113.31 71.1738 113.952 70.3436C115.566 68.2288 116.49 65.9887 112.574 67.4142C108.658 68.8397 88.2383 75.0039 87.4551 75.231Z" fill="#AEFFFF"/>
<path d="M87.4552 75.231C84.6404 76.1278 81.9283 77.3197 79.3643 78.787C81.4947 82.5387 87.2829 92.6583 90.1574 97.7103C92.5024 96.3037 94.6581 94.6033 96.5722 92.6505C98.5538 90.6532 113.31 71.1738 113.953 70.3436C115.566 68.2288 116.49 65.9887 112.574 67.4142C108.658 68.8397 88.2385 75.0039 87.4552 75.231Z" fill="url(#paint42_linear_13069_46821)"/>
<path d="M102.148 69.1295C102.148 69.1295 100.629 70.3044 100.66 71.0015C100.692 71.6986 95.0914 72.9204 95.0914 72.9204C94.8163 72.3485 94.6599 71.7267 94.6316 71.0927C94.6033 70.4587 94.7038 69.8255 94.9269 69.2313C95.7102 67.4768 100.245 65.785 102.415 65.8555C103.062 65.9035 103.683 66.1304 104.208 66.5107C104.734 66.8911 105.143 67.4099 105.391 68.0095L102.148 69.1295Z" fill="url(#paint43_linear_13069_46821)"/>
<path style="mix-blend-mode:multiply" d="M105.391 68.0095L102.149 69.1295C102.149 69.1295 100.668 70.2104 100.66 71.0015C100.379 71.4714 98.7102 71.9727 98.7102 71.9727C98.6545 71.2366 98.7666 70.4975 99.0379 69.811C99.3093 69.1246 99.7328 68.5086 100.277 68.0095C101.015 67.4584 101.912 67.1606 102.834 67.1606C103.756 67.1606 104.653 67.4584 105.391 68.0095Z" fill="url(#paint44_linear_13069_46821)"/>
<path d="M63.6052 92.7366C63.6052 92.7366 65.2579 91.8751 65.955 92.1649C66.6521 92.4547 69.6598 88.1311 69.6598 88.1311C68.6789 87.2152 67.4051 86.6768 66.0646 86.6116C64.0674 86.6116 60.9344 89.8621 60.2999 91.7341C59.6655 93.606 61.4748 95.0785 61.4748 95.0785L63.6052 92.7366Z" fill="url(#paint45_linear_13069_46821)"/>
<path style="mix-blend-mode:multiply" d="M61.4824 95.0785L63.6363 92.7288C63.6363 92.7288 65.2028 91.875 65.9861 92.157C66.5422 92.0944 67.5526 90.8568 67.5526 90.8568C66.8621 90.5382 66.1149 90.3609 65.3549 90.3353C64.5949 90.3098 63.8375 90.4365 63.1272 90.708C62.3596 91.1025 61.7661 91.7684 61.4621 92.5761C61.1581 93.3839 61.1654 94.2758 61.4824 95.0785Z" fill="url(#paint46_linear_13069_46821)"/>
<path style="mix-blend-mode:screen" d="M99.635 11.4433L7.68945 73.1946C7.68945 73.1946 51.0736 106.522 51.896 107.305C52.7184 108.088 52.9847 108.95 55.6556 107.877C59.1332 106.483 76.725 103.428 82.0197 101.509C89.6956 98.7207 93.7685 95.4467 96.5725 92.6348C98.5541 90.6375 113.311 71.1581 113.953 70.3279C115.566 68.2131 115.339 68.2131 115.19 67.1949C114.149 60.0125 99.635 11.4433 99.635 11.4433Z" fill="url(#paint47_linear_13069_46821)"/>
<path style="mix-blend-mode:multiply" d="M123.203 65.9652C122.864 65.7945 122.516 65.6428 122.161 65.5109C121.262 65.656 120.436 66.0938 119.811 66.7563C117.25 69.012 102.885 89.2042 99.4466 93.9742C98.8827 94.7574 98.3266 95.4545 97.7862 96.0811C96.4791 97.5741 95.6953 99.4531 95.5539 101.432C95.4125 103.412 95.9213 105.383 97.0029 107.047C100.473 112.388 104.522 118.607 105.47 120.299C107.82 124.403 108.9 125.915 109.973 127.732C111.047 129.549 117.806 138.251 115.37 140.523C112.237 143.483 94.7158 145.089 86.6797 146.483L109.034 144.251C112.325 143.924 115.487 142.8 118.246 140.977C121.005 139.154 123.279 136.686 124.871 133.787L136.925 114.519C137.607 113.274 138.017 111.899 138.128 110.484C138.238 109.068 138.047 107.646 137.567 106.31L126.97 69.9206C126.211 68.2049 124.879 66.8065 123.203 65.9652Z" fill="url(#paint48_linear_13069_46821)"/>
<path style="mix-blend-mode:multiply" opacity="0.5" d="M75.7686 103.216C74.3274 105.339 74.2021 106.537 74.8678 108.652C75.5336 110.767 97.0259 140.656 97.8875 142.496C98.7491 144.337 102.939 144.893 102.939 144.893L97.8797 145.355L70.7793 107.117L72.4946 104.07C72.4946 104.07 73.9671 103.608 75.7686 103.216Z" fill="url(#paint49_linear_13069_46821)"/>
<path style="mix-blend-mode:multiply" opacity="0.5" d="M101.342 86.7839C104.201 86.4941 106.926 86.22 108.391 88.045C109.856 89.8699 125.419 121.396 126.406 123.338C127.393 125.281 127.667 129.079 127.667 129.079L129.03 127.247V122.774L108.603 84.2932L103.801 83.7606C102.921 84.7174 102.099 85.7271 101.342 86.7839Z" fill="url(#paint50_linear_13069_46821)"/>
<path d="M72.2598 105.739C72.2598 105.739 89.4912 101.658 93.7051 105.511C97.919 109.365 103.981 117.855 103.981 117.855C103.981 117.855 99.039 110.281 97.0261 107.039C95.0131 103.796 94.8565 99.9895 97.8093 96.0733C100.762 92.157 104.216 87.4576 104.216 87.4576C104.216 87.4576 96.6423 96.1516 89.9925 99.5587C83.3427 102.966 72.2598 105.739 72.2598 105.739Z" fill="#9FD8FF"/>
<path d="M75.7694 103.216C71.579 105.699 73.075 108.605 74.5788 111.151C76.0827 113.696 96.8701 142.7 97.5045 143.593C98.1389 144.486 101.499 145.081 101.499 145.081L101.632 146.295L97.3714 147.251C95.8561 146.777 94.4447 146.019 93.2123 145.018C91.6458 143.569 70.0986 113.289 68.634 111.072C67.1693 108.856 67.9917 105.692 70.4433 102.786C71.2265 101.885 73.6389 100.365 74.7355 101.219C76.0435 102.284 75.7694 103.216 75.7694 103.216Z" fill="url(#paint51_linear_13069_46821)"/>
<path style="mix-blend-mode:multiply" d="M75.7687 103.216C75.7465 102.972 75.6497 102.74 75.4914 102.552C75.3331 102.365 75.1209 102.23 74.8836 102.167C74.2414 102.167 73.2623 103.733 72.8315 104.399C72.3218 105.132 72.0155 105.988 71.944 106.878C71.8724 107.768 72.0381 108.661 72.4242 109.467C73.1213 110.642 95.0836 142.175 96.5796 144.298C98.0756 146.42 101.632 146.295 101.632 146.295L101.498 145.081C101.498 145.081 98.1383 144.486 97.5039 143.593C96.8694 142.7 76.0898 113.704 74.5703 111.151C73.0508 108.597 71.688 105.425 75.7687 103.216Z" fill="url(#paint52_linear_13069_46821)"/>
<g style="mix-blend-mode:screen">
<path d="M69.7462 103.874C67.4905 106.608 67.514 109.357 68.634 111.08L70.7018 114.213C70.7018 114.213 68.4382 110.884 69.3938 110.234C70.3493 109.584 73.1847 110.767 73.1847 110.767C72.8859 110.36 72.6238 109.928 72.4014 109.475C71.9971 108.674 71.8211 107.778 71.893 106.884C71.9648 105.99 72.2817 105.133 72.8087 104.407C74.3204 102.324 71.485 105.645 70.3885 106.068C69.2919 106.49 69.7462 103.874 69.7462 103.874Z" fill="#D6D5D5"/>
</g>
<path d="M101.812 86.1573C101.812 86.1573 107.702 83.6901 110.067 88.0528C112.432 92.4155 126.758 120.041 128.301 124.082C128.726 125.256 128.824 126.523 128.583 127.748L129.836 128.155L132.1 124.764C132.007 123.346 131.714 121.948 131.23 120.612C129.531 116.579 115.425 87.5672 113.443 84.0974C111.461 80.6276 108.25 79.813 105.9 80.4788C105.792 80.4984 105.684 80.5245 105.579 80.5571C104.226 80.9562 102.97 81.6308 101.89 82.5387C100.88 83.4238 98.2165 86.7448 100.574 87.7943C101.029 87.2821 101.443 86.7348 101.812 86.1573Z" fill="url(#paint53_linear_13069_46821)"/>
<path style="mix-blend-mode:multiply" d="M110.271 86.7996C107.397 82.5387 97.6768 83.4473 100.544 87.7943C101.002 87.2827 101.426 86.741 101.812 86.173C101.812 86.173 107.702 83.7058 110.068 88.0685C112.433 92.4312 126.759 120.056 128.302 124.098C128.727 125.271 128.825 126.539 128.584 127.764L129.837 128.171C129.837 128.171 129.837 124.106 128.686 122.022C127.534 119.939 112.527 90.1363 110.271 86.7996Z" fill="url(#paint54_linear_13069_46821)"/>
<g style="mix-blend-mode:screen">
<path d="M105.901 80.4788C107.174 80.1692 108.512 80.2519 109.738 80.716C110.963 81.18 112.02 82.0038 112.77 83.0792C113.481 84.0452 114.1 85.0758 114.618 86.1573C114.618 86.1573 112.433 82.6484 110.929 83.5335C109.065 84.63 110.757 87.5672 110.757 87.5672C110.379 86.8315 109.905 86.1494 109.347 85.5386C108.564 84.8102 107.052 84.0347 104.264 84.0347C101.695 84.0347 106.723 82.7346 107.624 81.9748C108.524 81.2151 105.901 80.4788 105.901 80.4788Z" fill="#D6D5D5"/>
</g>
<g opacity="0.5">
<path style="mix-blend-mode:screen" opacity="0.8" d="M104.05 23.062C105.289 17.843 102.062 12.6082 96.8431 11.3697C91.6241 10.1311 86.3893 13.3579 85.1508 18.5769C83.9122 23.7959 87.139 29.0308 92.358 30.2693C97.577 31.5078 102.812 28.281 104.05 23.062Z" fill="url(#paint55_radial_13069_46821)"/>
</g>
<path d="M95.9925 20.8266C95.9925 21.1027 95.9105 21.3725 95.757 21.602C95.6034 21.8314 95.3852 22.0101 95.13 22.1154C94.8748 22.2207 94.5941 22.2478 94.3234 22.1934C94.0527 22.1389 93.8043 22.0054 93.6097 21.8096C93.415 21.6138 93.2828 21.3647 93.2299 21.0937C93.177 20.8228 93.2058 20.5422 93.3125 20.2876C93.4192 20.033 93.5991 19.8158 93.8294 19.6635C94.0597 19.5113 94.33 19.4308 94.6061 19.4324C94.7888 19.4324 94.9698 19.4685 95.1385 19.5387C95.3072 19.6088 95.4604 19.7116 95.5892 19.8412C95.718 19.9708 95.82 20.1245 95.8892 20.2936C95.9584 20.4627 95.9935 20.6439 95.9925 20.8266Z" fill="#A9F1FF"/>
<g opacity="0.5">
<path style="mix-blend-mode:screen" opacity="0.8" d="M69.7132 70.1077C74.6753 68.0706 77.0464 62.3966 75.0093 57.4346C72.9722 52.4725 67.2982 50.1014 62.3362 52.1385C57.3741 54.1756 55.003 59.8495 57.0401 64.8116C59.0772 69.7737 64.7512 72.1448 69.7132 70.1077Z" fill="url(#paint56_radial_13069_46821)"/>
</g>
<path d="M66.025 62.5032C66.7907 62.5032 67.4114 61.8825 67.4114 61.1169C67.4114 60.3512 66.7907 59.7305 66.025 59.7305C65.2594 59.7305 64.6387 60.3512 64.6387 61.1169C64.6387 61.8825 65.2594 62.5032 66.025 62.5032Z" fill="#A9F1FF"/>
<g opacity="0.5">
<path style="mix-blend-mode:screen" opacity="0.8" d="M64.9144 96.3907C68.7073 92.5978 68.7073 86.4483 64.9144 82.6554C61.1215 78.8626 54.972 78.8626 51.1791 82.6554C47.3863 86.4483 47.3863 92.5978 51.1791 96.3907C54.972 100.184 61.1215 100.184 64.9144 96.3907Z" fill="url(#paint57_radial_13069_46821)"/>
</g>
<path d="M58.0446 90.9038C58.8102 90.9038 59.4309 90.2831 59.4309 89.5175C59.4309 88.7518 58.8102 88.1311 58.0446 88.1311C57.2789 88.1311 56.6582 88.7518 56.6582 89.5175C56.6582 90.2831 57.2789 90.9038 58.0446 90.9038Z" fill="#A9F1FF"/>
<g opacity="0.5">
<path style="mix-blend-mode:screen" opacity="0.8" d="M49.8041 41.3712C55.168 41.3712 59.5164 37.0229 59.5164 31.6589C59.5164 26.295 55.168 21.9466 49.8041 21.9466C44.4401 21.9466 40.0918 26.295 40.0918 31.6589C40.0918 37.0229 44.4401 41.3712 49.8041 41.3712Z" fill="url(#paint58_radial_13069_46821)"/>
</g>
<path d="M49.8043 33.0453C50.57 33.0453 51.1907 32.4246 51.1907 31.6589C51.1907 30.8932 50.57 30.2726 49.8043 30.2726C49.0387 30.2726 48.418 30.8932 48.418 31.6589C48.418 32.4246 49.0387 33.0453 49.8043 33.0453Z" fill="#A9F1FF"/>
<g opacity="0.5">
<path style="mix-blend-mode:screen" opacity="0.8" d="M68.375 57.7881C68.3719 56.8208 68.6559 55.8743 69.1911 55.0685C69.7262 54.2627 70.4885 53.6338 71.3813 53.2615C72.2741 52.8892 73.2573 52.7901 74.2064 52.977C75.1555 53.1638 76.0278 53.628 76.7129 54.3109C77.398 54.9938 77.865 55.8646 78.0549 56.8131C78.2447 57.7616 78.1489 58.7452 77.7794 59.6391C77.41 60.5331 76.7835 61.2974 75.9795 61.8351C75.1754 62.3728 74.2298 62.6599 73.2625 62.6599C71.9696 62.6578 70.73 62.1444 69.8143 61.2316C68.8987 60.3189 68.3812 59.081 68.375 57.7881Z" fill="url(#paint59_radial_13069_46821)"/>
</g>
<path d="M73.9674 57.7881C73.969 57.9278 73.929 58.0649 73.8524 58.1818C73.7759 58.2988 73.6664 58.3903 73.5377 58.4449C73.4091 58.4995 73.2671 58.5145 73.1298 58.4882C72.9926 58.4619 72.8662 58.3954 72.7669 58.2971C72.6675 58.1989 72.5996 58.0733 72.5717 57.9363C72.5439 57.7994 72.5574 57.6573 72.6105 57.528C72.6636 57.3987 72.754 57.2882 72.8701 57.2104C72.9861 57.1325 73.1227 57.091 73.2625 57.091C73.3547 57.09 73.4462 57.1072 73.5317 57.1418C73.6171 57.1764 73.6949 57.2275 73.7605 57.2924C73.826 57.3572 73.8781 57.4344 73.9136 57.5195C73.9491 57.6046 73.9674 57.6959 73.9674 57.7881Z" fill="#A9F1FF"/>
<g opacity="0.5">
<path style="mix-blend-mode:screen" opacity="0.8" d="M45.034 77.8079C47.7332 77.8079 49.9214 75.6197 49.9214 72.9204C49.9214 70.2212 47.7332 68.033 45.034 68.033C42.3347 68.033 40.1465 70.2212 40.1465 72.9204C40.1465 75.6197 42.3347 77.8079 45.034 77.8079Z" fill="url(#paint60_radial_13069_46821)"/>
</g>
<path d="M45.034 73.6175C45.419 73.6175 45.7311 73.3054 45.7311 72.9204C45.7311 72.5355 45.419 72.2234 45.034 72.2234C44.649 72.2234 44.3369 72.5355 44.3369 72.9204C44.3369 73.3054 44.649 73.6175 45.034 73.6175Z" fill="#A9F1FF"/>
<g opacity="0.5">
<path style="mix-blend-mode:screen" opacity="0.8" d="M58.0437 16.0018C60.743 16.0018 62.9312 13.8136 62.9312 11.1143C62.9312 8.41503 60.743 6.22684 58.0437 6.22684C55.3444 6.22684 53.1562 8.41503 53.1562 11.1143C53.1562 13.8136 55.3444 16.0018 58.0437 16.0018Z" fill="url(#paint61_radial_13069_46821)"/>
</g>
<path d="M58.7487 11.1143C58.7502 11.2541 58.7102 11.3911 58.6337 11.5081C58.5572 11.625 58.4476 11.7166 58.319 11.7711C58.1903 11.8257 58.0483 11.8408 57.9111 11.8145C57.7738 11.7882 57.6475 11.7216 57.5481 11.6234C57.4488 11.5251 57.3808 11.3995 57.353 11.2626C57.3252 11.1256 57.3387 10.9835 57.3918 10.8542C57.4449 10.725 57.5352 10.6144 57.6513 10.5366C57.7674 10.4588 57.904 10.4172 58.0437 10.4172C58.1359 10.4162 58.2274 10.4334 58.3129 10.468C58.3984 10.5026 58.4762 10.5538 58.5417 10.6186C58.6073 10.6834 58.6593 10.7606 58.6949 10.8457C58.7304 10.9308 58.7487 11.0221 58.7487 11.1143Z" fill="#A9F1FF"/>
</g>
<defs>
<linearGradient id="paint0_linear_13069_46821" x1="80.1447" y1="57.9853" x2="118.712" y2="160.849" gradientUnits="userSpaceOnUse">
<stop stop-color="#624E88"/>
<stop offset="1" stop-color="#3C4271"/>
</linearGradient>
<linearGradient id="paint1_linear_13069_46821" x1="143.626" y1="99.8375" x2="134.463" y2="58.5368" gradientUnits="userSpaceOnUse">
<stop stop-color="#624E88"/>
<stop offset="1" stop-color="#3C4271"/>
</linearGradient>
<linearGradient id="paint2_linear_13069_46821" x1="100.213" y1="76.5668" x2="95.2864" y2="54.3571" gradientUnits="userSpaceOnUse">
<stop stop-color="#624E88"/>
<stop offset="1" stop-color="#3C4271"/>
</linearGradient>
<linearGradient id="paint3_linear_13069_46821" x1="80.1476" y1="57.9917" x2="118.715" y2="160.848" gradientUnits="userSpaceOnUse">
<stop stop-color="#624E88"/>
<stop offset="1" stop-color="#3C4271"/>
</linearGradient>
<linearGradient id="paint4_linear_13069_46821" x1="66.5423" y1="63.6154" x2="69.0566" y2="70.3044" gradientUnits="userSpaceOnUse">
<stop stop-color="#624E88"/>
<stop offset="1" stop-color="#3C4271"/>
</linearGradient>
<linearGradient id="paint5_linear_13069_46821" x1="64.9141" y1="122.036" x2="53.7188" y2="71.558" gradientUnits="userSpaceOnUse">
<stop stop-color="#624E88"/>
<stop offset="1" stop-color="#3C4271"/>
</linearGradient>
<linearGradient id="paint6_linear_13069_46821" x1="56.3881" y1="110.734" x2="144.269" y2="110.734" gradientUnits="userSpaceOnUse">
<stop stop-color="#624E88"/>
<stop offset="1" stop-color="#3C4271"/>
</linearGradient>
<linearGradient id="paint7_linear_13069_46821" x1="118.55" y1="37.2265" x2="168.785" y2="56.9954" gradientUnits="userSpaceOnUse">
<stop stop-color="#58CCFF"/>
<stop offset="0.48" stop-color="#2A7ED1"/>
<stop offset="0.83" stop-color="#0C4CB3"/>
<stop offset="1" stop-color="#0038A7"/>
</linearGradient>
<linearGradient id="paint8_linear_13069_46821" x1="118.703" y1="35.9983" x2="145.06" y2="46.3736" gradientUnits="userSpaceOnUse">
<stop stop-color="#58CCFF"/>
<stop offset="0.48" stop-color="#2A7ED1"/>
<stop offset="0.83" stop-color="#0C4CB3"/>
<stop offset="1" stop-color="#0038A7"/>
</linearGradient>
<linearGradient id="paint9_linear_13069_46821" x1="142.051" y1="44.5493" x2="168.967" y2="55.1443" gradientUnits="userSpaceOnUse">
<stop stop-color="#58CCFF"/>
<stop offset="0.48" stop-color="#2A7ED1"/>
<stop offset="0.83" stop-color="#0C4CB3"/>
<stop offset="1" stop-color="#0038A7"/>
</linearGradient>
<linearGradient id="paint10_linear_13069_46821" x1="128.365" y1="65.3551" x2="156.655" y2="30.3303" gradientUnits="userSpaceOnUse">
<stop stop-color="#58CCFF"/>
<stop offset="0.48" stop-color="#2A7ED1"/>
<stop offset="0.83" stop-color="#0C4CB3"/>
<stop offset="1" stop-color="#0038A7"/>
</linearGradient>
<linearGradient id="paint11_linear_13069_46821" x1="127.889" y1="67.7568" x2="157.541" y2="31.0458" gradientUnits="userSpaceOnUse">
<stop stop-color="#58CCFF"/>
<stop offset="0.48" stop-color="#2A7ED1"/>
<stop offset="0.83" stop-color="#0C4CB3"/>
<stop offset="1" stop-color="#0038A7"/>
</linearGradient>
<linearGradient id="paint12_linear_13069_46821" x1="122.793" y1="20.3737" x2="144.933" y2="78.1511" gradientUnits="userSpaceOnUse">
<stop stop-color="#AFA9A6"/>
<stop offset="0.5" stop-color="#EDEAE4"/>
<stop offset="0.65" stop-color="#CDC8C3"/>
<stop offset="0.88" stop-color="#9D9694"/>
<stop offset="1" stop-color="#8B8281"/>
</linearGradient>
<linearGradient id="paint13_linear_13069_46821" x1="130.232" y1="44.0979" x2="156.598" y2="50.9986" gradientUnits="userSpaceOnUse">
<stop stop-color="#B3B3B2"/>
<stop offset="0.5" stop-color="#E5E5E5"/>
<stop offset="0.62" stop-color="#CCCCCC"/>
<stop offset="0.87" stop-color="#9A9B9A"/>
<stop offset="1" stop-color="#878886"/>
</linearGradient>
<linearGradient id="paint14_linear_13069_46821" x1="107.51" y1="36.1804" x2="173.239" y2="42.9258" gradientUnits="userSpaceOnUse">
<stop offset="0.45" stop-color="#C9C9C9"/>
<stop offset="0.54" stop-color="#C4C3C3"/>
<stop offset="0.65" stop-color="#B5B3B3"/>
<stop offset="0.78" stop-color="#9C9898"/>
<stop offset="0.92" stop-color="#7A7373"/>
<stop offset="1" stop-color="#635B5B"/>
</linearGradient>
<linearGradient id="paint15_linear_13069_46821" x1="116.79" y1="36.9056" x2="173.102" y2="51.6497" gradientUnits="userSpaceOnUse">
<stop stop-color="#B3B3B2"/>
<stop offset="0.5" stop-color="#E5E5E5"/>
<stop offset="0.62" stop-color="#CCCCCC"/>
<stop offset="0.87" stop-color="#9A9B9A"/>
<stop offset="1" stop-color="#878886"/>
</linearGradient>
<linearGradient id="paint16_linear_13069_46821" x1="101.675" y1="14.1969" x2="123.674" y2="43.5792" gradientUnits="userSpaceOnUse">
<stop stop-color="#64615E"/>
<stop offset="0.65" stop-color="#8A827F"/>
</linearGradient>
<linearGradient id="paint17_linear_13069_46821" x1="102.896" y1="11.2679" x2="132.935" y2="34.8326" gradientUnits="userSpaceOnUse">
<stop stop-color="#A29F9E"/>
<stop offset="0.27" stop-color="#D4D3D4"/>
<stop offset="0.41" stop-color="#EFEFF2"/>
<stop offset="0.5" stop-color="#C9CACB"/>
<stop offset="0.6" stop-color="#A7A9A8"/>
<stop offset="0.7" stop-color="#8C8F8C"/>
<stop offset="0.8" stop-color="#787C78"/>
<stop offset="0.9" stop-color="#6D716C"/>
<stop offset="1" stop-color="#696D68"/>
</linearGradient>
<linearGradient id="paint18_linear_13069_46821" x1="102.113" y1="17.382" x2="108.907" y2="26.4581" gradientUnits="userSpaceOnUse">
<stop stop-color="#64615E"/>
<stop offset="0.65" stop-color="#8A827F"/>
</linearGradient>
<linearGradient id="paint19_linear_13069_46821" x1="103.441" y1="14.1592" x2="125.034" y2="42.9898" gradientUnits="userSpaceOnUse">
<stop stop-color="#ACAEAD"/>
<stop offset="1" stop-color="#9C9C9A"/>
</linearGradient>
<linearGradient id="paint20_linear_13069_46821" x1="119.252" y1="21.1237" x2="134.6" y2="33.1591" gradientUnits="userSpaceOnUse">
<stop stop-color="#D6D5D5"/>
<stop offset="1" stop-color="#A2A3A1"/>
</linearGradient>
<linearGradient id="paint21_linear_13069_46821" x1="129.819" y1="38.3023" x2="133.552" y2="36.9124" gradientUnits="userSpaceOnUse">
<stop stop-color="#A2A3A1"/>
<stop offset="1" stop-color="#D6D5D5"/>
</linearGradient>
<linearGradient id="paint22_linear_13069_46821" x1="99.8041" y1="64.1678" x2="132.199" y2="48.7601" gradientUnits="userSpaceOnUse">
<stop stop-color="#64615E"/>
<stop offset="0.65" stop-color="#8A827F"/>
</linearGradient>
<linearGradient id="paint23_linear_13069_46821" x1="97.9574" y1="64.282" x2="127.187" y2="39.0908" gradientUnits="userSpaceOnUse">
<stop stop-color="#A29F9E"/>
<stop offset="0.27" stop-color="#D4D3D4"/>
<stop offset="0.41" stop-color="#EFEFF2"/>
<stop offset="0.5" stop-color="#C9CACB"/>
<stop offset="0.6" stop-color="#A7A9A8"/>
<stop offset="0.7" stop-color="#8C8F8C"/>
<stop offset="0.8" stop-color="#787C78"/>
<stop offset="0.9" stop-color="#6D716C"/>
<stop offset="1" stop-color="#696D68"/>
</linearGradient>
<linearGradient id="paint24_linear_13069_46821" x1="103.487" y1="65.6323" x2="112.837" y2="61.1834" gradientUnits="userSpaceOnUse">
<stop stop-color="#64615E"/>
<stop offset="0.65" stop-color="#8A827F"/>
</linearGradient>
<linearGradient id="paint25_linear_13069_46821" x1="100.276" y1="63.2361" x2="132.164" y2="48.0672" gradientUnits="userSpaceOnUse">
<stop stop-color="#ACAEAD"/>
<stop offset="1" stop-color="#9C9C9A"/>
</linearGradient>
<linearGradient id="paint26_linear_13069_46821" x1="110.549" y1="48.1683" x2="124.781" y2="35.9012" gradientUnits="userSpaceOnUse">
<stop stop-color="#D6D5D5"/>
<stop offset="1" stop-color="#A2A3A1"/>
</linearGradient>
<linearGradient id="paint27_linear_13069_46821" x1="145.333" y1="4.45065" x2="138.338" y2="37.4535" gradientUnits="userSpaceOnUse">
<stop stop-color="#64615E"/>
<stop offset="0.65" stop-color="#8A827F"/>
</linearGradient>
<linearGradient id="paint28_linear_13069_46821" x1="143.258" y1="2.49534" x2="127.043" y2="33.9313" gradientUnits="userSpaceOnUse">
<stop stop-color="#A29F9E"/>
<stop offset="0.27" stop-color="#D4D3D4"/>
<stop offset="0.41" stop-color="#EFEFF2"/>
<stop offset="0.5" stop-color="#C9CACB"/>
<stop offset="0.6" stop-color="#A7A9A8"/>
<stop offset="0.7" stop-color="#8C8F8C"/>
<stop offset="0.8" stop-color="#787C78"/>
<stop offset="0.9" stop-color="#6D716C"/>
<stop offset="1" stop-color="#696D68"/>
</linearGradient>
<linearGradient id="paint29_linear_13069_46821" x1="146.112" y1="7.25287" x2="143.947" y2="17.4523" gradientUnits="userSpaceOnUse">
<stop stop-color="#64615E"/>
<stop offset="0.65" stop-color="#8A827F"/>
</linearGradient>
<linearGradient id="paint30_linear_13069_46821" x1="143.822" y1="5.0952" x2="136.962" y2="37.4845" gradientUnits="userSpaceOnUse">
<stop stop-color="#ACAEAD"/>
<stop offset="1" stop-color="#9C9C9A"/>
</linearGradient>
<linearGradient id="paint31_linear_13069_46821" x1="132.944" y1="16.9312" x2="124.668" y2="32.9907" gradientUnits="userSpaceOnUse">
<stop stop-color="#D6D5D5"/>
<stop offset="1" stop-color="#A2A3A1"/>
</linearGradient>
<linearGradient id="paint32_linear_13069_46821" x1="161.882" y1="37.5706" x2="130.215" y2="42.0177" gradientUnits="userSpaceOnUse">
<stop stop-color="#64615E"/>
<stop offset="0.65" stop-color="#8A827F"/>
</linearGradient>
<linearGradient id="paint33_linear_13069_46821" x1="163.243" y1="36.3001" x2="130.964" y2="33.1694" gradientUnits="userSpaceOnUse">
<stop stop-color="#A29F9E"/>
<stop offset="0.27" stop-color="#D4D3D4"/>
<stop offset="0.41" stop-color="#EFEFF2"/>
<stop offset="0.5" stop-color="#C9CACB"/>
<stop offset="0.6" stop-color="#A7A9A8"/>
<stop offset="0.7" stop-color="#8C8F8C"/>
<stop offset="0.8" stop-color="#787C78"/>
<stop offset="0.9" stop-color="#6D716C"/>
<stop offset="1" stop-color="#696D68"/>
</linearGradient>
<linearGradient id="paint34_linear_13069_46821" x1="159.978" y1="41.2661" x2="150.836" y2="42.5501" gradientUnits="userSpaceOnUse">
<stop stop-color="#64615E"/>
<stop offset="0.65" stop-color="#8A827F"/>
</linearGradient>
<linearGradient id="paint35_linear_13069_46821" x1="161.095" y1="37.2692" x2="129.923" y2="41.6452" gradientUnits="userSpaceOnUse">
<stop stop-color="#ACAEAD"/>
<stop offset="1" stop-color="#9C9C9A"/>
</linearGradient>
<linearGradient id="paint36_linear_13069_46821" x1="146.503" y1="34.308" x2="130.781" y2="32.7837" gradientUnits="userSpaceOnUse">
<stop stop-color="#D6D5D5"/>
<stop offset="1" stop-color="#A2A3A1"/>
</linearGradient>
<linearGradient id="paint37_linear_13069_46821" x1="126.193" y1="37.7743" x2="131.775" y2="39.0075" gradientUnits="userSpaceOnUse">
<stop offset="0.03" stop-color="#CEC8C5"/>
<stop offset="0.05" stop-color="#D7D2CF"/>
<stop offset="0.11" stop-color="#EDEAE8"/>
<stop offset="0.16" stop-color="#FAF9F8"/>
<stop offset="0.21" stop-color="#FFFEFD"/>
<stop offset="0.32" stop-color="#FAF8F8"/>
<stop offset="0.46" stop-color="#ECE8E8"/>
<stop offset="0.63" stop-color="#D4CDCE"/>
<stop offset="0.8" stop-color="#B3A8AA"/>
<stop offset="0.92" stop-color="#998B8E"/>
</linearGradient>
<linearGradient id="paint38_linear_13069_46821" x1="127.05" y1="37.9583" x2="131.627" y2="38.9704" gradientUnits="userSpaceOnUse">
<stop stop-color="#D7D2CE"/>
<stop offset="1" stop-color="#B2ABAB"/>
</linearGradient>
<radialGradient id="paint39_radial_13069_46821" cx="0" cy="0" r="1" gradientUnits="userSpaceOnUse" gradientTransform="translate(81.6356 80.6903) scale(80.6903 80.6903)">
<stop stop-color="#0034FF"/>
<stop offset="0.09" stop-color="#0032F4"/>
<stop offset="0.23" stop-color="#002CD8"/>
<stop offset="0.43" stop-color="#0023AA"/>
<stop offset="0.66" stop-color="#001569"/>
<stop offset="0.92" stop-color="#000519"/>
<stop offset="1"/>
</radialGradient>
<linearGradient id="paint40_linear_13069_46821" x1="75.2373" y1="80.7639" x2="130.692" y2="130.504" gradientUnits="userSpaceOnUse">
<stop stop-color="#58CCFF"/>
<stop offset="0.48" stop-color="#2A7ED1"/>
<stop offset="0.83" stop-color="#0C4CB3"/>
<stop offset="1" stop-color="#0038A7"/>
</linearGradient>
<linearGradient id="paint41_linear_13069_46821" x1="74.9579" y1="80.2467" x2="96.0409" y2="99.1556" gradientUnits="userSpaceOnUse">
<stop stop-color="#58CCFF"/>
<stop offset="0.48" stop-color="#2A7ED1"/>
<stop offset="0.83" stop-color="#0C4CB3"/>
<stop offset="1" stop-color="#0038A7"/>
</linearGradient>
<linearGradient id="paint42_linear_13069_46821" x1="83.727" y1="88.8987" x2="114.25" y2="69.7013" gradientUnits="userSpaceOnUse">
<stop stop-color="#8DF3FF"/>
<stop offset="0.55" stop-color="#A2FBFF"/>
<stop offset="1" stop-color="#AEFFFF"/>
</linearGradient>
<linearGradient id="paint43_linear_13069_46821" x1="95.1384" y1="67.4455" x2="103.652" y2="71.6516" gradientUnits="userSpaceOnUse">
<stop offset="0.45" stop-color="#C9C9C9"/>
<stop offset="0.54" stop-color="#C4C3C3"/>
<stop offset="0.65" stop-color="#B5B3B3"/>
<stop offset="0.78" stop-color="#9C9898"/>
<stop offset="0.92" stop-color="#7A7373"/>
<stop offset="1" stop-color="#635B5B"/>
</linearGradient>
<linearGradient id="paint44_linear_13069_46821" x1="99.9164" y1="68.4873" x2="103.543" y2="71.0407" gradientUnits="userSpaceOnUse">
<stop stop-color="#B3B3B2"/>
<stop offset="0.5" stop-color="#E5E5E5"/>
<stop offset="0.62" stop-color="#CCCCCC"/>
<stop offset="0.87" stop-color="#9A9B9A"/>
<stop offset="1" stop-color="#878886"/>
</linearGradient>
<linearGradient id="paint45_linear_13069_46821" x1="64.9663" y1="84.9954" x2="65.3506" y2="93.8343" gradientUnits="userSpaceOnUse">
<stop stop-color="#AFA9A6"/>
<stop offset="0.5" stop-color="#EDEAE4"/>
<stop offset="0.65" stop-color="#CDC8C3"/>
<stop offset="0.88" stop-color="#9D9694"/>
<stop offset="1" stop-color="#8B8281"/>
</linearGradient>
<linearGradient id="paint46_linear_13069_46821" x1="64.466" y1="89.4486" x2="65.2469" y2="93.5805" gradientUnits="userSpaceOnUse">
<stop stop-color="#B3B3B2"/>
<stop offset="0.5" stop-color="#E5E5E5"/>
<stop offset="0.62" stop-color="#CCCCCC"/>
<stop offset="0.87" stop-color="#9A9B9A"/>
<stop offset="1" stop-color="#878886"/>
</linearGradient>
<linearGradient id="paint47_linear_13069_46821" x1="90.7843" y1="96.6372" x2="56.1412" y2="45.9689" gradientUnits="userSpaceOnUse">
<stop stop-color="#0034FF"/>
<stop offset="0.28" stop-color="#0022A9"/>
<stop offset="0.54" stop-color="#001461"/>
<stop offset="0.75" stop-color="#00092C"/>
<stop offset="0.91" stop-color="#00020C"/>
<stop offset="1"/>
</linearGradient>
<linearGradient id="paint48_linear_13069_46821" x1="94.5465" y1="95.9903" x2="131.38" y2="129.022" gradientUnits="userSpaceOnUse">
<stop stop-color="#58CCFF"/>
<stop offset="0.48" stop-color="#2A7ED1"/>
<stop offset="0.83" stop-color="#0C4CB3"/>
<stop offset="1" stop-color="#0038A7"/>
</linearGradient>
<linearGradient id="paint49_linear_13069_46821" x1="83.2931" y1="127.174" x2="90.5746" y2="122.856" gradientUnits="userSpaceOnUse">
<stop stop-color="#58CCFF"/>
<stop offset="0.48" stop-color="#2A7ED1"/>
<stop offset="0.83" stop-color="#0C4CB3"/>
<stop offset="1" stop-color="#0038A7"/>
</linearGradient>
<linearGradient id="paint50_linear_13069_46821" x1="114.165" y1="107.364" x2="120.611" y2="103.541" gradientUnits="userSpaceOnUse">
<stop stop-color="#58CCFF"/>
<stop offset="0.48" stop-color="#2A7ED1"/>
<stop offset="0.83" stop-color="#0C4CB3"/>
<stop offset="1" stop-color="#0038A7"/>
</linearGradient>
<linearGradient id="paint51_linear_13069_46821" x1="67.9055" y1="124.121" x2="101.632" y2="124.121" gradientUnits="userSpaceOnUse">
<stop stop-color="#AFA9A6"/>
<stop offset="0.5" stop-color="#EDEAE4"/>
<stop offset="0.65" stop-color="#CDC8C3"/>
<stop offset="0.88" stop-color="#9D9694"/>
<stop offset="1" stop-color="#8B8281"/>
</linearGradient>
<linearGradient id="paint52_linear_13069_46821" x1="69.822" y1="111.535" x2="109.86" y2="139.653" gradientUnits="userSpaceOnUse">
<stop stop-color="#B3B3B2"/>
<stop offset="0.5" stop-color="#E5E5E5"/>
<stop offset="0.62" stop-color="#CCCCCC"/>
<stop offset="0.87" stop-color="#9A9B9A"/>
<stop offset="1" stop-color="#878886"/>
</linearGradient>
<linearGradient id="paint53_linear_13069_46821" x1="93.2977" y1="91.4756" x2="137.974" y2="113.54" gradientUnits="userSpaceOnUse">
<stop offset="0.45" stop-color="#C9C9C9"/>
<stop offset="0.54" stop-color="#C4C3C3"/>
<stop offset="0.65" stop-color="#B5B3B3"/>
<stop offset="0.78" stop-color="#9C9898"/>
<stop offset="0.92" stop-color="#7A7373"/>
<stop offset="1" stop-color="#635B5B"/>
</linearGradient>
<linearGradient id="paint54_linear_13069_46821" x1="98.0674" y1="91.4715" x2="139.018" y2="120.223" gradientUnits="userSpaceOnUse">
<stop stop-color="#B3B3B2"/>
<stop offset="0.5" stop-color="#E5E5E5"/>
<stop offset="0.62" stop-color="#CCCCCC"/>
<stop offset="0.87" stop-color="#9A9B9A"/>
<stop offset="1" stop-color="#878886"/>
</linearGradient>
<radialGradient id="paint55_radial_13069_46821" cx="0" cy="0" r="1" gradientUnits="userSpaceOnUse" gradientTransform="translate(94.5948 20.834) scale(9.71228 9.71228)">
<stop stop-color="#00A7C9"/>
<stop offset="0.22" stop-color="#007A93"/>
<stop offset="0.49" stop-color="#004654"/>
<stop offset="0.72" stop-color="#002027"/>
<stop offset="0.9" stop-color="#00090A"/>
<stop offset="1"/>
</radialGradient>
<radialGradient id="paint56_radial_13069_46821" cx="0" cy="0" r="1" gradientUnits="userSpaceOnUse" gradientTransform="translate(66.0293 61.1201) scale(9.71228 9.71228)">
<stop stop-color="#00A7C9"/>
<stop offset="0.22" stop-color="#007A93"/>
<stop offset="0.49" stop-color="#004654"/>
<stop offset="0.72" stop-color="#002027"/>
<stop offset="0.9" stop-color="#00090A"/>
<stop offset="1"/>
</radialGradient>
<radialGradient id="paint57_radial_13069_46821" cx="0" cy="0" r="1" gradientUnits="userSpaceOnUse" gradientTransform="translate(58.0477 89.5233) scale(9.71228)">
<stop stop-color="#00A7C9"/>
<stop offset="0.22" stop-color="#007A93"/>
<stop offset="0.49" stop-color="#004654"/>
<stop offset="0.72" stop-color="#002027"/>
<stop offset="0.9" stop-color="#00090A"/>
<stop offset="1"/>
</radialGradient>
<radialGradient id="paint58_radial_13069_46821" cx="0" cy="0" r="1" gradientUnits="userSpaceOnUse" gradientTransform="translate(49.8119 31.6589) scale(9.71228)">
<stop stop-color="#00A7C9"/>
<stop offset="0.22" stop-color="#007A93"/>
<stop offset="0.49" stop-color="#004654"/>
<stop offset="0.72" stop-color="#002027"/>
<stop offset="0.9" stop-color="#00090A"/>
<stop offset="1"/>
</radialGradient>
<radialGradient id="paint59_radial_13069_46821" cx="0" cy="0" r="1" gradientUnits="userSpaceOnUse" gradientTransform="translate(73.2703 57.7881) scale(4.88747 4.88747)">
<stop stop-color="#00A7C9"/>
<stop offset="0.22" stop-color="#007A93"/>
<stop offset="0.49" stop-color="#004654"/>
<stop offset="0.72" stop-color="#002027"/>
<stop offset="0.9" stop-color="#00090A"/>
<stop offset="1"/>
</radialGradient>
<radialGradient id="paint60_radial_13069_46821" cx="0" cy="0" r="1" gradientUnits="userSpaceOnUse" gradientTransform="translate(45.034 72.9204) scale(4.88747 4.88747)">
<stop stop-color="#00A7C9"/>
<stop offset="0.22" stop-color="#007A93"/>
<stop offset="0.49" stop-color="#004654"/>
<stop offset="0.72" stop-color="#002027"/>
<stop offset="0.9" stop-color="#00090A"/>
<stop offset="1"/>
</radialGradient>
<radialGradient id="paint61_radial_13069_46821" cx="0" cy="0" r="1" gradientUnits="userSpaceOnUse" gradientTransform="translate(58.0437 11.1143) scale(4.88747 4.88747)">
<stop stop-color="#00A7C9"/>
<stop offset="0.22" stop-color="#007A93"/>
<stop offset="0.49" stop-color="#004654"/>
<stop offset="0.72" stop-color="#002027"/>
<stop offset="0.9" stop-color="#00090A"/>
<stop offset="1"/>
</radialGradient>
<clipPath id="clip0_13069_46821">
<rect width="176.74" height="167.513" fill="white" transform="translate(0.945312)"/>
</clipPath>
</defs>
</svg>
