<svg width="167" height="171" viewBox="0 0 167 171" fill="none" xmlns="http://www.w3.org/2000/svg">
<g clip-path="url(#clip0_13069_46941)">
<path d="M146.571 152.18C172.879 127.093 172.879 86.4204 146.571 61.3341C120.263 36.2478 77.6086 36.2478 51.3004 61.3341C24.9921 86.4204 24.9921 127.093 51.3004 152.18C77.6086 177.266 120.263 177.266 146.571 152.18Z" fill="#3ABEF9"/>
<path d="M97.7797 169.851C134.345 169.851 163.987 141.346 163.987 106.183C163.987 71.0211 134.345 42.5164 97.7797 42.5164C61.2144 42.5164 31.5723 71.0211 31.5723 106.183C31.5723 141.346 61.2144 169.851 97.7797 169.851Z" fill="#1D1E28"/>
<path d="M96.658 166.642C132.604 166.642 161.744 138.855 161.744 104.579C161.744 70.3028 132.604 42.5164 96.658 42.5164C60.7122 42.5164 31.5723 70.3028 31.5723 104.579C31.5723 138.855 60.7122 166.642 96.658 166.642Z" fill="url(#paint0_linear_13069_46941)"/>
<path opacity="0.15" d="M32.4229 114.589C32.4229 114.589 33.4324 86.9577 48.3134 73.8463C63.1944 60.735 68.1579 82.8932 68.1579 82.8932L67.2231 88.9453C67.2231 88.9453 60.9323 77.8216 54.1368 79.8182C34.2362 85.6385 33.4978 119.535 33.4978 119.535L32.4229 114.589Z" fill="#22213E"/>
<path opacity="0.15" d="M35.0867 124.785C35.0867 124.785 32.8995 96.9761 48.5563 86.4585C64.2132 75.9409 67.6156 108.18 67.6156 108.18V110.471C67.6156 110.471 62.2876 87.5905 53.2019 88.0718C33.0303 89.1325 36.0589 127.29 36.0589 127.29L35.0867 124.785Z" fill="#22213E"/>
<path style="mix-blend-mode:screen" opacity="0.56" d="M158.902 93.5891C158.902 93.5891 153.612 74.4881 141.974 63.2039C132.215 53.7292 125.504 50.8948 125.383 51.6168C125.261 52.3387 121.55 59.0236 123.663 59.193C125.775 59.3623 134.58 62.9544 138.992 66.0294C150.237 73.8641 158.902 93.5891 158.902 93.5891Z" fill="url(#paint1_linear_13069_46941)"/>
<path style="mix-blend-mode:screen" opacity="0.56" d="M108.8 45.3864C108.8 45.3864 82.7395 42.7124 79.9353 47.2225C78.9445 48.8091 74.1025 73.668 74.1025 73.668C74.1025 73.668 82.0852 54.1748 85.1792 51.5365C88.2732 48.8982 108.8 45.3864 108.8 45.3864Z" fill="url(#paint2_linear_13069_46941)"/>
<g opacity="0.36">
<path style="mix-blend-mode:multiply" d="M96.6577 42.5164C87.8389 42.5073 79.111 44.2149 71.0085 47.5345C78.6157 44.6998 86.7142 43.2545 94.8817 43.274C126.429 43.274 151.994 64.0774 151.994 89.7297C151.994 115.382 126.429 136.185 94.8817 136.185C63.3343 136.185 37.7692 115.391 37.7692 89.7297C37.8217 80.744 40.9386 72.0186 46.6492 64.8707C37.1775 75.7196 31.8674 89.3233 31.595 103.437C31.3227 117.551 36.1044 131.332 45.1511 142.506C54.1979 153.68 66.9691 161.579 81.3576 164.9C95.746 168.221 110.892 166.765 124.296 160.774C137.7 154.782 148.562 144.612 155.089 131.941C161.615 119.271 163.417 104.857 160.197 91.079C156.977 77.3007 148.927 64.9808 137.376 56.1522C125.824 47.3236 111.462 42.5137 96.6577 42.5164Z" fill="url(#paint3_linear_13069_46941)"/>
<path style="mix-blend-mode:multiply" d="M71.0087 47.5345C61.3564 51.041 52.9207 57.0445 46.6494 64.8707C53.2214 57.3406 61.5685 51.4001 71.0087 47.5345Z" fill="url(#paint4_linear_13069_46941)"/>
</g>
<path style="mix-blend-mode:screen" opacity="0.56" d="M53.8935 60.833C53.8935 60.833 42.6766 65.7085 36.685 85.0948C30.6933 104.481 35.4792 124.438 35.4792 124.438C35.4792 124.438 34.3575 100.31 40.3398 86.1822C44.1119 77.3883 48.6455 68.9093 53.8935 60.833Z" fill="url(#paint5_linear_13069_46941)"/>
<path opacity="0.15" d="M76.0281 162.15C76.0281 162.15 59.7075 84.6758 84.3846 65.9581C109.062 47.2403 113.006 116.068 113.006 116.068L114.642 138.351C114.642 138.351 108.099 78.0177 93.4235 75.8874C58.8382 70.8425 79.524 164.52 79.524 164.52L76.2991 163.629L76.0281 162.15Z" fill="#22213E"/>
<path opacity="0.15" d="M78.1878 164.788C78.1878 164.788 74.9255 101.959 84.7309 96.8067C103.211 87.0646 111.52 164.788 111.52 164.788L108.501 165.572C108.501 165.572 105.921 98.322 87.8156 101.326C80.4966 102.538 80.0853 165.296 80.0853 165.296L78.1878 164.788Z" fill="#22213E"/>
<path opacity="0.15" d="M120.456 56.1982C120.456 56.1982 108.8 102.119 129.243 115.025C149.685 127.932 159.304 121.487 159.304 121.487L158.369 124.438C158.369 124.438 149.162 128.894 130.589 124.438C106.809 118.689 117.157 64.8707 117.157 64.8707L120.456 56.1982Z" fill="#22213E"/>
<path opacity="0.15" d="M122.214 51.5276C122.214 51.5276 120.868 90.2377 127.383 100.853C139.31 120.293 160.024 118.056 160.024 118.056L160.547 116.487C160.547 116.487 134.683 116.095 128.046 98.8924C121.41 81.6899 123.887 48.1941 123.887 48.1941L122.214 51.5276Z" fill="#22213E"/>
<path d="M76.2997 45.6182C76.2997 45.6182 67.1299 82.1623 66.8682 93.5089C66.6064 104.855 73.0001 162.417 73.0001 162.417L76.2997 163.549C76.2997 163.549 67.3916 122.111 68.99 96.263C70.5884 70.4147 79.5245 44.5664 79.5245 44.5664L76.2997 45.6182Z" fill="#22213E"/>
<path d="M121.681 47.2404C121.681 47.2404 114.773 57.6599 113.184 98.1527C111.595 138.645 121.045 162.123 121.045 162.123L124.597 160.741C124.597 160.741 114.511 143.646 114.511 103.911C114.511 62.2146 123.859 48.1674 123.859 48.1674L121.681 47.2404Z" fill="#22213E"/>
<path style="mix-blend-mode:multiply" opacity="0.51" d="M149.047 117.419C155.563 90.4201 137.892 63.4963 109.578 57.283C81.2643 51.0696 53.029 67.9196 46.5131 94.9185C39.9971 121.917 57.6678 148.841 85.9818 155.054C114.296 161.268 142.531 144.418 149.047 117.419Z" fill="url(#paint6_linear_13069_46941)"/>
<path style="mix-blend-mode:screen" d="M70.0926 138.021C108.63 138.021 139.871 108.232 139.871 71.4843C139.871 34.7369 108.63 4.94717 70.0926 4.94717C31.5552 4.94717 0.314453 34.7369 0.314453 71.4843C0.314453 108.232 31.5552 138.021 70.0926 138.021Z" fill="url(#paint7_radial_13069_46941)"/>
<path d="M95.5176 55.1286C95.5176 55.1286 111.128 49.7806 115.512 49.3795C117.415 49.1705 119.343 49.4135 121.124 50.0869C122.904 50.7603 124.483 51.8431 125.719 53.239C127.588 55.5742 135.833 72.5182 136.543 74.1583C137.254 75.7983 136.805 79.3012 133.842 82.1802C135.291 86.2892 139.011 93.5891 140.619 97.0207C141.553 98.9905 142.572 101.798 140.693 104.659C138.815 107.52 123.448 128.511 123.448 128.511L95.5176 55.1286Z" fill="#3ABEF9"/>
<path d="M59.6331 71.0743L34.7504 98.8122C33.3698 100.356 32.6113 102.318 32.6113 104.347C32.6113 106.376 33.3698 108.339 34.7504 109.882C38.4649 114.74 42.4332 119.417 46.6403 123.894C47.6419 124.907 48.8769 125.684 50.2478 126.164C51.6187 126.643 53.0877 126.812 54.5388 126.657C55.4175 126.559 55.997 126.47 55.997 126.47L68.3262 139.394C69.5214 140.654 71.0102 141.629 72.6726 142.241C74.3351 142.852 76.1248 143.083 77.8979 142.915L104.529 140.401C108.462 140.029 112.241 138.748 115.538 136.668C118.835 134.588 121.55 131.773 123.448 128.466L137.843 106.531C138.672 105.114 139.174 103.544 139.315 101.927C139.455 100.309 139.23 98.682 138.656 97.1544L132.58 81.681C132.58 81.681 133.01 81.1997 133.599 80.5134C134.331 79.6513 134.808 78.6187 134.983 77.522C135.157 76.4254 135.021 75.3042 134.59 74.2742C130.066 63.5783 126.046 55.7436 126.046 55.7436C124.055 51.287 118.251 49.0765 113.343 50.3957L78.1877 59.7634C70.9643 61.6977 64.5063 65.6345 59.6331 71.0743Z" fill="url(#paint8_linear_13069_46941)"/>
<path style="mix-blend-mode:screen" d="M113.296 50.3689L78.187 59.7635C70.9635 61.6977 64.5055 65.6345 59.6324 71.0743L34.7497 98.8122C33.4813 100.228 32.7328 101.999 32.618 103.858C32.5033 105.716 33.0286 107.56 34.1141 109.107C32.3287 106.246 32.3568 103.59 37.61 101.7C45.9479 98.7142 62.1188 96.1472 73.4198 94.5695C77.3512 94.0347 81.1279 92.7446 84.5212 90.7774C87.9146 88.8102 90.8539 86.2069 93.1614 83.125C101.789 71.5913 115.193 53.8896 117.465 52.1248C118.009 51.6709 118.662 51.352 119.366 51.1965C120.071 51.0411 120.805 51.0538 121.503 51.2335C118.976 49.9779 116.049 49.6695 113.296 50.3689Z" fill="url(#paint9_linear_13069_46941)"/>
<path style="mix-blend-mode:multiply" d="M121.503 51.2157C121.096 51.0215 120.678 50.8489 120.251 50.6987C119.179 50.8719 118.195 51.3724 117.447 52.1248C114.381 54.6918 97.2282 77.6879 93.1434 83.125C92.5333 83.9705 91.8781 84.7856 91.1804 85.5672C89.6206 87.2662 88.6851 89.4044 88.5164 91.6568C88.3477 93.9092 88.9549 96.1525 90.2457 98.0457C94.3866 104.133 99.2285 111.219 100.369 113.145C103.173 117.824 56.0156 126.514 56.0156 126.514C56.0156 126.514 104.454 119.518 105.744 121.585C107.034 123.653 115.091 133.574 112.193 136.15C108.454 139.528 87.5163 141.355 77.9165 142.942L104.547 140.428C108.481 140.056 112.26 138.774 115.557 136.695C118.853 134.615 121.568 131.8 123.466 128.493L137.861 106.558C138.692 105.136 139.193 103.561 139.33 101.938C139.467 100.316 139.237 98.6846 138.656 97.1544L132.58 81.681C132.58 81.681 133.01 81.1997 133.599 80.5134C134.331 79.6513 134.808 78.6187 134.982 77.522C135.157 76.4253 135.021 75.3042 134.59 74.2741C130.066 63.5783 126.046 55.7436 126.046 55.7436C125.136 53.7729 123.528 52.1702 121.503 51.2157Z" fill="url(#paint10_linear_13069_46941)"/>
<path style="mix-blend-mode:multiply" opacity="0.61" d="M93.7884 55.592L94.8166 55.3157C94.8166 55.3157 66.5408 91.0666 64.8116 93.4821C63.0823 95.8976 62.9421 97.4307 63.7553 99.8461C64.5685 102.262 77.7764 122.432 77.7764 122.432L81.5994 121.951C81.5994 121.951 90.2458 136.292 91.2646 138.396C92.2835 140.499 97.2937 141.123 97.2937 141.123L91.2553 141.658L71.1117 117.325L58.876 98.0992L62.7551 91.5212L93.7884 55.592Z" fill="url(#paint11_linear_13069_46941)"/>
<path style="mix-blend-mode:multiply" d="M81.9824 121.915C81.9824 121.915 94.7229 119.776 101.612 115.676C108.501 111.576 132.458 81.6899 132.458 81.6899L135.468 89.899C135.468 89.899 133.907 88.3035 130.028 90.2644C117.521 96.5928 108.809 114.856 103.388 117.895C99.2751 120.275 81.9824 121.915 81.9824 121.915Z" fill="url(#paint12_linear_13069_46941)"/>
<path style="mix-blend-mode:multiply" opacity="0.61" d="M48.3039 83.7043L47.5 84.5957C47.5 84.5957 92.8535 75.3527 96.2746 75.0318C99.6957 74.7109 102.051 74.292 103.809 76.3688C105.566 78.4455 118.241 98.8301 118.241 98.8301L117.082 100.158L114.558 103.037C114.558 103.037 124.148 114.357 125.336 116.576C126.523 118.796 126.84 123.11 126.84 123.11L128.476 121.024L128.43 115.935L117.624 100.024L120.353 96.4591L104.07 72.0904L98.3404 71.4843L48.3039 83.7043Z" fill="url(#paint13_linear_13069_46941)"/>
<g style="mix-blend-mode:screen">
<path d="M60.6426 96.5215C60.6426 96.5215 81.2722 91.8599 86.3105 96.263C91.3487 100.666 98.5836 110.328 98.5836 110.328C98.5836 110.328 92.676 101.7 90.2738 98.0011C87.8715 94.3021 87.6845 89.9792 91.2085 85.5226C94.7324 81.066 98.864 75.7181 98.864 75.7181C98.864 75.7181 89.8157 85.6207 81.8705 89.4979C73.9252 93.3752 60.6426 96.5215 60.6426 96.5215Z" fill="#FF97F3"/>
</g>
<path d="M48.3039 83.7043C48.3039 83.7043 87.3292 75.8429 92.7693 74.4524C98.2095 73.062 102.977 71.4219 105.856 76.3955C108.735 81.3691 119.157 97.8318 119.157 97.8318L116.166 101.272C116.166 101.272 125.794 112.859 127.635 117.468C128.143 118.803 128.259 120.245 127.972 121.639L129.476 122.102L132.178 118.234C132.067 116.624 131.718 115.036 131.14 113.519C129.103 108.911 120.41 97.5733 120.41 97.5733L123.214 94.4715C123.214 94.4715 112.259 75.8696 109.894 71.9211C107.529 67.9725 104.108 66.6534 98.4432 68.2845C93.3302 69.7552 50.6968 78.6238 50.6968 78.6238L47.5 82.7417L48.3039 83.7043Z" fill="url(#paint14_linear_13069_46941)"/>
<path style="mix-blend-mode:multiply" d="M117.204 100.256L119.765 97.0741L106.052 74.9515C103.79 71.306 100.444 71.618 96.247 72.5539C93.2091 73.2224 47.4443 82.7417 47.4443 82.7417L48.3043 83.7043C48.3043 83.7043 87.3296 75.8429 92.7698 74.4524C98.2099 73.0619 102.977 71.4219 105.856 76.3955C108.735 81.3691 119.157 97.8318 119.157 97.8318L116.166 101.272C116.166 101.272 125.794 112.859 127.635 117.468C128.143 118.803 128.263 120.244 127.981 121.639L129.477 122.102C129.477 122.102 129.477 117.468 128.093 115.106C126.71 112.744 117.204 100.256 117.204 100.256Z" fill="url(#paint15_linear_13069_46941)"/>
<path d="M93.7884 55.5921C93.7884 55.5921 67.7466 87.8401 63.9609 92.8582C60.1752 97.8763 61.6147 99.7838 63.4188 102.663C65.2228 105.542 76.8042 122.548 76.8042 122.548L79.6645 122.129C79.6645 122.129 90.0495 138.628 90.7972 139.644C91.545 140.66 95.5644 141.346 95.5644 141.346L95.7327 142.719L90.6383 143.815C88.8267 143.277 87.1391 142.415 85.6655 141.275C83.7961 139.626 74.215 124.028 74.215 124.028L71.4108 124.384C71.4108 124.384 58.0627 105.176 56.3054 102.609C54.5481 100.042 55.6792 96.2898 58.6329 93.2771C61.5867 90.2645 88.3202 55.699 88.3202 55.699L92.9939 54.3709L93.7884 55.5921Z" fill="url(#paint16_linear_13069_46941)"/>
<path style="mix-blend-mode:multiply" d="M63.9608 92.8582C67.6997 87.8401 93.7976 55.5921 93.7976 55.5921L93.0405 54.3709C93.0405 54.3709 62.7737 92.9206 61.3248 95.0063C60.7035 95.8354 60.3302 96.8098 60.2445 97.8255C60.1589 98.8413 60.3643 99.8601 60.8388 100.773C61.6707 102.11 75.3739 122.842 75.3739 122.842L78.4586 122.334C78.4586 122.334 87.9088 138.03 89.6754 140.446C91.4421 142.861 95.7138 142.719 95.7138 142.719L95.5456 141.346C95.5456 141.346 91.5355 140.66 90.7784 139.644C90.0213 138.628 79.6457 122.156 79.6457 122.156L76.7854 122.575C76.7854 122.575 65.204 105.595 63.3999 102.689C61.5959 99.7838 60.1377 97.8763 63.9608 92.8582Z" fill="url(#paint17_linear_13069_46941)"/>
<g style="mix-blend-mode:screen">
<path d="M57.6422 94.4002C54.9502 97.5109 54.9689 100.639 56.3055 102.609L58.7826 106.175C58.7826 106.175 56.0718 102.386 57.2216 101.647C58.3713 100.907 61.7457 102.253 61.7457 102.253C61.3935 101.787 61.0809 101.295 60.811 100.782C60.3294 99.8708 60.12 98.8507 60.2058 97.8336C60.2915 96.8164 60.669 95.8414 61.297 95.0152C63.1011 92.6353 59.7173 96.4145 58.4087 96.8959C57.1001 97.3772 57.6422 94.4002 57.6422 94.4002Z" fill="#C8C8C7"/>
</g>
<g style="mix-blend-mode:screen" opacity="0.7">
<path d="M100.79 67.7408C102.311 67.3878 103.909 67.4815 105.373 68.0096C106.838 68.5377 108.101 69.4754 108.997 70.7C109.848 71.7994 110.589 72.9721 111.212 74.2028C111.212 74.2028 108.595 70.2097 106.8 71.2169C104.575 72.4737 106.594 75.8161 106.594 75.8161C106.143 74.979 105.577 74.2027 104.912 73.5076C104.214 72.8473 103.355 72.3625 102.412 72.0965C101.469 71.8305 100.472 71.7916 99.509 71.9835C96.4618 72.3489 101.78 70.3078 102.846 69.4432C103.912 68.5786 100.79 67.7408 100.79 67.7408Z" fill="#C8C8C7"/>
</g>
<path d="M120.793 11.6499C117.802 13.3523 111.193 16.9533 109.052 18.7805C109.436 18.8964 110.202 19.7966 110.202 19.7966C110.202 19.7966 115.194 18.9587 118.447 21.909C120.064 23.3797 120.709 24.583 120.662 25.8843C121.08 26.1985 121.471 26.5442 121.83 26.9183C121.83 26.9183 123.971 13.8158 131.991 18.3794C140.198 23.0499 143.432 30.6618 144.675 36.6426C144.811 37.6415 144.836 38.6513 144.75 39.6552C144.058 47.2939 134.356 49.4598 121.213 48.4169C109.277 47.4186 97.443 32.3731 87.862 45.2171C81.1319 54.2372 76.8227 66.7247 75.8506 71.8854C75.8506 72.1706 76.991 72.9015 76.991 72.9015C77.4957 71.3684 81.6647 57.3747 87.4881 50.8859C93.3115 44.3971 111.791 50.672 120.924 51.7772C128.869 52.7487 141.03 53.9075 143.946 45.8677C145.947 40.3772 147.835 28.6207 141.815 20.9107C133.879 10.8923 125.242 9.12747 120.793 11.6499Z" fill="url(#paint18_linear_13069_46941)"/>
<path d="M130.813 17.3633C136.422 19.5916 145.367 29.8418 145.068 40.7783C144.769 51.7148 128.897 51.8842 119.746 50.8057C110.595 49.7272 92.1246 43.381 86.3106 49.9143C80.4965 56.4477 76.3182 70.4147 75.8135 71.93C75.8135 71.93 77.1034 57.0895 86.6845 44.2455C96.2655 31.4016 108.099 46.456 120.036 47.4454C133.178 48.5328 142.881 46.3223 143.573 38.6837C144.264 31.0451 137.413 19.6094 130.813 17.3633Z" fill="url(#paint19_linear_13069_46941)"/>
<path d="M144.199 44.5664C145.386 42.2044 149.882 29.922 141.974 19.859C134.066 9.79596 124.093 8.11136 119.653 10.6338C115.213 13.1562 109.053 18.7983 109.053 18.7983C109.053 18.7983 114.054 17.9605 117.297 20.9107C120.541 23.861 120.662 25.9021 120.662 25.9021C120.662 25.9021 122.868 12.6928 130.813 17.3633C145.302 25.8487 145.386 39.2987 144.199 44.5664Z" fill="url(#paint20_linear_13069_46941)"/>
<path d="M129.71 16.9355C132.514 18.4329 137.917 20.5899 140.805 25.6793C143.694 30.7688 146.245 39.8692 144.198 44.5486C142.918 47.4454 141.927 47.3473 141.394 47.8108C145.133 44.5129 144.806 41.2685 143.395 35.1719C140.086 20.7949 129.71 16.9355 129.71 16.9355Z" fill="url(#paint21_linear_13069_46941)"/>
<g style="mix-blend-mode:screen" opacity="0.7">
<path d="M87.4502 48.8715C87.4502 48.8715 87.8428 48.1584 91.4509 47.3028C93.2702 46.785 95.1925 46.6873 97.0593 47.0175C97.0593 47.0175 94.844 45.3953 95.0963 43.2294C95.302 41.4468 96.1993 39.9315 96.9658 39.7533C97.5825 39.6168 98.2066 39.5127 98.8353 39.4413C97.6119 39.1584 96.3549 39.0296 95.0963 39.058C93.7614 39.1643 92.4621 39.5233 91.2745 40.1141C90.0868 40.7048 89.0345 41.5154 88.1793 42.4985C88.9645 41.732 89.8712 42.2133 89.9459 43.2027C90.0955 46.0995 87.4502 48.8715 87.4502 48.8715Z" fill="#D0CECD"/>
</g>
<g style="mix-blend-mode:screen" opacity="0.7">
<path d="M116.923 12.3986C116.923 12.3986 118.605 11.5608 119.727 12.5234C120.849 13.486 124.018 15.6965 123.933 16.472C123.742 17.3789 123.486 18.2723 123.167 19.1459C123.841 18.1299 124.773 17.2929 125.878 16.7126C127.059 16.308 128.353 16.3239 129.523 16.7572C128.407 16.2496 127.338 15.6533 126.326 14.9745C124.457 13.7713 120.578 11.846 121.475 10.7764C121.899 10.1923 122.535 9.77926 123.26 9.61771C122.184 9.6344 121.126 9.88434 120.166 10.3486C118.895 11.0884 116.923 12.3986 116.923 12.3986Z" fill="#D0CECD"/>
</g>
<path d="M77.3365 71.003C77.6637 74.3633 78.2713 51.287 83.1506 44.6823C88.759 37.0971 95.8817 35.3323 99.7422 36.5445C100.864 36.9166 101.894 37.5041 102.769 38.2706C103.643 39.0371 104.344 39.9664 104.827 41.0011L104.313 30.3053C104.313 30.3053 96.078 27.2124 91.61 29.4139C85.207 32.596 74.2426 38.8709 77.3365 71.003Z" fill="url(#paint22_linear_13069_46941)"/>
<path d="M79.1125 73.1333C79.1125 73.1333 107.669 66.0027 111.978 53.1588C116.287 40.3148 109.632 35.2343 106.369 31.9542C103.107 28.6742 96.6762 27.7294 94.5824 28.2107C96.1106 28.1476 97.6259 28.5015 98.9505 29.2309C100.275 29.9603 101.354 31.0349 102.06 32.3286C114.586 54.7899 81.197 69.9245 79.2434 71.2258C77.2898 72.5272 79.1125 73.1333 79.1125 73.1333Z" fill="url(#paint23_linear_13069_46941)"/>
<g style="mix-blend-mode:screen">
<path d="M112.959 49.5133C112.56 51.4261 111.933 53.2892 111.09 55.0662C109.716 58.0343 105.341 61.3946 105.341 61.3946C105.341 61.3946 109.22 58.1591 107.547 56.109C105.874 54.059 102.733 55.0573 102.247 55.4405C101.761 55.8238 99.9385 56.9736 99.9385 56.9736C99.9385 56.9736 103.771 52.1516 104.612 48.8982C105.175 46.3729 105.565 43.8154 105.781 41.2418C105.781 41.2418 105.575 45.2349 106.902 47.6682C108.23 50.1015 109.856 51.0909 110.445 50.9661C112.744 50.5026 112.959 49.5133 112.959 49.5133Z" fill="#C8C8C7"/>
</g>
<path style="mix-blend-mode:multiply" opacity="0.38" d="M104.715 37.7478C105.136 39.1204 102.425 35.7423 97.0786 35.2699C91.2084 34.753 86.5348 39.0046 86.2263 38.4341C84.8055 35.8315 90.9 31.3035 96.5738 31.0985C101.949 30.9203 104.22 36.1078 104.715 37.7478Z" fill="url(#paint24_linear_13069_46941)"/>
<path d="M75.9632 55.2623C77.2345 39.4859 84.245 32.5068 87.8063 29.9487C90.6106 27.9076 95.331 26.5796 99.4158 28.2196C102.276 29.3694 106.838 33.5051 105.594 44.6021C103.631 62.1968 78.6459 71.6002 78.4029 71.6982L77.8233 71.3417C78.057 71.2437 102.07 60.7706 103.996 43.889C104.837 36.2593 102.958 31.8651 98.7147 30.1627C95.3684 28.8168 89.7599 30.5816 87.3483 32.3107C82.9551 35.4749 74.4116 44.7358 77.8701 71.3417L76.5334 71.0208C75.7919 65.7993 75.6009 60.5201 75.9632 55.2623Z" fill="url(#paint25_linear_13069_46941)"/>
<path style="mix-blend-mode:multiply" d="M78.4025 71.7249C78.4025 71.7249 90.7784 66.7157 95.6016 62.5889C100.425 58.4621 106.454 57.3034 105.426 60.111C104.07 63.8457 86.7964 70.4147 82.8612 72.0547C78.2249 73.98 77.5425 72.1973 78.4025 71.7249Z" fill="url(#paint26_linear_13069_46941)"/>
<path style="mix-blend-mode:multiply" d="M74.6543 76.859C74.6543 76.859 83.0669 74.5861 82.3191 73.2937C81.5714 72.0013 79.2626 72.5717 79.2626 72.5717L74.6543 76.859Z" fill="url(#paint27_linear_13069_46941)"/>
<path d="M73.9719 72.4558C73.9719 72.4558 73.3082 59.6119 68.2419 56.3407C63.1756 53.0696 52.1271 54.9681 47.3879 52.8379C42.6488 50.7076 34.0679 31.767 41.0691 27.6759C48.0703 23.5847 58.3244 26.7845 57.8944 31.5442C57.4644 36.3038 52.6599 37.6854 52.6599 37.6854L54.5293 39.3254C54.5293 39.3254 79.842 28.0324 66.7744 25.8486C53.7068 23.6649 47.5936 24.5919 42.3777 25.8486C37.1619 27.1054 37.3021 31.8116 37.7508 35.2521C38.1995 38.6926 36.8908 51.9465 41.1813 54.2996C45.4717 56.6527 60.8855 52.9448 63.4841 57.7669C66.0827 62.5889 73.1119 72.7856 73.1119 72.7856L73.9719 72.4558Z" fill="url(#paint28_linear_13069_46941)"/>
<path d="M74.9997 72.0458C74.9997 72.0458 74.336 59.2019 69.2698 55.9308C64.2035 52.6596 53.1456 54.5581 48.4064 52.4279C43.6673 50.2976 35.0958 31.357 42.0876 27.2748C49.0794 23.1925 60.343 26.3835 59.9037 31.1431C59.4644 35.9028 54.529 39.3254 54.529 39.3254L65.5589 37.3824C65.5589 37.3824 80.8605 27.6313 67.7929 25.403C54.7253 23.1747 48.6214 24.1819 43.4336 25.403C38.2458 26.6241 37.9187 31.5709 38.3674 35.0204C38.816 38.4698 38.2552 51.2335 42.5456 53.5866C46.8361 55.9397 61.9508 52.5081 64.54 57.3212C67.1292 62.1343 74.1585 72.3756 74.1585 72.3756L74.9997 72.0458Z" fill="url(#paint29_linear_13069_46941)"/>
<path style="mix-blend-mode:multiply" d="M74.364 71.306C74.2518 68.3201 73.1675 60.2537 70.4194 58.6938C67.6713 57.134 65.4279 56.1536 67.475 60.2893C69.5439 64.0866 71.8442 67.7651 74.364 71.306Z" fill="url(#paint30_linear_13069_46941)"/>
<g style="mix-blend-mode:screen">
<path d="M68.2601 25.4921C68.2601 25.4921 70.1296 26.4637 69.307 26.945C68.4844 27.4263 61.988 28.7276 60.8944 28.7276C59.8007 28.7276 57.333 27.3104 57.333 27.3104C57.333 27.3104 59.7727 28.8078 59.8755 30.537C59.8988 31.7141 59.6332 32.8801 59.0997 33.9419C59.7308 32.9442 60.5481 32.0651 61.5113 31.3481C62.6517 30.6974 72.214 28.2374 72.3355 29.2089C72.4571 30.1805 71.4008 32.4444 71.4008 32.4444C71.4008 32.4444 74.1583 29.5566 72.6814 27.6313C71.2045 25.706 68.2601 25.4921 68.2601 25.4921Z" fill="#C8C8C7"/>
</g>
<g style="mix-blend-mode:screen">
<path d="M38.2275 33.0773C38.2275 33.0773 38.9005 37.9261 39.3025 44.4594C39.4707 47.2404 40.1718 54.0857 46.1167 54.3709C39.1997 54.3709 39.3866 47.9623 39.1249 45.3864C38.8632 42.8105 38.2275 33.0773 38.2275 33.0773Z" fill="#C8C8C7"/>
</g>
<path d="M71.5691 74.9605C74.5135 73.6235 53.4165 80.9591 45.9666 79.8895C37.4138 78.6505 33.7122 74.5415 33.6655 71.52C33.6188 68.4984 36.2267 66.6266 36.2267 66.6266L26.7017 70.5395C26.7017 70.5395 26.2904 77.0996 29.6181 79.3279C34.3946 82.5634 43.312 87.7866 71.5691 74.9605Z" fill="url(#paint31_linear_13069_46941)"/>
<path d="M72.9711 73.0887C72.9711 73.0887 58.0153 56.4031 45.1066 57.8114C32.1979 59.2197 29.5432 65.352 27.5335 68.6321C25.5239 71.9121 26.5988 76.5292 27.627 77.7592C27.627 77.7592 25.7575 74.6128 29.16 71.3952C45.8076 55.5118 69.4378 72.7589 71.2232 73.6235C73.0085 74.4881 72.9711 73.0887 72.9711 73.0887Z" fill="url(#paint32_linear_13069_46941)"/>
<g style="mix-blend-mode:screen">
<path d="M41.5176 58.3462C43.3612 57.9614 45.2393 57.7465 47.126 57.7045C50.2294 57.6332 54.6039 59.4247 54.6039 59.4247C54.6039 59.4247 50.4443 57.9362 49.089 59.7189C47.7336 61.5015 49.5657 63.2841 50.0237 63.4802C50.4817 63.6763 52.0988 64.5142 52.0988 64.5142C52.0988 64.5142 46.5839 63.5694 43.3964 64.1042C40.9347 64.5746 38.5009 65.1697 36.1055 65.8868C36.1055 65.8868 39.7883 64.6924 41.6017 62.99C43.4151 61.2876 43.8264 59.8793 43.546 59.5228C42.4804 58.159 41.5176 58.3462 41.5176 58.3462Z" fill="#C8C8C7"/>
</g>
<path style="mix-blend-mode:multiply" opacity="0.38" d="M33.2831 67.7943C34.4047 67.0545 32.1427 69.9958 33.2831 73.7305C34.5543 77.8305 39.8262 79.524 39.3682 79.9697C37.4333 81.7523 31.4977 79.2566 29.6469 75.5131C27.9177 71.93 31.9464 68.6767 33.2831 67.7943Z" fill="url(#paint33_linear_13069_46941)"/>
<path d="M57.7164 81.1106C43.0316 85.5672 34.6284 83.1874 31.2446 81.6632C28.5526 80.451 25.9633 77.7592 26.2344 74.4792C26.4307 72.1885 28.833 67.7497 39.2647 64.8707C55.8095 60.325 71.7468 73.882 71.9057 73.98L71.7468 74.4881C71.5972 74.3722 54.9776 61.8224 39.1057 66.2166C31.9363 68.2043 28.5058 70.9317 28.2254 74.3455C28.0011 77.0194 31.254 80.1836 33.5441 81.2176C37.713 83.0982 48.6494 85.6742 71.7468 74.4881L71.8589 75.4953C67.3131 77.7313 62.5831 79.6093 57.7164 81.1106Z" fill="url(#paint34_linear_13069_46941)"/>
<path style="mix-blend-mode:multiply" d="M71.9063 73.98C71.9063 73.98 63.6899 67.3931 58.5208 65.5481C53.3517 63.7031 50.5101 60.0665 53.3611 59.808C57.1561 59.4693 68.2608 68.8014 70.8781 70.8871C73.972 73.3828 72.6167 74.4168 71.9063 73.98Z" fill="url(#paint35_linear_13069_46941)"/>
<path d="M80.1601 71.9567C81.0949 73.9444 78.6178 75.1744 75.5986 76.4668C72.5794 77.7592 70.1398 78.6149 69.205 76.654C68.2703 74.6931 69.9715 72.0013 72.944 70.7089C75.9164 69.4164 79.2254 69.9602 80.1601 71.9567Z" fill="url(#paint36_linear_13069_46941)"/>
<g style="mix-blend-mode:screen">
<path d="M72.7756 74.7466C71.8408 75.8518 70.5509 76.3598 69.9713 75.8785C69.3918 75.3972 69.6255 74.0959 70.5789 72.9996C71.5324 71.9032 72.8036 71.3863 73.3831 71.8587C73.9627 72.3311 73.729 73.6324 72.7756 74.7466Z" fill="#C8C8C7"/>
</g>
<path style="mix-blend-mode:multiply" d="M75.5987 76.4668C78.6179 75.1744 81.0949 73.9444 80.1602 71.9567C79.8419 71.3836 79.3694 70.9015 78.7912 70.56C78.213 70.2186 77.5498 70.03 76.8699 70.0136C78.1131 70.5573 78.6833 71.0119 78.3562 72.4291C78.029 73.8463 72.3084 77.777 70.8128 77.2868C69.3172 76.7966 69.2051 76.654 69.2051 76.654C70.1398 78.6149 72.5701 77.7503 75.5987 76.4668Z" fill="url(#paint37_linear_13069_46941)"/>
<g opacity="0.5">
<path style="mix-blend-mode:screen" opacity="0.8" d="M74.3855 22.071C80.7584 21.4452 85.3925 16.0116 84.7362 9.93474C84.0799 3.8579 78.3816 -0.561017 72.0088 0.0648197C65.6359 0.690657 61.0018 6.12425 61.6581 12.2011C62.3144 18.2779 68.0127 22.6969 74.3855 22.071Z" fill="url(#paint38_radial_13069_46941)"/>
</g>
<path d="M74.8501 11.0616C74.85 11.3769 74.7514 11.685 74.5669 11.9467C74.3824 12.2083 74.1203 12.4115 73.8141 12.5305C73.5079 12.6495 73.1714 12.6787 72.8477 12.6146C72.524 12.5504 72.2276 12.3957 71.9965 12.1703C71.7654 11.9448 71.6099 11.6588 71.55 11.3487C71.4901 11.0386 71.5284 10.7186 71.6601 10.4294C71.7918 10.1402 72.0109 9.89492 72.2893 9.72495C72.5678 9.55498 72.8931 9.46799 73.2237 9.47507C73.6592 9.4821 74.0743 9.65264 74.3788 9.94967C74.6833 10.2467 74.8526 10.6463 74.8501 11.0616Z" fill="#FFBFF8"/>
<g opacity="0.5">
<path style="mix-blend-mode:screen" opacity="0.8" d="M154.228 66.2611C160.635 66.2611 165.828 61.3088 165.828 55.1998C165.828 49.0909 160.635 44.1385 154.228 44.1385C147.821 44.1385 142.628 49.0909 142.628 55.1998C142.628 61.3088 147.821 66.2611 154.228 66.2611Z" fill="url(#paint39_radial_13069_46941)"/>
</g>
<path d="M155.882 55.1999C155.884 55.5144 155.788 55.8224 155.606 56.0846C155.424 56.3469 155.164 56.5516 154.86 56.6728C154.555 56.794 154.22 56.8262 153.896 56.7652C153.573 56.7043 153.275 56.553 153.042 56.3306C152.809 56.1082 152.65 55.8247 152.586 55.5161C152.522 55.2075 152.556 54.8878 152.683 54.5975C152.81 54.3072 153.025 54.0595 153.3 53.8859C153.575 53.7122 153.898 53.6205 154.228 53.6222C154.445 53.6222 154.66 53.663 154.861 53.7423C155.062 53.8216 155.244 53.9378 155.398 54.0843C155.551 54.2308 155.673 54.4047 155.756 54.5961C155.84 54.7875 155.882 54.9927 155.882 55.1999Z" fill="#FFBFF8"/>
<g opacity="0.5">
<path style="mix-blend-mode:screen" opacity="0.8" d="M148.181 30.3855C148.181 29.2837 148.523 28.2066 149.165 27.2905C149.807 26.3744 150.72 25.6604 151.787 25.2388C152.855 24.8171 154.029 24.7068 155.163 24.9218C156.296 25.1367 157.337 25.6673 158.154 26.4464C158.971 27.2255 159.527 28.2181 159.753 29.2987C159.978 30.3793 159.862 31.4994 159.42 32.5173C158.978 33.5352 158.229 34.4053 157.268 35.0174C156.308 35.6295 155.178 35.9562 154.023 35.9562C153.255 35.9574 152.495 35.8141 151.786 35.5346C151.076 35.255 150.432 34.8448 149.889 34.3272C149.346 33.8097 148.916 33.1951 148.623 32.5187C148.33 31.8423 148.179 31.1174 148.181 30.3855Z" fill="url(#paint40_radial_13069_46941)"/>
</g>
<path d="M154.854 30.3855C154.854 30.5424 154.805 30.6958 154.714 30.8262C154.623 30.9567 154.493 31.0584 154.341 31.1184C154.189 31.1784 154.021 31.1941 153.86 31.1635C153.699 31.1329 153.55 31.0574 153.434 30.9464C153.318 30.8355 153.239 30.6941 153.206 30.5403C153.174 30.3864 153.191 30.2269 153.254 30.0819C153.317 29.937 153.423 29.8131 153.56 29.7259C153.697 29.6387 153.858 29.5922 154.022 29.5922C154.243 29.5922 154.455 29.6758 154.611 29.8246C154.767 29.9733 154.854 30.1751 154.854 30.3855Z" fill="#FFBFF8"/>
<g opacity="0.5">
<path style="mix-blend-mode:screen" opacity="0.8" d="M63.9229 41.7587C63.9229 40.657 64.2655 39.5799 64.9074 38.6638C65.5494 37.7477 66.4618 37.0337 67.5293 36.612C68.5968 36.1904 69.7714 36.0801 70.9047 36.295C72.038 36.51 73.0789 37.0405 73.8959 37.8196C74.713 38.5987 75.2694 39.5913 75.4948 40.6719C75.7202 41.7526 75.6045 42.8727 75.1624 43.8906C74.7202 44.9085 73.9714 45.7785 73.0107 46.3907C72.0499 47.0028 70.9204 47.3295 69.765 47.3295C68.2155 47.3295 66.7296 46.7426 65.634 45.6979C64.5384 44.6531 63.9229 43.2362 63.9229 41.7587Z" fill="url(#paint41_radial_13069_46941)"/>
</g>
<path d="M69.7655 42.552C70.225 42.552 70.5974 42.1968 70.5974 41.7587C70.5974 41.3206 70.225 40.9655 69.7655 40.9655C69.3061 40.9655 68.9336 41.3206 68.9336 41.7587C68.9336 42.1968 69.3061 42.552 69.7655 42.552Z" fill="#FFBFF8"/>
</g>
<defs>
<linearGradient id="paint0_linear_13069_46941" x1="73.6074" y1="45.9569" x2="116.068" y2="164.717" gradientUnits="userSpaceOnUse">
<stop stop-color="#624E88"/>
<stop offset="1" stop-color="#3C4271"/>
</linearGradient>
<linearGradient id="paint1_linear_13069_46941" x1="147.572" y1="95.3993" x2="137.556" y2="48.0409" gradientUnits="userSpaceOnUse">
<stop stop-color="#624E88"/>
<stop offset="1" stop-color="#3C4271"/>
</linearGradient>
<linearGradient id="paint2_linear_13069_46941" x1="95.5956" y1="68.8323" x2="90.2122" y2="43.3665" gradientUnits="userSpaceOnUse">
<stop stop-color="#624E88"/>
<stop offset="1" stop-color="#3C4271"/>
</linearGradient>
<linearGradient id="paint3_linear_13069_46941" x1="73.607" y1="45.9658" x2="116.068" y2="164.717" gradientUnits="userSpaceOnUse">
<stop stop-color="#624E88"/>
<stop offset="1" stop-color="#3C4271"/>
</linearGradient>
<linearGradient id="paint4_linear_13069_46941" x1="57.3241" y1="52.3833" x2="60.0919" y2="60.1174" gradientUnits="userSpaceOnUse">
<stop stop-color="#624E88"/>
<stop offset="1" stop-color="#3C4271"/>
</linearGradient>
<linearGradient id="paint5_linear_13069_46941" x1="53.3326" y1="120.737" x2="41.0874" y2="62.8697" gradientUnits="userSpaceOnUse">
<stop stop-color="#624E88"/>
<stop offset="1" stop-color="#3C4271"/>
</linearGradient>
<linearGradient id="paint6_linear_13069_46941" x1="45.1628" y1="106.176" x2="150.377" y2="106.176" gradientUnits="userSpaceOnUse">
<stop stop-color="#624E88"/>
<stop offset="1" stop-color="#3C4271"/>
</linearGradient>
<radialGradient id="paint7_radial_13069_46941" cx="0" cy="0" r="1" gradientUnits="userSpaceOnUse" gradientTransform="translate(69.7841 71.1724) scale(69.4697 66.243)">
<stop stop-color="#FF34FF"/>
<stop offset="0.28" stop-color="#A922A9"/>
<stop offset="0.54" stop-color="#611461"/>
<stop offset="0.75" stop-color="#2C092C"/>
<stop offset="0.91" stop-color="#0C020C"/>
<stop offset="1"/>
</radialGradient>
<linearGradient id="paint8_linear_13069_46941" x1="63.2063" y1="68.8599" x2="126.628" y2="128.511" gradientUnits="userSpaceOnUse">
<stop stop-color="#D3422E"/>
<stop offset="1" stop-color="#6E2BD1"/>
</linearGradient>
<linearGradient id="paint9_linear_13069_46941" x1="63.6669" y1="67.4179" x2="87.7691" y2="90.0988" gradientUnits="userSpaceOnUse">
<stop stop-color="#E21B80"/>
<stop offset="1" stop-color="#3100E0"/>
</linearGradient>
<linearGradient id="paint10_linear_13069_46941" x1="86.4623" y1="86.0049" x2="128.577" y2="125.62" gradientUnits="userSpaceOnUse">
<stop stop-color="#D3422E"/>
<stop offset="1" stop-color="#6E2BD1"/>
</linearGradient>
<linearGradient id="paint11_linear_13069_46941" x1="68.9082" y1="113.286" x2="113.985" y2="85.2527" gradientUnits="userSpaceOnUse">
<stop stop-color="#B9B9B8"/>
<stop offset="1" stop-color="#B7B5B4"/>
</linearGradient>
<linearGradient id="paint12_linear_13069_46941" x1="81.9824" y1="101.807" x2="135.543" y2="101.807" gradientUnits="userSpaceOnUse">
<stop stop-color="#D3422E"/>
<stop offset="1" stop-color="#6E2BD1"/>
</linearGradient>
<linearGradient id="paint13_linear_13069_46941" x1="66.9467" y1="114.955" x2="114.186" y2="85.5764" gradientUnits="userSpaceOnUse">
<stop stop-color="#B9B9B8"/>
<stop offset="1" stop-color="#B7B5B4"/>
</linearGradient>
<linearGradient id="paint14_linear_13069_46941" x1="50.3883" y1="63.5961" x2="137.631" y2="108.784" gradientUnits="userSpaceOnUse">
<stop offset="0.45" stop-color="#C9C9C9"/>
<stop offset="0.54" stop-color="#C4C3C3"/>
<stop offset="0.65" stop-color="#B5B3B3"/>
<stop offset="0.78" stop-color="#9C9898"/>
<stop offset="0.92" stop-color="#7A7373"/>
<stop offset="1" stop-color="#635B5B"/>
</linearGradient>
<linearGradient id="paint15_linear_13069_46941" x1="61.6916" y1="67.9966" x2="135.468" y2="122.325" gradientUnits="userSpaceOnUse">
<stop offset="0.45" stop-color="#C9C9C9"/>
<stop offset="0.54" stop-color="#C4C3C3"/>
<stop offset="0.65" stop-color="#B5B3B3"/>
<stop offset="0.78" stop-color="#9C9898"/>
<stop offset="0.92" stop-color="#7A7373"/>
<stop offset="1" stop-color="#635B5B"/>
</linearGradient>
<linearGradient id="paint16_linear_13069_46941" x1="75.3193" y1="51.8563" x2="76.1638" y2="141.722" gradientUnits="userSpaceOnUse">
<stop stop-color="#AFA9A6"/>
<stop offset="0.5" stop-color="#EDEAE4"/>
<stop offset="0.65" stop-color="#CDC8C3"/>
<stop offset="0.88" stop-color="#9D9694"/>
<stop offset="1" stop-color="#8B8281"/>
</linearGradient>
<linearGradient id="paint17_linear_13069_46941" x1="71.7567" y1="83.8144" x2="118.026" y2="117.886" gradientUnits="userSpaceOnUse">
<stop offset="0.45" stop-color="#C9C9C9"/>
<stop offset="0.54" stop-color="#C4C3C3"/>
<stop offset="0.65" stop-color="#B5B3B3"/>
<stop offset="0.78" stop-color="#9C9898"/>
<stop offset="0.92" stop-color="#7A7373"/>
<stop offset="1" stop-color="#635B5B"/>
</linearGradient>
<linearGradient id="paint18_linear_13069_46941" x1="137.534" y1="22.1871" x2="85.3282" y2="78.8305" gradientUnits="userSpaceOnUse">
<stop stop-color="#969492"/>
<stop offset="1" stop-color="#838381"/>
</linearGradient>
<linearGradient id="paint19_linear_13069_46941" x1="141.32" y1="31.4489" x2="69.9445" y2="58.3413" gradientUnits="userSpaceOnUse">
<stop stop-color="#565251"/>
<stop offset="0.06" stop-color="#696564"/>
<stop offset="0.19" stop-color="#8C8A89"/>
<stop offset="0.32" stop-color="#A6A5A4"/>
<stop offset="0.43" stop-color="#B6B5B4"/>
<stop offset="0.51" stop-color="#BBBBBA"/>
<stop offset="0.68" stop-color="#B7B6B5"/>
<stop offset="0.88" stop-color="#AAA7A5"/>
<stop offset="0.89" stop-color="#A9A6A4"/>
</linearGradient>
<linearGradient id="paint20_linear_13069_46941" x1="111.703" y1="24.7587" x2="151.547" y2="28.4286" gradientUnits="userSpaceOnUse">
<stop offset="0.01" stop-color="#BBBBBA"/>
<stop offset="0.03" stop-color="#BFBFBE"/>
<stop offset="0.13" stop-color="#D8D7D6"/>
<stop offset="0.23" stop-color="#E8E6E4"/>
<stop offset="0.31" stop-color="#EDEBE9"/>
<stop offset="0.42" stop-color="#E7E5E3"/>
<stop offset="0.56" stop-color="#D7D5D3"/>
<stop offset="0.73" stop-color="#BCBBB9"/>
<stop offset="0.9" stop-color="#979795"/>
<stop offset="1" stop-color="#80807E"/>
</linearGradient>
<linearGradient id="paint21_linear_13069_46941" x1="141.579" y1="27.0331" x2="85.9907" y2="84.5461" gradientUnits="userSpaceOnUse">
<stop stop-color="#969492"/>
<stop offset="1" stop-color="#838381"/>
</linearGradient>
<linearGradient id="paint22_linear_13069_46941" x1="104.951" y1="30.9775" x2="71.0118" y2="64.9177" gradientUnits="userSpaceOnUse">
<stop stop-color="#3B2E2E"/>
<stop offset="0.65" stop-color="#616161"/>
</linearGradient>
<linearGradient id="paint23_linear_13069_46941" x1="108.974" y1="32.0058" x2="84.2167" y2="75.1335" gradientUnits="userSpaceOnUse">
<stop stop-color="#AFA9A6"/>
<stop offset="0.35" stop-color="#E3DFDA"/>
<stop offset="0.41" stop-color="#EDEAE4"/>
<stop offset="0.43" stop-color="#E8E5DF"/>
<stop offset="0.54" stop-color="#C7C2BE"/>
<stop offset="0.65" stop-color="#ADA6A3"/>
<stop offset="0.77" stop-color="#9A9290"/>
<stop offset="0.88" stop-color="#8F8685"/>
<stop offset="1" stop-color="#8B8281"/>
</linearGradient>
<linearGradient id="paint24_linear_13069_46941" x1="100.895" y1="32.1102" x2="90.4058" y2="42.5925" gradientUnits="userSpaceOnUse">
<stop stop-color="#3B2E2E"/>
<stop offset="0.65" stop-color="#616161"/>
</linearGradient>
<linearGradient id="paint25_linear_13069_46941" x1="105.314" y1="33.23" x2="72.0022" y2="66.545" gradientUnits="userSpaceOnUse">
<stop stop-color="#A6A19D"/>
<stop offset="1" stop-color="#A69E9D"/>
</linearGradient>
<linearGradient id="paint26_linear_13069_46941" x1="98.9568" y1="54.7281" x2="86.3084" y2="76.7471" gradientUnits="userSpaceOnUse">
<stop stop-color="#B9B9B8"/>
<stop offset="1" stop-color="#B7B5B4"/>
</linearGradient>
<linearGradient id="paint27_linear_13069_46941" x1="74.6543" y1="74.6842" x2="82.3659" y2="74.6842" gradientUnits="userSpaceOnUse">
<stop stop-color="#B7B5B4"/>
<stop offset="1" stop-color="#B9B9B8"/>
</linearGradient>
<linearGradient id="paint28_linear_13069_46941" x1="50.2295" y1="27.8719" x2="66.9282" y2="74.8742" gradientUnits="userSpaceOnUse">
<stop stop-color="#A6A19D"/>
<stop offset="1" stop-color="#A69E9D"/>
</linearGradient>
<linearGradient id="paint29_linear_13069_46941" x1="53.4727" y1="24.5919" x2="62.845" y2="74.5767" gradientUnits="userSpaceOnUse">
<stop offset="0.01" stop-color="#AFA9A6"/>
<stop offset="0.03" stop-color="#C1BCB8"/>
<stop offset="0.06" stop-color="#D9D5D0"/>
<stop offset="0.09" stop-color="#E8E5DF"/>
<stop offset="0.12" stop-color="#EDEAE4"/>
<stop offset="0.14" stop-color="#E8E4DF"/>
<stop offset="0.18" stop-color="#D8D4CF"/>
<stop offset="0.22" stop-color="#BFBAB6"/>
<stop offset="0.25" stop-color="#AFA9A6"/>
<stop offset="0.52" stop-color="#ACA6A3"/>
<stop offset="0.73" stop-color="#A49D9A"/>
<stop offset="0.91" stop-color="#958D8B"/>
<stop offset="1" stop-color="#8B8281"/>
</linearGradient>
<linearGradient id="paint30_linear_13069_46941" x1="69.223" y1="57.2945" x2="71.9263" y2="71.7557" gradientUnits="userSpaceOnUse">
<stop stop-color="#B9B9B8"/>
<stop offset="1" stop-color="#B7B5B4"/>
</linearGradient>
<linearGradient id="paint31_linear_13069_46941" x1="28.1523" y1="67.5214" x2="66.6114" y2="85.8305" gradientUnits="userSpaceOnUse">
<stop stop-color="#3B2E2E"/>
<stop offset="0.65" stop-color="#616161"/>
</linearGradient>
<linearGradient id="paint32_linear_13069_46941" x1="26.6339" y1="65.9881" x2="72.1347" y2="73.6338" gradientUnits="userSpaceOnUse">
<stop stop-color="#AFA9A6"/>
<stop offset="0.35" stop-color="#E3DFDA"/>
<stop offset="0.41" stop-color="#EDEAE4"/>
<stop offset="0.43" stop-color="#E8E5DF"/>
<stop offset="0.54" stop-color="#C7C2BE"/>
<stop offset="0.65" stop-color="#ADA6A3"/>
<stop offset="0.77" stop-color="#9A9290"/>
<stop offset="0.88" stop-color="#8F8685"/>
<stop offset="1" stop-color="#8B8281"/>
</linearGradient>
<linearGradient id="paint33_linear_13069_46941" x1="29.6652" y1="71.8144" x2="40.7611" y2="77.091" gradientUnits="userSpaceOnUse">
<stop stop-color="#3B2E2E"/>
<stop offset="0.65" stop-color="#616161"/>
</linearGradient>
<linearGradient id="paint34_linear_13069_46941" x1="29.3748" y1="67.2462" x2="67.2274" y2="85.271" gradientUnits="userSpaceOnUse">
<stop stop-color="#A6A19D"/>
<stop offset="1" stop-color="#A69E9D"/>
</linearGradient>
<linearGradient id="paint35_linear_13069_46941" x1="51.1" y1="65.1165" x2="73.2589" y2="68.8432" gradientUnits="userSpaceOnUse">
<stop stop-color="#B9B9B8"/>
<stop offset="1" stop-color="#B7B5B4"/>
</linearGradient>
<linearGradient id="paint36_linear_13069_46941" x1="70.7945" y1="67.2216" x2="76.2756" y2="78.215" gradientUnits="userSpaceOnUse">
<stop offset="0.03" stop-color="#AFA08C"/>
<stop offset="0.05" stop-color="#B3A694"/>
<stop offset="0.11" stop-color="#BEB6AD"/>
<stop offset="0.16" stop-color="#C6C0BD"/>
<stop offset="0.21" stop-color="#C8C4C2"/>
<stop offset="0.35" stop-color="#C3BEBC"/>
<stop offset="0.54" stop-color="#B6AEAD"/>
<stop offset="0.75" stop-color="#A19493"/>
<stop offset="0.92" stop-color="#8B7878"/>
</linearGradient>
<linearGradient id="paint37_linear_13069_46941" x1="71.6979" y1="68.8664" x2="76.2005" y2="77.89" gradientUnits="userSpaceOnUse">
<stop stop-color="#B9B9B8"/>
<stop offset="1" stop-color="#B7B5B4"/>
</linearGradient>
<radialGradient id="paint38_radial_13069_46941" cx="0" cy="0" r="1" gradientUnits="userSpaceOnUse" gradientTransform="translate(72.872 11.0121) scale(11.544 11.0078)">
<stop stop-color="#C900B3"/>
<stop offset="0.22" stop-color="#930083"/>
<stop offset="0.49" stop-color="#54004B"/>
<stop offset="0.72" stop-color="#270022"/>
<stop offset="0.9" stop-color="#0A0009"/>
<stop offset="1"/>
</radialGradient>
<radialGradient id="paint39_radial_13069_46941" cx="0" cy="0" r="1" gradientUnits="userSpaceOnUse" gradientTransform="translate(153.546 54.9592) scale(11.544 11.0078)">
<stop stop-color="#C900B3"/>
<stop offset="0.22" stop-color="#930083"/>
<stop offset="0.49" stop-color="#54004B"/>
<stop offset="0.72" stop-color="#270022"/>
<stop offset="0.9" stop-color="#0A0009"/>
<stop offset="1"/>
</radialGradient>
<radialGradient id="paint40_radial_13069_46941" cx="0" cy="0" r="1" gradientUnits="userSpaceOnUse" gradientTransform="translate(153.34 30.2518) scale(5.81406 5.54402)">
<stop stop-color="#C900B3"/>
<stop offset="0.22" stop-color="#930083"/>
<stop offset="0.49" stop-color="#54004B"/>
<stop offset="0.72" stop-color="#270022"/>
<stop offset="0.9" stop-color="#0A0009"/>
<stop offset="1"/>
</radialGradient>
<radialGradient id="paint41_radial_13069_46941" cx="0" cy="0" r="1" gradientUnits="userSpaceOnUse" gradientTransform="translate(69.4471 41.5805) scale(5.81407 5.54402)">
<stop stop-color="#C900B3"/>
<stop offset="0.22" stop-color="#930083"/>
<stop offset="0.49" stop-color="#54004B"/>
<stop offset="0.72" stop-color="#270022"/>
<stop offset="0.9" stop-color="#0A0009"/>
<stop offset="1"/>
</radialGradient>
<clipPath id="clip0_13069_46941">
<rect width="166" height="171" fill="white" transform="translate(0.314453)"/>
</clipPath>
</defs>
</svg>
