<svg width="170" height="168" viewBox="0 0 170 168" fill="none" xmlns="http://www.w3.org/2000/svg">
<path d="M138.254 148.482C163.65 123.086 163.65 81.9119 138.254 56.5162C112.859 31.1206 71.6841 31.1206 46.2885 56.5163C20.8929 81.9119 20.8929 123.086 46.2885 148.482C71.6841 173.878 112.859 173.878 138.254 148.482Z" fill="#3ABEF9"/>
<path d="M91.1414 166.364C126.436 166.364 155.048 137.509 155.048 101.915C155.048 66.3214 126.436 37.4668 91.1414 37.4668C55.8465 37.4668 27.2344 66.3214 27.2344 101.915C27.2344 137.509 55.8465 166.364 91.1414 166.364Z" fill="#1D1E28"/>
<path d="M134.486 144.731C159.024 120.193 159.024 80.4102 134.486 55.8727C109.949 31.3352 70.1658 31.3352 45.6283 55.8727C21.0908 80.4102 21.0908 120.193 45.6283 144.731C70.1658 169.268 109.949 169.268 134.486 144.731Z" fill="url(#paint0_linear_13069_46736)"/>
<path opacity="0.15" d="M28.0488 110.434C28.0488 110.434 29.0281 82.4175 43.3747 69.1855C57.7214 55.9535 62.546 78.3651 62.546 78.3651L61.6703 84.4955C61.6703 84.4955 55.6036 73.2459 49.0035 75.2601C29.7924 81.1516 29.0997 115.466 29.0997 115.466L28.0488 110.434Z" fill="#22213E"/>
<path opacity="0.15" d="M30.62 120.712C30.62 120.712 28.5102 92.5525 43.6291 81.9159C58.748 71.2794 62.052 103.945 62.052 103.945V106.254C62.052 106.254 56.885 83.0942 48.1114 83.5958C28.6614 84.6627 31.5674 123.276 31.5674 123.276L30.62 120.712Z" fill="#22213E"/>
<path style="mix-blend-mode:screen" opacity="0.56" d="M150.138 89.1689C150.138 89.1689 145.027 69.8543 133.809 58.4295C124.382 48.8279 117.886 45.9618 117.79 46.7261C117.695 47.4904 114.08 54.2258 116.126 54.393C118.172 54.5602 126.659 58.2066 130.927 61.3116C141.778 69.2014 150.138 89.1689 150.138 89.1689Z" fill="url(#paint1_linear_13069_46736)"/>
<path style="mix-blend-mode:screen" opacity="0.56" d="M101.78 40.3728C101.78 40.3728 76.6218 37.6739 73.9149 42.2358C72.9675 43.8281 68.2861 69.0024 68.2861 69.0024C68.2861 69.0024 75.9929 49.2658 78.9784 46.5987C81.964 43.9316 101.78 40.3728 101.78 40.3728Z" fill="url(#paint2_linear_13069_46736)"/>
<g opacity="0.36">
<path style="mix-blend-mode:multiply" d="M90.0632 37.4668C81.5448 37.4553 73.1138 39.1838 65.287 42.5463C72.6429 39.6654 80.4756 38.1961 88.3754 38.2152C118.82 38.2152 143.501 59.2654 143.501 85.2438C143.501 111.222 118.82 132.264 88.3754 132.264C57.9306 132.264 33.2181 111.238 33.2181 85.2677C33.2662 76.169 36.2731 67.333 41.7847 60.0934C32.6418 71.0748 27.5156 84.8449 27.2519 99.1318C26.9882 113.419 31.6028 127.368 40.3343 138.68C49.0657 149.991 61.3923 157.988 75.2803 161.351C89.1682 164.714 103.788 163.242 116.726 157.178C129.665 151.114 140.15 140.82 146.451 127.995C152.753 115.17 154.494 100.58 151.387 86.6329C148.281 72.6854 140.512 60.2136 129.364 51.2753C118.215 42.337 104.353 37.4663 90.0632 37.4668Z" fill="url(#paint3_linear_13069_46736)"/>
<path style="mix-blend-mode:multiply" d="M65.2868 42.5463C55.972 46.0857 47.8279 52.151 41.7686 60.0616C48.1218 52.4552 56.1793 46.4543 65.2868 42.5463Z" fill="url(#paint4_linear_13069_46736)"/>
</g>
<path style="mix-blend-mode:screen" opacity="0.56" d="M48.7722 56.0092C48.7722 56.0092 37.9923 60.9453 32.1724 80.5704C26.3526 100.196 31.0021 120.378 31.0021 120.378C31.0021 120.378 29.9193 95.9441 35.6994 81.6452C39.3398 72.7528 43.7124 64.1779 48.7722 56.0092Z" fill="url(#paint5_linear_13069_46736)"/>
<path opacity="0.15" d="M70.1253 158.569C70.1253 158.569 54.3854 80.1246 78.2142 61.1683C102.043 42.2119 105.833 111.891 105.833 111.891L107.425 134.438C107.425 134.438 101.111 73.3653 86.9321 71.1998C53.5415 66.0805 73.5249 160.926 73.5249 160.926L70.404 160.026L70.1253 158.569Z" fill="#22213E"/>
<path opacity="0.15" d="M72.2266 161.244C72.2266 161.244 69.042 97.6479 78.5162 92.4251C96.342 82.5608 104.367 161.244 104.367 161.244L101.461 162.041C101.461 162.041 98.9613 93.9458 81.4858 97.003C74.416 98.229 74.0418 161.754 74.0418 161.754L72.2266 161.244Z" fill="#22213E"/>
<path opacity="0.15" d="M113.053 51.3199C113.053 51.3199 101.804 97.7991 121.532 110.864C141.261 123.929 150.56 117.408 150.56 117.408L149.629 120.402C149.629 120.402 140.751 124.956 122.814 120.402C99.8611 114.574 109.869 60.0934 109.869 60.0934L113.053 51.3199Z" fill="#22213E"/>
<path opacity="0.15" d="M114.725 46.5907C114.725 46.5907 113.427 85.7773 119.717 96.5173C131.229 116.238 151.268 113.945 151.268 113.945L151.77 112.353C151.77 112.353 126.803 111.955 120.394 94.5349C113.985 77.1152 116.413 43.2151 116.413 43.2151L114.725 46.5907Z" fill="#22213E"/>
<path d="M70.4036 40.6037C70.4036 40.6037 61.5583 77.561 61.3036 89.0892C61.0488 100.618 67.219 158.848 67.219 158.848L70.4036 159.994C70.4036 159.994 61.8052 118.037 63.3497 91.9076C64.8942 65.778 73.5245 39.5846 73.5245 39.5846L70.4036 40.6037Z" fill="#22213E"/>
<path d="M114.216 42.2756C114.216 42.2756 107.544 52.8246 106.007 93.8184C104.471 134.812 113.603 158.569 113.603 158.569L117.026 157.176C117.026 157.176 107.289 139.868 107.289 99.6462C107.289 57.4502 116.341 43.2151 116.341 43.2151L114.216 42.2756Z" fill="#22213E"/>
<path style="mix-blend-mode:multiply" opacity="0.51" d="M91.1437 152.694C119.188 152.694 141.922 129.959 141.922 101.915C141.922 73.871 119.188 51.1367 91.1437 51.1367C63.0995 51.1367 40.3652 73.871 40.3652 101.915C40.3652 129.959 63.0995 152.694 91.1437 152.694Z" fill="url(#paint6_linear_13069_46736)"/>
<path style="mix-blend-mode:screen" d="M67.3543 137.455C104.553 137.455 134.709 107.3 134.709 70.1011C134.709 32.9023 104.553 2.74673 67.3543 2.74673C30.1556 2.74673 0 32.9023 0 70.1011C0 107.3 30.1556 137.455 67.3543 137.455Z" fill="url(#paint7_radial_13069_46736)"/>
<path d="M88.9541 50.2371C88.9541 50.2371 104.025 44.8551 108.261 44.4172C112.496 43.9794 116.35 45.9538 118.109 48.3184C119.869 50.6829 127.878 67.84 128.563 69.496C129.247 71.152 128.809 74.7028 125.951 77.5769C127.352 81.7408 130.943 89.1211 132.496 92.6003C133.379 94.5906 134.374 97.4329 132.567 100.331C130.76 103.229 115.92 124.478 115.92 124.478L88.9541 50.2371Z" fill="#3ABEF9"/>
<path d="M54.3129 66.3751L30.301 94.4553C28.9695 96.0193 28.2383 98.0062 28.2383 100.06C28.2383 102.114 28.9695 104.101 30.301 105.665C33.8962 110.588 37.7385 115.326 41.8134 119.86C42.7768 120.89 43.9675 121.679 45.2905 122.165C46.6135 122.652 48.032 122.822 49.4325 122.663C50.2844 122.567 50.8417 122.472 50.8417 122.472L62.7442 135.561C63.9009 136.83 65.3382 137.813 66.9415 138.429C68.5449 139.046 70.27 139.279 71.9795 139.111L97.6872 136.556C101.484 136.178 105.131 134.881 108.313 132.776C111.495 130.672 114.117 127.824 115.951 124.478L129.852 102.266C130.637 100.831 131.109 99.2463 131.237 97.6159C131.365 95.9855 131.145 94.3465 130.592 92.8073L124.724 77.139C124.724 77.139 125.138 76.6534 125.704 75.9607C126.421 75.083 126.888 74.0281 127.056 72.9073C127.224 71.7865 127.087 70.641 126.659 69.5915C122.296 58.748 118.411 50.8263 118.411 50.8263C116.484 46.2962 110.887 44.0829 106.15 45.4124L72.2263 54.9344C65.2555 56.8933 59.0218 60.8745 54.3129 66.3751Z" fill="url(#paint8_linear_13069_46736)"/>
<path style="mix-blend-mode:screen" d="M106.119 45.4204L72.2266 54.9344C65.2558 56.8932 59.0221 60.8745 54.3132 66.3751L30.3013 94.4553C29.0774 95.8883 28.3551 97.6819 28.2444 99.5631C28.1338 101.444 28.6408 103.31 29.6883 104.877C27.9607 101.979 27.9845 99.3039 33.056 97.3851C41.1131 94.3598 56.7256 91.7564 67.6249 90.2198C71.4243 89.6707 75.0726 88.3559 78.3488 86.3551C81.6251 84.3544 84.461 81.7092 86.6847 78.5801C95.0204 66.8766 107.95 48.9792 110.147 47.1878C110.671 46.7265 111.3 46.4021 111.98 46.2438C112.659 46.0854 113.367 46.0979 114.04 46.2802C111.601 45.0109 108.774 44.7041 106.119 45.4204Z" fill="url(#paint9_linear_13069_46736)"/>
<path style="mix-blend-mode:multiply" d="M114.041 46.2802C113.649 46.0782 113.244 45.9001 112.831 45.7468C111.805 45.9281 110.865 46.4332 110.148 47.1879C107.186 49.7913 90.626 73.0707 86.6851 78.5801C86.0402 79.4797 85.3953 80.2838 84.7743 80.9685C83.2665 82.6856 82.3604 84.848 82.1937 87.127C82.027 89.4061 82.6088 91.6773 83.8508 93.5955C87.8315 99.7577 92.5209 106.939 93.6196 108.882C96.3026 113.619 50.8105 122.416 50.8105 122.416C50.8105 122.416 97.5685 115.33 98.8105 117.432C100.052 119.534 107.807 129.566 105.036 132.177C101.414 135.592 81.2155 137.439 71.9483 139.056L97.656 136.5C101.453 136.122 105.1 134.825 108.282 132.721C111.464 130.616 114.086 127.768 115.92 124.422L129.821 102.21C130.606 100.775 131.078 99.1906 131.206 97.5602C131.333 95.9297 131.114 94.2908 130.561 92.7516L124.693 77.0833C124.693 77.0833 125.107 76.5977 125.673 75.905C126.39 75.0272 126.857 73.9724 127.025 72.8516C127.193 71.7307 127.056 70.5853 126.628 69.5358C122.265 58.6922 118.38 50.7705 118.38 50.7705C117.498 48.8161 115.964 47.2289 114.041 46.2802Z" fill="url(#paint10_linear_13069_46736)"/>
<path style="mix-blend-mode:multiply" opacity="0.61" d="M87.298 50.6989L88.2853 50.4282C88.2853 50.4282 60.9852 86.6132 59.3293 89.0574C57.6733 91.5016 57.4981 93.0382 58.3022 95.5062C59.1063 97.9743 71.8368 118.372 71.8368 118.372L75.5309 117.886C75.5309 117.886 83.8587 132.4 84.8379 134.549C85.8172 136.699 90.6657 137.304 90.6657 137.304L84.83 137.846L65.388 113.197L53.5811 93.7308L57.323 87.075L87.298 50.6989Z" fill="url(#paint11_linear_13069_46736)"/>
<g style="mix-blend-mode:multiply">
<path d="M75.8887 117.83C75.8887 117.83 88.1972 115.665 94.8689 111.533C101.541 107.401 124.693 77.1231 124.693 77.1231L127.599 85.4349C127.599 85.4349 126.086 83.8426 122.344 85.8091C110.266 92.1783 101.859 110.697 96.6284 113.786C92.584 116.182 75.8887 117.83 75.8887 117.83Z" fill="#C9592A"/>
</g>
<path style="mix-blend-mode:multiply" opacity="0.61" d="M43.3821 79.1613L42.5859 80.0609C42.5859 80.0609 86.3742 70.7141 89.6623 70.3797C92.9504 70.0453 95.2354 69.6393 96.9391 71.7332C98.6429 73.827 110.872 94.4792 110.872 94.4792L109.749 95.8167L107.337 98.7227C107.337 98.7227 116.596 110.187 117.743 112.432C118.889 114.678 119.192 119.048 119.192 119.048L120.784 116.931L120.744 111.78L110.314 95.6734L112.95 92.1067L97.1859 67.426L91.6129 66.813L43.3821 79.1613Z" fill="url(#paint12_linear_13069_46736)"/>
<g style="mix-blend-mode:screen" opacity="0.81">
<path d="M55.293 92.1305C55.293 92.1305 75.1967 87.4253 80.0214 91.8678C84.8461 96.3103 91.8761 106.103 91.8761 106.103C91.8761 106.103 86.1757 97.3453 83.8509 93.6273C81.5261 89.9093 81.351 85.5384 84.7744 81.0004C88.1979 76.4623 92.1627 71.0724 92.1627 71.0724C92.1627 71.0724 83.4051 81.1039 75.754 85.0289C68.103 88.9539 55.293 92.1305 55.293 92.1305Z" fill="#FFE239"/>
</g>
<path d="M43.3819 79.1613C43.3819 79.1613 81.0557 71.1997 86.3023 69.7985C91.549 68.3973 96.1587 66.7333 98.8895 71.7571C101.62 76.7808 111.731 93.4681 111.731 93.4681L108.841 96.9473C108.841 96.9473 118.132 108.651 119.916 113.34C120.403 114.691 120.516 116.149 120.242 117.56L121.691 118.037L124.303 114.12C124.193 112.489 123.855 110.881 123.299 109.343C121.333 104.686 112.949 93.2054 112.949 93.2054L115.648 90.0606C115.648 90.0606 105.091 71.2316 102.783 67.2349C100.474 63.2382 97.2096 61.9007 91.7321 63.5487C86.78 65.0455 45.635 74.042 45.635 74.042L42.5459 78.2059L43.3819 79.1613Z" fill="url(#paint13_linear_13069_46736)"/>
<path style="mix-blend-mode:multiply" d="M109.868 95.9202L112.344 92.7356C112.344 92.7356 101.485 74.2968 99.1283 70.3001C96.9469 66.606 93.7304 66.9324 89.6621 67.9116C86.7243 68.5963 42.5459 78.2616 42.5459 78.2616L43.3819 79.2329C43.3819 79.2329 81.0557 71.2714 86.3023 69.8702C91.549 68.4689 96.1587 66.805 98.8895 71.8287C101.62 76.8524 111.731 93.5397 111.731 93.5397L108.841 97.0189C108.841 97.0189 118.132 108.722 119.916 113.412C120.403 114.763 120.516 116.221 120.242 117.631L121.691 118.109C121.691 118.109 121.691 113.42 120.362 111.023C119.032 108.627 109.868 95.9202 109.868 95.9202Z" fill="url(#paint14_linear_13069_46736)"/>
<path d="M87.2984 50.6989C87.2984 50.6989 62.1559 83.3411 58.4937 88.4285C54.8314 93.5159 56.2326 95.4425 57.9682 98.3883C59.7038 101.334 70.8579 118.515 70.8579 118.515L73.6205 118.093C73.6205 118.093 83.6441 134.764 84.3685 135.791C85.093 136.818 88.9703 137.511 88.9703 137.511L89.1295 138.912L84.2173 140.019C82.4777 139.469 80.8571 138.597 79.4404 137.447C77.6331 135.776 68.3898 119.988 68.3898 119.988L65.667 120.346C65.667 120.346 52.7932 100.856 51.0974 98.3007C49.4016 95.7451 50.4923 91.9315 53.3505 88.8504C56.2087 85.7693 82.0119 50.8183 82.0119 50.8183L86.5659 49.4648L87.2984 50.6989Z" fill="url(#paint15_linear_13069_46736)"/>
<path style="mix-blend-mode:multiply" d="M58.493 88.4285C62.1552 83.349 87.2977 50.6989 87.2977 50.6989L86.5652 49.4648C86.5652 49.4648 57.3226 88.4921 55.9532 90.6019C55.3545 91.4413 54.9947 92.4273 54.9119 93.4549C54.8292 94.4826 55.0268 95.5134 55.4835 96.4377C56.2797 97.7912 69.5117 118.786 69.5117 118.786L72.4893 118.268C72.4893 118.268 81.6132 134.191 83.3329 136.58C85.0525 138.968 89.1607 138.881 89.1607 138.881L89.0014 137.479C89.0014 137.479 85.1322 136.787 84.3997 135.76C83.6672 134.733 73.6517 118.061 73.6517 118.061L70.889 118.483C70.889 118.483 59.7429 101.294 57.9675 98.3564C56.1921 95.4187 54.8386 93.5079 58.493 88.4285Z" fill="url(#paint16_linear_13069_46736)"/>
<g style="mix-blend-mode:screen">
<path d="M52.3951 89.965C49.7917 93.1098 49.8156 96.3342 51.1054 98.2689C52.3952 100.204 53.4938 101.875 53.4938 101.875C53.4938 101.875 50.8825 98.038 51.9891 97.2896C53.0958 96.5412 56.36 97.8947 56.36 97.8947C56.0266 97.424 55.7337 96.9259 55.4842 96.4059C55.0135 95.4853 54.8081 94.452 54.891 93.4214C54.974 92.3907 55.342 91.4035 55.9539 90.5701C57.6975 88.1817 54.4253 91.9952 53.1595 92.4809C51.8936 92.9665 52.3951 89.965 52.3951 89.965Z" fill="#FFE239"/>
</g>
<g style="mix-blend-mode:screen" opacity="0.7">
<path d="M94.0409 63.0074C95.5159 62.6457 97.0657 62.7389 98.4867 63.2746C99.9077 63.8103 101.133 64.7635 102.002 66.0088C102.822 67.1237 103.537 68.3124 104.136 69.5597C104.136 69.5597 101.612 65.5152 99.8767 66.5343C97.7271 67.8081 99.6777 71.1838 99.6777 71.1838C99.251 70.3376 98.7157 69.5508 98.0854 68.8431C97.1857 68.047 95.8243 66.9403 92.8786 67.3066C89.9328 67.6728 95.068 65.6108 96.0632 64.735C97.0584 63.8592 94.0409 63.0074 94.0409 63.0074Z" fill="#FFE239"/>
</g>
<path d="M67.1714 70.6823C70.3162 72.0039 49.9507 60.5473 46.2804 53.2147C42.0608 44.8074 43.6929 37.9286 46.5272 35.2058C47.3708 34.4259 48.3661 33.8283 49.451 33.4502C50.5359 33.0721 51.6871 32.9217 52.8327 33.0084L43.0639 28.3748C43.0639 28.3748 36.5196 33.9001 36.4718 38.7248C36.4081 45.7229 37.0451 58.0473 67.1714 70.6823Z" fill="url(#paint17_linear_13069_46736)"/>
<path d="M69.8777 70.1807C69.8777 70.1807 76.43 42.4348 66.916 32.6422C57.402 22.8495 49.8306 26.1297 45.4199 27.3159C41.0093 28.5022 37.2673 33.5975 36.7578 35.6118C37.3913 34.2873 38.3889 33.1706 39.6339 32.3923C40.8788 31.6141 42.3197 31.2064 43.7878 31.2171C69.5353 31.2171 67.9351 66.8687 68.2058 69.1457C68.4765 71.4227 69.8777 70.1807 69.8777 70.1807Z" fill="url(#paint18_linear_13069_46736)"/>
<g style="mix-blend-mode:screen">
<path d="M64.1143 30.1024C65.6449 31.3442 67.031 32.7543 68.2463 34.3061C70.2765 36.8777 71.2955 42.196 71.2955 42.196C71.2955 42.196 70.157 37.3554 67.5696 37.8171C64.9821 38.2789 64.4884 41.3998 64.576 42.0208C64.6636 42.6418 64.8945 44.7118 64.8945 44.7118C64.8945 44.7118 62.3229 39.1388 59.7912 36.9175C57.7861 35.2382 55.6746 33.6905 53.4697 32.2839C53.4697 32.2839 56.9409 34.3539 59.7195 34.3778C62.4981 34.4017 64.1143 33.4861 64.2735 32.9288C64.8945 30.7633 64.1143 30.1024 64.1143 30.1024Z" fill="#FFE239"/>
</g>
<path style="mix-blend-mode:multiply" opacity="0.38" d="M49.855 31.5435C51.2722 31.8381 47.0287 32.5387 44.1785 36.8697C41.0576 41.6466 42.7375 47.6337 42.0846 47.6257C39.115 47.6257 37.7934 40.2613 40.2216 35.3172C42.4986 30.6597 48.1592 31.1852 49.855 31.5435Z" fill="url(#paint19_linear_13069_46736)"/>
<path d="M52.4985 64.3847C39.0117 55.8022 35.9147 46.5111 35.238 42.2597C34.7045 38.8681 35.652 34.2424 38.9639 31.5435C41.2807 29.6486 47.0449 27.7299 56.3996 34.0673C71.2399 44.0988 68.3419 69.8941 68.3419 70.117L67.7527 70.4434C67.7527 70.2046 69.2973 44.7516 55.0621 35.1262C48.5655 30.7871 43.7886 30.2935 40.3572 33.1039C37.6423 35.3252 36.679 40.9381 37.1726 43.8122C37.9688 49.0588 42.4113 60.7463 67.7527 70.4434L66.8611 71.4386C61.8499 69.5731 57.0383 67.21 52.4985 64.3847Z" fill="url(#paint20_linear_13069_46736)"/>
<path style="mix-blend-mode:multiply" d="M68.3013 70.117C68.3013 70.117 69.4239 57.1955 67.9271 51.1129C66.4303 45.0303 68.1182 39.3617 70.1643 41.5591C72.8871 44.5048 70.9604 62.3466 70.6101 66.4627C70.2041 71.3271 68.357 71.0883 68.3013 70.117Z" fill="url(#paint21_linear_13069_46736)"/>
<path style="mix-blend-mode:multiply" d="M71.7012 71.8207C71.7012 71.8207 76.9398 69.9339 76.2154 68.6361C75.4909 67.3384 73.2696 67.9037 73.2696 67.9037L71.7012 71.8207Z" fill="url(#paint22_linear_13069_46736)"/>
<path d="M73.4844 67.3623C73.4844 67.3623 74.3681 49.4728 81.0956 44.9268C87.823 40.3808 102.504 42.9921 108.794 40.0464C115.083 37.1006 126.476 10.7003 117.185 5.01576C107.894 -0.668756 94.2639 3.80561 94.8451 10.3977C95.4263 16.9899 101.74 18.9404 101.74 18.9404L99.3513 21.2254C99.3513 21.2254 65.698 5.49345 83.0541 2.38846C100.41 -0.716525 108.515 0.700623 115.442 2.38846C122.368 4.0763 122.177 10.6923 121.58 15.4931C120.983 20.2939 122.718 38.7407 117.026 42.0129C111.333 45.2851 90.8564 40.134 87.409 46.8376C83.9617 53.5411 74.6706 67.8082 74.6706 67.8082L73.4844 67.3623Z" fill="url(#paint23_linear_13069_46736)"/>
<path d="M72.123 66.797C72.123 66.797 73.0068 48.9075 79.7343 44.3535C86.4617 39.7996 101.143 42.4428 107.432 39.4731C113.722 36.5035 125.115 10.127 115.824 4.44251C106.533 -1.24201 91.5571 3.24032 92.1622 9.83245C92.7672 16.4246 99.3275 21.2174 99.3275 21.2174L84.6385 18.5184C84.6385 18.5184 64.3367 4.92816 81.6848 1.83113C99.0329 -1.26589 107.162 0.135331 114.04 1.83113C120.919 3.52693 121.365 10.4296 120.768 15.2224C120.171 20.0152 120.919 37.8092 115.195 41.0814C109.47 44.3535 89.4234 39.5766 85.9761 46.2802C82.5287 52.9838 73.2456 67.2508 73.2456 67.2508L72.123 66.797Z" fill="url(#paint24_linear_13069_46736)"/>
<path style="mix-blend-mode:multiply" d="M72.9668 65.7222C73.1181 61.6061 74.5591 50.3725 78.1816 48.2069C81.8041 46.0414 84.8294 44.6561 82.1623 50.4441C79.4952 56.2321 72.9668 65.7222 72.9668 65.7222Z" fill="url(#paint25_linear_13069_46736)"/>
<g style="mix-blend-mode:screen">
<path d="M81.0639 1.95056C81.0639 1.95056 78.6038 3.31198 79.6786 3.98075C80.7534 4.64951 89.3996 6.50454 90.8247 6.44881C92.2498 6.39308 95.6016 4.48232 95.6016 4.48232C95.6016 4.48232 92.3533 6.56823 92.218 8.98057C92.1879 10.6325 92.5451 12.2684 93.2609 13.7575C93.2609 13.7575 91.5731 11.0346 90.0763 10.135C88.5795 9.23534 75.8013 5.78801 75.6341 7.16535C75.4669 8.54269 76.9159 11.6716 76.9159 11.6716C76.9159 11.6716 73.2457 7.61119 75.2042 4.96001C77.1627 2.30883 81.0639 1.95056 81.0639 1.95056Z" fill="#FFE239"/>
</g>
<g style="mix-blend-mode:screen">
<path d="M120.959 12.5314C120.959 12.5314 120.06 19.2748 119.526 28.3748C119.303 32.2122 118.372 41.7899 110.498 42.2278C119.686 42.2278 119.439 33.303 119.797 29.7123C120.155 26.1217 120.959 12.5314 120.959 12.5314Z" fill="#FFE239"/>
</g>
<path d="M67.6726 72.2507C69.4799 69.6711 55.4119 86.1674 48.6207 88.7628C40.8184 91.7404 35.6435 89.8456 34.1148 87.2342C32.5862 84.6228 33.8203 81.7089 33.8203 81.7089L27.7695 89.6704C27.7695 89.6704 30.6914 95.6495 34.6164 96.0396C40.2452 96.6129 50.3643 96.9711 67.6726 72.2507Z" fill="url(#paint26_linear_13069_46736)"/>
<path d="M67.9193 69.91C67.9193 69.91 47.0204 62.3306 36.8695 69.695C26.7186 77.0594 27.5943 83.763 27.5227 87.5766C27.451 91.3901 30.6515 94.9887 32.1563 95.5381C32.1563 95.5381 29.0354 93.6432 30.2614 89.1689C36.3361 67.2508 64.7905 71.2157 66.6933 71.144C68.5961 71.0724 67.9193 69.91 67.9193 69.91Z" fill="url(#paint27_linear_13069_46736)"/>
<g style="mix-blend-mode:screen">
<path d="M34.155 71.8924C35.5087 70.6995 36.9692 69.6335 38.5179 68.7078C41.0815 67.1712 45.6355 66.6856 45.6355 66.6856C45.6355 66.6856 41.4478 67.2986 41.2089 69.5358C40.9701 71.773 43.3824 72.4497 43.8919 72.3701C44.4015 72.2905 46.1769 72.2905 46.1769 72.2905C46.1769 72.2905 41.0815 74.0818 38.6692 76.0722C36.836 77.6565 35.0899 79.3389 33.4385 81.1118C33.4385 81.1118 35.9225 78.3094 36.6231 75.9448C37.3237 73.5802 36.9415 72.1392 36.5275 71.9641C34.8715 71.2794 34.155 71.8924 34.155 71.8924Z" fill="#FFE239"/>
</g>
<path style="mix-blend-mode:multiply" opacity="0.38" d="M31.9491 84.1292C32.5223 82.9509 32.0924 86.6132 34.9187 89.352C38.0316 92.3614 43.2862 91.3663 43.127 91.9236C42.4025 94.4474 36.1607 95.0365 32.7293 92.6082C29.5049 90.3313 31.2644 85.5464 31.9491 84.1292Z" fill="url(#paint28_linear_13069_46736)"/>
<path d="M59.1302 84.2805C49.0032 95.1639 40.771 97.1304 37.1724 97.3533C34.3062 97.5603 30.8032 96.4218 29.378 93.3725C28.3988 91.2627 28.2077 86.2072 35.5402 78.7154C47.1481 66.7732 67.2987 71.1838 67.4977 71.2157L67.6172 71.7411C67.4261 71.7411 47.2118 68.5565 36.0657 79.9654C31.05 85.1881 29.5134 89.1689 30.9783 92.3535C32.1248 94.8215 36.4399 96.0556 38.8682 95.8725C43.3107 95.554 53.8039 92.6481 67.6172 71.7889L68.2143 72.5851C65.5124 76.7263 62.4741 80.638 59.1302 84.2805Z" fill="url(#paint29_linear_13069_46736)"/>
<path style="mix-blend-mode:multiply" d="M67.4979 71.2475C67.4979 71.2475 57.3231 69.3447 52.0446 70.1807C46.7661 71.0166 42.5863 69.1536 44.8793 67.5773C47.9046 65.4754 61.8771 68.4132 65.1254 69.0103C68.923 69.7189 68.294 71.2714 67.4979 71.2475Z" fill="url(#paint30_linear_13069_46736)"/>
<path d="M156.356 47.5461C152.376 46.9729 143.618 45.5558 140.25 45.7468C140.44 46.3271 140.526 46.9361 140.505 47.5461C140.505 47.5461 145.68 50.4043 146.349 55.5713C146.691 58.1588 146.349 59.8068 145.314 60.9692C145.439 61.5625 145.525 62.1637 145.569 62.7685C145.569 62.7685 157.511 51.9011 161.301 62.0918C165.146 72.5293 162.24 82.115 158.777 88.6992C158.135 89.7462 157.385 90.7229 156.54 91.6131C150.051 98.3565 139.574 93.3646 128.523 82.7121C118.476 73.0468 119.312 50.1575 100.793 55.3006C87.792 58.9152 74.3131 67.6728 69.4805 71.8208C69.2257 72.0596 69.7353 73.6201 69.7353 73.6201C71.3276 72.5293 85.8892 62.3147 96.1118 60.404C106.334 58.4932 118.253 77.9193 125.673 85.6977C132.122 92.4331 142.233 102.417 151.038 96.9313C157.057 93.1815 167.757 83.3968 168.211 71.7173C168.784 56.3914 162.312 48.398 156.356 47.5461Z" fill="url(#paint31_linear_13069_46736)"/>
<path d="M161.046 60.2925C164.382 66.4786 164.644 82.7678 155.99 92.9347C147.336 103.102 132.838 91.6608 125.418 83.9143C117.998 76.1677 106.087 56.6939 95.8569 58.6047C85.6264 60.5154 71.1126 70.738 69.4805 71.8208C69.4805 71.8208 82.0278 58.6843 100.53 53.5093C119.033 48.3343 118.213 71.2555 128.26 80.9208C139.311 91.5733 149.756 96.5651 156.277 89.8217C162.797 83.0783 165.281 67.2509 161.046 60.2925Z" fill="url(#paint32_linear_13069_46736)"/>
<path d="M152.312 95.8565C155.202 94.4951 168.688 86.1196 169.246 70.7857C169.803 55.4519 162.08 46.5987 156.101 45.7468C150.122 44.8949 140.25 45.7468 140.25 45.7468C140.25 45.7468 145.425 48.605 146.094 53.772C146.763 58.939 145.298 60.9374 145.298 60.9374C145.298 60.9374 157.423 50.0221 161.03 60.2606C167.622 78.9543 157.407 91.7643 152.312 95.8565Z" fill="url(#paint33_linear_13069_46736)"/>
<path d="M160.376 59.0744C161.777 62.5456 165.002 68.5326 163.712 75.483C162.422 82.4334 157.757 92.9267 152.311 95.8565C148.936 97.6797 148.115 96.8597 147.319 96.9313C153.187 96.5094 155.416 93.2292 158.808 86.4062C166.801 70.3319 160.376 59.0744 160.376 59.0744Z" fill="url(#paint34_linear_13069_46736)"/>
<g style="mix-blend-mode:screen" opacity="0.7">
<path d="M97.6396 58.4852C97.6396 58.4852 98.5473 58.0951 102.464 59.9262C106.381 61.7574 107.806 63.7876 107.806 63.7876C107.806 63.7876 107.01 60.603 108.937 58.7559C110.529 57.1636 112.456 56.4311 113.276 56.8053C113.954 57.1411 114.613 57.5131 115.25 57.9199C114.352 56.7438 113.3 55.6941 112.122 54.799C110.83 53.9003 109.37 53.2719 107.83 52.9518C106.289 52.6316 104.7 52.6263 103.157 52.936C104.447 52.7768 104.901 53.9073 104.208 54.8946C102.17 57.7926 97.6396 58.4852 97.6396 58.4852Z" fill="#FFE239"/>
</g>
<g style="mix-blend-mode:screen" opacity="0.7">
<path d="M152.279 45.4283C152.279 45.4283 154.445 45.8662 154.763 47.6257C155.082 49.3852 156.212 53.772 155.559 54.4487C154.694 55.1729 153.779 55.8353 152.821 56.4311C154.208 55.9567 155.692 55.8416 157.136 56.0968C159.158 56.5824 160.4 58.8037 160.4 58.8037C159.78 57.5227 159.271 56.1909 158.879 54.8229C158.147 52.3549 156.069 47.6576 157.693 47.2993C158.525 47.0536 159.418 47.1245 160.201 47.4983C159.218 46.7176 158.068 46.1728 156.841 45.906C155.066 45.6194 152.279 45.4283 152.279 45.4283Z" fill="#FFE239"/>
</g>
<path d="M73.4054 65.5152C75.1808 66.8289 73.7159 69.0899 71.8131 71.6615C69.9103 74.2331 68.3021 76.1438 66.5187 74.8461C64.7353 73.5484 64.8388 70.3877 66.7416 67.8161C68.6444 65.2445 71.6538 64.2016 73.4054 65.5152Z" fill="url(#paint35_linear_13069_46736)"/>
<g style="mix-blend-mode:screen">
<path d="M68.5884 71.4863C68.3416 72.9115 67.5296 73.9703 66.7732 73.835C66.0169 73.6996 65.6029 72.4497 65.8497 71.0087C66.0965 69.5676 66.9086 68.5247 67.6649 68.6202C68.4212 68.7157 68.8353 70.0612 68.5884 71.4863Z" fill="#FFE239"/>
</g>
<path style="mix-blend-mode:multiply" d="M71.8206 71.6536C73.7155 69.082 75.1804 66.8209 73.4129 65.5073C72.8598 65.1528 72.2219 64.9526 71.5655 64.9274C70.909 64.9022 70.2577 65.0529 69.679 65.364C71.0006 65.2525 71.7092 65.364 72.1311 66.7891C72.6008 68.3256 69.6949 74.3366 68.222 74.6471C66.7491 74.9576 66.5342 74.8222 66.5342 74.8222C68.3096 76.1439 69.9258 74.2331 71.8206 71.6536Z" fill="url(#paint36_linear_13069_46736)"/>
<g opacity="0.5">
<path style="mix-blend-mode:screen" opacity="0.8" d="M24.1864 35.4813C29.8691 33.0469 32.5024 26.4666 30.0679 20.7839C27.6335 15.1012 21.0532 12.468 15.3705 14.9024C9.6878 17.3368 7.05456 23.9171 9.489 29.5998C11.9234 35.2825 18.5037 37.9157 24.1864 35.4813Z" fill="url(#paint37_radial_13069_46736)"/>
</g>
<path d="M19.776 26.7905C20.6598 26.7905 21.3763 26.074 21.3763 25.1902C21.3763 24.3064 20.6598 23.5899 19.776 23.5899C18.8922 23.5899 18.1758 24.3064 18.1758 25.1902C18.1758 26.074 18.8922 26.7905 19.776 26.7905Z" fill="#FFF195"/>
<g opacity="0.5">
<path style="mix-blend-mode:screen" opacity="0.8" d="M148.608 122.705C152.612 117.994 152.038 110.93 147.327 106.926C142.617 102.923 135.552 103.496 131.549 108.207C127.545 112.918 128.119 119.982 132.829 123.985C137.54 127.989 144.605 127.416 148.608 122.705Z" fill="url(#paint38_radial_13069_46736)"/>
</g>
<path d="M141.715 115.442C141.715 115.757 141.621 116.065 141.447 116.326C141.272 116.588 141.023 116.792 140.732 116.913C140.441 117.033 140.121 117.065 139.812 117.004C139.503 116.942 139.219 116.79 138.997 116.568C138.774 116.345 138.622 116.061 138.561 115.752C138.499 115.444 138.531 115.123 138.651 114.833C138.772 114.542 138.976 114.293 139.238 114.118C139.5 113.943 139.808 113.85 140.123 113.85C140.545 113.85 140.95 114.017 141.249 114.316C141.547 114.615 141.715 115.02 141.715 115.442Z" fill="#FFF195"/>
<g opacity="0.5">
<path style="mix-blend-mode:screen" opacity="0.8" d="M36.9893 24.4498C40.1024 24.4498 42.626 21.9261 42.626 18.813C42.626 15.7 40.1024 13.1763 36.9893 13.1763C33.8762 13.1763 31.3525 15.7 31.3525 18.813C31.3525 21.9261 33.8762 24.4498 36.9893 24.4498Z" fill="url(#paint39_radial_13069_46736)"/>
</g>
<path d="M37.7935 18.813C37.7935 18.9705 37.7468 19.1244 37.6593 19.2553C37.5718 19.3863 37.4475 19.4883 37.302 19.5486C37.1565 19.6088 36.9964 19.6246 36.842 19.5939C36.6876 19.5632 36.5457 19.4873 36.4344 19.376C36.323 19.2646 36.2472 19.1228 36.2165 18.9683C36.1858 18.8139 36.2015 18.6538 36.2618 18.5084C36.322 18.3629 36.4241 18.2385 36.555 18.1511C36.6859 18.0636 36.8399 18.0169 36.9973 18.0169C37.2085 18.0169 37.411 18.1008 37.5603 18.2501C37.7096 18.3994 37.7935 18.6019 37.7935 18.813Z" fill="#FFF195"/>
<g opacity="0.5">
<path style="mix-blend-mode:screen" opacity="0.8" d="M25.4287 66.6219C28.5418 66.6219 31.0655 64.0982 31.0655 60.9851C31.0655 57.872 28.5418 55.3484 25.4287 55.3484C22.3156 55.3484 19.792 57.872 19.792 60.9851C19.792 64.0982 22.3156 66.6219 25.4287 66.6219Z" fill="url(#paint40_radial_13069_46736)"/>
</g>
<path d="M26.273 60.9851C26.273 61.1426 26.2263 61.2965 26.1388 61.4275C26.0513 61.5584 25.927 61.6604 25.7815 61.7207C25.636 61.781 25.4759 61.7967 25.3215 61.766C25.1671 61.7353 25.0252 61.6595 24.9139 61.5481C24.8025 61.4368 24.7267 61.2949 24.696 61.1405C24.6652 60.986 24.681 60.826 24.7413 60.6805C24.8015 60.535 24.9036 60.4107 25.0345 60.3232C25.1654 60.2357 25.3194 60.189 25.4768 60.189C25.688 60.189 25.8905 60.2729 26.0398 60.4222C26.1891 60.5715 26.273 60.774 26.273 60.9851Z" fill="#FFF195"/>
<defs>
<linearGradient id="paint0_linear_13069_46736" x1="67.8026" y1="40.9582" x2="112.379" y2="159.831" gradientUnits="userSpaceOnUse">
<stop stop-color="#624E88"/>
<stop offset="1" stop-color="#3C4271"/>
</linearGradient>
<linearGradient id="paint1_linear_13069_46736" x1="139.072" y1="92.9182" x2="128.481" y2="45.1852" gradientUnits="userSpaceOnUse">
<stop stop-color="#624E88"/>
<stop offset="1" stop-color="#3C4271"/>
</linearGradient>
<linearGradient id="paint2_linear_13069_46736" x1="88.899" y1="66.0216" x2="83.2114" y2="40.3511" gradientUnits="userSpaceOnUse">
<stop stop-color="#624E88"/>
<stop offset="1" stop-color="#3C4271"/>
</linearGradient>
<linearGradient id="paint3_linear_13069_46736" x1="67.8108" y1="40.9619" x2="112.387" y2="159.827" gradientUnits="userSpaceOnUse">
<stop stop-color="#624E88"/>
<stop offset="1" stop-color="#3C4271"/>
</linearGradient>
<linearGradient id="paint4_linear_13069_46736" x1="52.0946" y1="47.4585" x2="54.9926" y2="55.1971" gradientUnits="userSpaceOnUse">
<stop stop-color="#624E88"/>
<stop offset="1" stop-color="#3C4271"/>
</linearGradient>
<linearGradient id="paint5_linear_13069_46736" x1="48.1046" y1="118.563" x2="35.1614" y2="60.2313" gradientUnits="userSpaceOnUse">
<stop stop-color="#624E88"/>
<stop offset="1" stop-color="#3C4271"/>
</linearGradient>
<linearGradient id="paint6_linear_13069_46736" x1="40.3573" y1="101.915" x2="141.922" y2="101.915" gradientUnits="userSpaceOnUse">
<stop stop-color="#624E88"/>
<stop offset="1" stop-color="#3C4271"/>
</linearGradient>
<radialGradient id="paint7_radial_13069_46736" cx="0" cy="0" r="1" gradientUnits="userSpaceOnUse" gradientTransform="translate(67.3543 70.1011) scale(67.3543)">
<stop stop-color="#FFB800"/>
<stop offset="0.04" stop-color="#F3AF00"/>
<stop offset="0.31" stop-color="#9E7200"/>
<stop offset="0.56" stop-color="#5A4100"/>
<stop offset="0.76" stop-color="#291E00"/>
<stop offset="0.91" stop-color="#0B0800"/>
<stop offset="1"/>
</radialGradient>
<linearGradient id="paint8_linear_13069_46736" x1="57.6002" y1="64.2259" x2="121.541" y2="121.577" gradientUnits="userSpaceOnUse">
<stop stop-color="#F0D54E"/>
<stop offset="1" stop-color="#EE7232"/>
</linearGradient>
<linearGradient id="paint9_linear_13069_46736" x1="58.0422" y1="62.7701" x2="82.3521" y2="84.5678" gradientUnits="userSpaceOnUse">
<stop stop-color="#FFD81E"/>
<stop offset="1" stop-color="#FD5300"/>
</linearGradient>
<linearGradient id="paint10_linear_13069_46736" x1="80.0469" y1="81.5852" x2="122.511" y2="119.669" gradientUnits="userSpaceOnUse">
<stop stop-color="#F0D54E"/>
<stop offset="1" stop-color="#EE7232"/>
</linearGradient>
<linearGradient id="paint11_linear_13069_46736" x1="63.1046" y1="109.198" x2="107.753" y2="82.7203" gradientUnits="userSpaceOnUse">
<stop stop-color="#F0D54E"/>
<stop offset="1" stop-color="#EE7232"/>
</linearGradient>
<linearGradient id="paint12_linear_13069_46736" x1="61.2089" y1="110.887" x2="108.001" y2="83.1379" gradientUnits="userSpaceOnUse">
<stop stop-color="#F0D54E"/>
<stop offset="1" stop-color="#EE7232"/>
</linearGradient>
<linearGradient id="paint13_linear_13069_46736" x1="45.3961" y1="58.8037" x2="131.261" y2="101.215" gradientUnits="userSpaceOnUse">
<stop offset="0.45" stop-color="#FFB807"/>
<stop offset="0.52" stop-color="#FBB207"/>
<stop offset="0.62" stop-color="#F1A208"/>
<stop offset="0.72" stop-color="#DF8709"/>
<stop offset="0.84" stop-color="#C6620B"/>
<stop offset="0.96" stop-color="#A7330D"/>
<stop offset="1" stop-color="#9A1F0E"/>
</linearGradient>
<linearGradient id="paint14_linear_13069_46736" x1="56.1386" y1="63.3528" x2="129.703" y2="115.006" gradientUnits="userSpaceOnUse">
<stop stop-color="#E69A06"/>
<stop offset="0.5" stop-color="#FFFA08"/>
<stop offset="0.63" stop-color="#EEBE0B"/>
<stop offset="0.81" stop-color="#D66D0E"/>
<stop offset="0.94" stop-color="#C83B10"/>
<stop offset="1" stop-color="#C22711"/>
</linearGradient>
<linearGradient id="paint15_linear_13069_46736" x1="69.2899" y1="47.0121" x2="70.1883" y2="137.981" gradientUnits="userSpaceOnUse">
<stop stop-color="#E69A06"/>
<stop offset="0.5" stop-color="#FFFA08"/>
<stop offset="0.63" stop-color="#EEBE0B"/>
<stop offset="0.81" stop-color="#D66D0E"/>
<stop offset="0.94" stop-color="#C83B10"/>
<stop offset="1" stop-color="#C22711"/>
</linearGradient>
<linearGradient id="paint16_linear_13069_46736" x1="65.853" y1="79.3593" x2="111.988" y2="111.758" gradientUnits="userSpaceOnUse">
<stop stop-color="#E69A06"/>
<stop offset="0.5" stop-color="#FFFA08"/>
<stop offset="0.63" stop-color="#EEBE0B"/>
<stop offset="0.81" stop-color="#D66D0E"/>
<stop offset="0.94" stop-color="#C83B10"/>
<stop offset="1" stop-color="#C22711"/>
</linearGradient>
<linearGradient id="paint17_linear_13069_46736" x1="44.4493" y1="28.5555" x2="56.9452" y2="74.2337" gradientUnits="userSpaceOnUse">
<stop stop-color="#720E00"/>
<stop offset="0.65" stop-color="#982F21"/>
</linearGradient>
<linearGradient id="paint18_linear_13069_46736" x1="47.203" y1="25.6383" x2="72.4871" y2="68.3753" gradientUnits="userSpaceOnUse">
<stop stop-color="#E69A06"/>
<stop offset="0.24" stop-color="#F4D007"/>
<stop offset="0.41" stop-color="#FFFA08"/>
<stop offset="0.44" stop-color="#FAEA09"/>
<stop offset="0.52" stop-color="#ECB70B"/>
<stop offset="0.6" stop-color="#DF8B0D"/>
<stop offset="0.68" stop-color="#D4670E"/>
<stop offset="0.76" stop-color="#CC4B0F"/>
<stop offset="0.84" stop-color="#C73710"/>
<stop offset="0.92" stop-color="#C32B11"/>
<stop offset="1" stop-color="#C22711"/>
</linearGradient>
<linearGradient id="paint19_linear_13069_46736" x1="43.596" y1="32.5438" x2="47.4524" y2="46.6576" gradientUnits="userSpaceOnUse">
<stop stop-color="#720E00"/>
<stop offset="0.65" stop-color="#982F21"/>
</linearGradient>
<linearGradient id="paint20_linear_13069_46736" x1="46.6215" y1="29.3375" x2="58.8804" y2="74.164" gradientUnits="userSpaceOnUse">
<stop stop-color="#DD7D26"/>
<stop offset="1" stop-color="#DD3F26"/>
</linearGradient>
<linearGradient id="paint21_linear_13069_46736" x1="62.8335" y1="45.0339" x2="75.7478" y2="66.8611" gradientUnits="userSpaceOnUse">
<stop stop-color="#F0D54E"/>
<stop offset="1" stop-color="#EE7232"/>
</linearGradient>
<linearGradient id="paint22_linear_13069_46736" x1="71.7012" y1="69.8224" x2="76.287" y2="69.8224" gradientUnits="userSpaceOnUse">
<stop stop-color="#EE7232"/>
<stop offset="1" stop-color="#F0D54E"/>
</linearGradient>
<linearGradient id="paint23_linear_13069_46736" x1="105.02" y1="5.27849" x2="80.8966" y2="70.0135" gradientUnits="userSpaceOnUse">
<stop stop-color="#DD7D26"/>
<stop offset="1" stop-color="#DD3F26"/>
</linearGradient>
<linearGradient id="paint24_linear_13069_46736" x1="100.713" y1="0.700599" x2="87.0748" y2="70.0772" gradientUnits="userSpaceOnUse">
<stop offset="0.01" stop-color="#E69A06"/>
<stop offset="0.02" stop-color="#EAA906"/>
<stop offset="0.05" stop-color="#F3CC07"/>
<stop offset="0.07" stop-color="#FAE508"/>
<stop offset="0.1" stop-color="#FEF508"/>
<stop offset="0.12" stop-color="#FFFA08"/>
<stop offset="0.14" stop-color="#FEF408"/>
<stop offset="0.17" stop-color="#F9E408"/>
<stop offset="0.2" stop-color="#F2C907"/>
<stop offset="0.24" stop-color="#E9A406"/>
<stop offset="0.25" stop-color="#E69A06"/>
<stop offset="0.43" stop-color="#E59706"/>
<stop offset="0.57" stop-color="#E28E07"/>
<stop offset="0.69" stop-color="#DD7E09"/>
<stop offset="0.8" stop-color="#D6670B"/>
<stop offset="0.9" stop-color="#CD4A0E"/>
<stop offset="1" stop-color="#C22711"/>
</linearGradient>
<linearGradient id="paint25_linear_13069_46736" x1="79.7978" y1="46.2484" x2="75.8568" y2="66.3273" gradientUnits="userSpaceOnUse">
<stop stop-color="#F0D54E"/>
<stop offset="1" stop-color="#EE7232"/>
</linearGradient>
<linearGradient id="paint26_linear_13069_46736" x1="27.0349" y1="85.8855" x2="68.2455" y2="82.2324" gradientUnits="userSpaceOnUse">
<stop stop-color="#720E00"/>
<stop offset="0.65" stop-color="#982F21"/>
</linearGradient>
<linearGradient id="paint27_linear_13069_46736" x1="24.995" y1="85.2554" x2="66.7019" y2="69.766" gradientUnits="userSpaceOnUse">
<stop stop-color="#E69A06"/>
<stop offset="0.24" stop-color="#F4D007"/>
<stop offset="0.41" stop-color="#FFFA08"/>
<stop offset="0.44" stop-color="#FAEA09"/>
<stop offset="0.52" stop-color="#ECB70B"/>
<stop offset="0.6" stop-color="#DF8B0D"/>
<stop offset="0.68" stop-color="#D4670E"/>
<stop offset="0.76" stop-color="#CC4B0F"/>
<stop offset="0.84" stop-color="#C73710"/>
<stop offset="0.92" stop-color="#C32B11"/>
<stop offset="1" stop-color="#C22711"/>
</linearGradient>
<linearGradient id="paint28_linear_13069_46736" x1="30.4306" y1="88.9404" x2="42.3188" y2="87.8894" gradientUnits="userSpaceOnUse">
<stop stop-color="#720E00"/>
<stop offset="0.65" stop-color="#982F21"/>
</linearGradient>
<linearGradient id="paint29_linear_13069_46736" x1="27.922" y1="85.0617" x2="68.4885" y2="81.4707" gradientUnits="userSpaceOnUse">
<stop stop-color="#DD7D26"/>
<stop offset="1" stop-color="#DD3F26"/>
</linearGradient>
<linearGradient id="paint30_linear_13069_46736" x1="45.0754" y1="72.8932" x2="65.3881" y2="65.3503" gradientUnits="userSpaceOnUse">
<stop stop-color="#F0D54E"/>
<stop offset="1" stop-color="#EE7232"/>
</linearGradient>
<linearGradient id="paint31_linear_13069_46736" x1="162.662" y1="69.7348" x2="71.7177" y2="80.9765" gradientUnits="userSpaceOnUse">
<stop stop-color="#DD7D26"/>
<stop offset="1" stop-color="#DD3F26"/>
</linearGradient>
<linearGradient id="paint32_linear_13069_46736" x1="159.008" y1="81.2631" x2="74.9341" y2="52.0444" gradientUnits="userSpaceOnUse">
<stop stop-color="#9A1F0E"/>
<stop offset="0.04" stop-color="#A7330D"/>
<stop offset="0.15" stop-color="#C6620B"/>
<stop offset="0.26" stop-color="#DF8709"/>
<stop offset="0.36" stop-color="#F1A208"/>
<stop offset="0.45" stop-color="#FBB207"/>
<stop offset="0.51" stop-color="#FFB807"/>
<stop offset="0.59" stop-color="#FFB307"/>
<stop offset="0.69" stop-color="#FFA306"/>
<stop offset="0.79" stop-color="#FF8A06"/>
<stop offset="0.89" stop-color="#FF6B05"/>
</linearGradient>
<linearGradient id="paint33_linear_13069_46736" x1="137.384" y1="53.3421" x2="170.822" y2="85.5703" gradientUnits="userSpaceOnUse">
<stop offset="0.01" stop-color="#E69A06"/>
<stop offset="0.04" stop-color="#EAA906"/>
<stop offset="0.12" stop-color="#F3CC07"/>
<stop offset="0.19" stop-color="#FAE508"/>
<stop offset="0.25" stop-color="#FEF508"/>
<stop offset="0.31" stop-color="#FFFA08"/>
<stop offset="0.38" stop-color="#FDF408"/>
<stop offset="0.48" stop-color="#F9E409"/>
<stop offset="0.59" stop-color="#F1C90A"/>
<stop offset="0.71" stop-color="#E6A40C"/>
<stop offset="0.83" stop-color="#D8740E"/>
<stop offset="0.96" stop-color="#C83A10"/>
<stop offset="1" stop-color="#C22711"/>
</linearGradient>
<linearGradient id="paint34_linear_13069_46736" x1="162.613" y1="77.2664" x2="68.0227" y2="86.6849" gradientUnits="userSpaceOnUse">
<stop stop-color="#DD7D26"/>
<stop offset="1" stop-color="#DD3F26"/>
</linearGradient>
<linearGradient id="paint35_linear_13069_46736" x1="63.1828" y1="65.7859" x2="73.5248" y2="72.4736" gradientUnits="userSpaceOnUse">
<stop offset="0.03" stop-color="#E69A06"/>
<stop offset="0.05" stop-color="#EAA906"/>
<stop offset="0.09" stop-color="#F3CC07"/>
<stop offset="0.14" stop-color="#FAE508"/>
<stop offset="0.17" stop-color="#FEF508"/>
<stop offset="0.21" stop-color="#FFFA08"/>
<stop offset="0.28" stop-color="#FDF408"/>
<stop offset="0.38" stop-color="#F9E409"/>
<stop offset="0.5" stop-color="#F1C90A"/>
<stop offset="0.62" stop-color="#E6A40C"/>
<stop offset="0.75" stop-color="#D8740E"/>
<stop offset="0.88" stop-color="#C83A10"/>
<stop offset="0.92" stop-color="#C22711"/>
</linearGradient>
<linearGradient id="paint36_linear_13069_46736" x1="64.7667" y1="66.813" x2="73.2537" y2="72.2984" gradientUnits="userSpaceOnUse">
<stop stop-color="#F0D54E"/>
<stop offset="1" stop-color="#EE7232"/>
</linearGradient>
<radialGradient id="paint37_radial_13069_46736" cx="0" cy="0" r="1" gradientUnits="userSpaceOnUse" gradientTransform="translate(19.7755 25.1976) scale(11.1939)">
<stop stop-color="#C9AF00"/>
<stop offset="0.22" stop-color="#938000"/>
<stop offset="0.49" stop-color="#544900"/>
<stop offset="0.72" stop-color="#272200"/>
<stop offset="0.9" stop-color="#0A0900"/>
<stop offset="1"/>
</radialGradient>
<radialGradient id="paint38_radial_13069_46736" cx="0" cy="0" r="1" gradientUnits="userSpaceOnUse" gradientTransform="translate(140.07 115.468) scale(11.1939)">
<stop stop-color="#C9AF00"/>
<stop offset="0.22" stop-color="#938000"/>
<stop offset="0.49" stop-color="#544900"/>
<stop offset="0.72" stop-color="#272200"/>
<stop offset="0.9" stop-color="#0A0900"/>
<stop offset="1"/>
</radialGradient>
<radialGradient id="paint39_radial_13069_46736" cx="0" cy="0" r="1" gradientUnits="userSpaceOnUse" gradientTransform="translate(36.9893 18.813) scale(5.63675)">
<stop stop-color="#C9AF00"/>
<stop offset="0.22" stop-color="#938000"/>
<stop offset="0.49" stop-color="#544900"/>
<stop offset="0.72" stop-color="#272200"/>
<stop offset="0.9" stop-color="#0A0900"/>
<stop offset="1"/>
</radialGradient>
<radialGradient id="paint40_radial_13069_46736" cx="0" cy="0" r="1" gradientUnits="userSpaceOnUse" gradientTransform="translate(25.4287 60.9851) scale(5.63675)">
<stop stop-color="#C9AF00"/>
<stop offset="0.22" stop-color="#938000"/>
<stop offset="0.49" stop-color="#544900"/>
<stop offset="0.72" stop-color="#272200"/>
<stop offset="0.9" stop-color="#0A0900"/>
<stop offset="1"/>
</radialGradient>
</defs>
</svg>
