<svg width="177" height="173" viewBox="0 0 177 173" fill="none" xmlns="http://www.w3.org/2000/svg">
<path d="M98.4372 173C128.432 173 152.747 149.277 152.747 120.014C152.747 90.7511 128.432 67.0286 98.4372 67.0286C68.4425 67.0286 44.127 90.7511 44.127 120.014C44.127 149.277 68.4425 173 98.4372 173Z" fill="#3ABEF9"/>
<path d="M97.4998 172.049C126.977 172.049 150.873 148.537 150.873 119.535C150.873 90.5324 126.977 67.0213 97.4998 67.0213C68.0228 67.0213 44.127 90.5324 44.127 119.535C44.127 148.537 68.0228 172.049 97.4998 172.049Z" fill="#1D1E28"/>
<path d="M133.709 154.42C154.201 134.428 154.201 102.014 133.709 82.0214C113.217 62.0291 79.9927 62.0291 59.5006 82.0214C39.0086 102.014 39.0086 134.428 59.5006 154.42C79.9927 174.412 113.217 174.412 133.709 154.42Z" fill="url(#paint0_linear_13069_46486)"/>
<path opacity="0.15" d="M44.8076 126.475C44.8076 126.475 45.6241 103.648 57.6065 92.8724C69.5889 82.0968 73.6259 100.351 73.6259 100.351L72.8699 105.344C72.8699 105.344 67.7972 96.1693 62.2861 97.814C46.2364 102.615 45.6543 130.576 45.6543 130.576L44.8076 126.475Z" fill="#22213E"/>
<path opacity="0.15" d="M46.9618 134.846C46.9618 134.846 45.2004 111.909 57.8179 103.257C70.4353 94.6057 73.2098 121.202 73.2098 121.202V123.09C73.2098 123.09 68.8931 104.216 61.5676 104.614C45.3062 105.47 47.7481 136.941 47.7481 136.941L46.9618 134.846Z" fill="#22213E"/>
<path style="mix-blend-mode:screen" opacity="0.56" d="M146.775 109.158C146.775 109.158 142.504 93.4108 133.167 84.0808C125.297 76.2628 119.884 73.9247 119.786 74.5443C119.688 75.1638 116.694 80.6586 118.403 80.7987C120.111 80.9389 127.195 83.9038 130.756 86.4336C139.79 92.8798 146.775 109.158 146.775 109.158Z" fill="url(#paint1_linear_13069_46486)"/>
<path style="mix-blend-mode:screen" opacity="0.56" d="M106.391 69.3962C106.391 69.3962 85.3816 67.1835 83.1212 70.8713C82.3198 72.1841 78.4189 92.688 78.4189 92.688C78.4189 92.688 84.8524 76.602 87.3472 74.4263C89.8419 72.2505 106.391 69.3962 106.391 69.3962Z" fill="url(#paint2_linear_13069_46486)"/>
<g opacity="0.36">
<path style="mix-blend-mode:multiply" d="M96.6004 67.0286C89.4899 67.0217 82.4524 68.427 75.9166 71.1589C82.0537 68.8252 88.5848 67.6344 95.1716 67.6482C120.595 67.6482 141.211 84.8036 141.211 106.001C141.211 127.198 120.595 144.317 95.1716 144.317C69.7477 144.317 49.1394 127.132 49.1394 105.971C49.1824 98.5577 51.6952 91.3587 56.2986 85.4601C48.6622 94.4088 44.381 105.63 44.1612 117.272C43.9415 128.914 47.7965 140.282 55.0901 149.499C62.3837 158.716 72.68 165.232 84.2802 167.971C95.8804 170.711 108.091 169.51 118.898 164.568C129.705 159.625 138.462 151.236 143.724 140.785C148.986 130.334 150.438 118.444 147.842 107.079C145.246 95.7136 138.756 85.5514 129.443 78.2689C120.13 70.9865 108.551 67.0191 96.6155 67.0213L96.6004 67.0286Z" fill="url(#paint3_linear_13069_46486)"/>
<path style="mix-blend-mode:multiply" d="M75.9165 71.1589C68.1296 74.0513 61.3231 79.0036 56.2607 85.4601C61.5666 79.2492 68.3014 74.349 75.9165 71.1589Z" fill="url(#paint4_linear_13069_46486)"/>
</g>
<path style="mix-blend-mode:screen" opacity="0.56" d="M62.1193 82.1337C62.1193 82.1337 53.1155 86.1533 48.2545 102.143C43.3935 118.134 47.2793 134.596 47.2793 134.596C47.2793 134.596 46.3721 114.682 51.2028 103.036C54.2405 95.7849 57.892 88.7933 62.1193 82.1337Z" fill="url(#paint5_linear_13069_46486)"/>
<path opacity="0.15" d="M79.9457 165.698C79.9457 165.698 66.8066 101.782 86.7042 86.3377C106.602 70.8934 109.777 127.641 109.777 127.641L111.13 146.035C111.13 146.035 105.838 96.2726 94.0222 94.5098C66.1338 90.35 82.8185 167.616 82.8185 167.616L80.2179 166.878L79.9457 165.698Z" fill="#22213E"/>
<path opacity="0.15" d="M81.7068 167.874C81.7068 167.874 79.0836 116.061 86.9534 111.82C101.846 103.781 108.552 167.874 108.552 167.874L106.118 168.523C106.118 168.523 104.039 113.052 89.4406 115.53C83.5363 116.533 83.2113 168.294 83.2113 168.294L81.7068 167.874Z" fill="#22213E"/>
<path opacity="0.15" d="M115.787 78.3132C115.787 78.3132 106.39 116.186 122.863 126.829C139.336 137.472 147.108 132.162 147.108 132.162L146.352 134.596C146.352 134.596 138.935 138.283 123.959 134.596C104.803 129.853 113.141 85.46 113.141 85.46L115.787 78.3132Z" fill="#22213E"/>
<path opacity="0.15" d="M117.178 74.4927C117.178 74.4927 116.09 106.414 121.344 115.169C130.968 131.203 147.66 129.366 147.66 129.366L148.083 128.068C148.083 128.068 127.233 127.744 121.881 113.553C116.528 99.3629 118.532 71.7342 118.532 71.7342L117.178 74.4927Z" fill="#22213E"/>
<path d="M80.1879 69.5806C80.1879 69.5806 72.7944 99.6948 72.5751 109.084C72.3559 118.473 77.5269 165.949 77.5269 165.949L80.1879 166.878C80.1879 166.878 73.0061 132.693 74.2988 111.407C75.5915 90.1214 82.7885 68.7693 82.7885 68.7693L80.1879 69.5806Z" fill="#22213E"/>
<path d="M116.77 70.945C116.77 70.945 111.205 79.5375 109.92 112.941C108.635 146.345 116.263 165.698 116.263 165.698L119.121 164.562C119.121 164.562 110.994 150.46 110.994 117.691C110.994 83.299 118.554 71.7047 118.554 71.7047L116.77 70.945Z" fill="#22213E"/>
<path style="mix-blend-mode:multiply" opacity="0.51" d="M138.827 128.809C144.08 106.54 129.834 84.3319 107.008 79.207C84.1817 74.082 61.4189 87.9805 56.1658 110.25C50.9128 132.52 65.1587 154.727 87.9849 159.852C110.811 164.977 133.574 151.079 138.827 128.809Z" fill="url(#paint6_linear_13069_46486)"/>
<path d="M163.429 79.8694C163.429 79.8694 170.354 91.0138 171.428 94.3328C171.912 95.761 172.027 97.2838 171.764 98.766C171.5 100.248 170.865 101.644 169.916 102.829C168.275 104.622 155.552 113.811 154.335 114.63C153.118 115.449 151.114 115.368 147.289 113.893C143.895 112.55 132.646 105.514 132.646 105.514L163.429 79.8694Z" fill="#3ABEF9"/>
<path d="M144.393 54.8517L117.435 40.2703C115.933 39.4595 114.185 39.196 112.502 39.5271C110.819 39.8581 109.312 40.762 108.25 42.0773C104.826 45.7519 101.594 49.592 98.5654 53.5831C97.881 54.5188 97.4302 55.5976 97.249 56.7335C97.0679 57.8694 97.1614 59.0308 97.5221 60.1252C97.7414 60.789 97.9077 61.2167 97.9077 61.2167L109.792 88.7422C112.347 94.3918 114.418 96.5897 119.778 98.9646L147.417 112.786L148.544 113.376C149.382 113.803 150.322 114.002 151.266 113.954C152.21 113.906 153.123 113.612 153.911 113.103C162.046 107.852 167.882 103.456 167.882 103.456C171.269 101.177 172.146 96.3463 170.263 92.7839L156.792 67.2868C154.012 62.0357 149.697 57.7078 144.393 54.8517Z" fill="url(#paint7_linear_13069_46486)"/>
<g style="mix-blend-mode:screen" opacity="0.55">
<path d="M109.399 40.9931C109.399 40.9931 108.431 43.1541 109.119 44.9537C111.931 52.2702 121.608 71.9333 123.649 75.835C126.189 80.6955 126.673 81.197 132.464 84.9511C138.255 88.7053 165.153 101.052 166.483 101.332C167.126 101.475 167.791 101.493 168.44 101.382C169.089 101.272 169.709 101.037 170.263 100.69C170.263 100.69 170.43 101.546 167.617 103.641C167.277 103.891 166.461 103.921 164.926 103.641C162.258 103.161 134.354 90.881 128.782 87.6727C123.211 84.4643 121.827 82.0009 120.466 78.9622C119.106 75.9235 106.488 48.0072 106.027 46.687C105.921 46.2144 105.915 45.7259 106.007 45.2507C106.099 44.7755 106.288 44.3233 106.564 43.9211L109.399 40.9931Z" fill="#43FF50"/>
</g>
<g style="mix-blend-mode:screen" opacity="0.55">
<path d="M105.196 45.4626C105.196 45.4626 104.372 47.8449 105.052 49.6151C107.819 56.8209 117.375 76.1669 119.416 80.0169C121.926 84.8036 122.44 85.2978 128.125 88.9929C133.81 92.6881 161.645 104.614 162.976 104.895C165.199 105.359 166.257 104.666 166.257 104.666C166.257 104.666 167.474 103.751 164.692 105.794C164.352 106.038 164.488 105.868 162.968 105.603C160.338 105.131 132.729 92.393 127.21 89.2363C121.691 86.0796 120.013 83.5277 118.675 80.5406C117.337 77.5535 104.712 51.3852 104.258 50.0871C103.976 49.0615 103.869 47.9974 103.941 46.9377L105.196 45.4626Z" fill="#43FF50"/>
</g>
<g style="mix-blend-mode:screen" opacity="0.55">
<path d="M101.907 49.3643C101.787 50.7314 101.936 52.1082 102.345 53.4208C105.037 60.4644 114.487 80.4299 116.445 84.1915C118.887 88.8749 119.007 89.996 123.899 92.6364C129.72 95.771 156.202 108.575 157.495 108.863C159.657 109.32 161.819 107.845 161.819 107.845C160.6 108.498 159.449 109.264 158.379 110.131C158.002 110.439 157.56 110.661 157.084 110.782C156.608 110.903 156.111 110.92 155.628 110.832C153.072 110.367 126.598 97.6591 121.253 94.5614C115.908 91.4637 114.585 89.0888 113.285 86.1681C111.984 83.2474 99.7902 56.3563 99.3744 55.0803C99.1546 54.1204 99.2471 53.1175 99.6391 52.2112L101.907 49.3643Z" fill="#43FF50"/>
</g>
<g style="mix-blend-mode:screen" opacity="0.55">
<path d="M98.3394 53.9076C98.1551 55.1439 98.261 56.4049 98.6494 57.5953C101.31 64.5357 110.246 83.4686 112.182 87.1712C114.586 91.7808 115.077 92.2529 120.497 95.8153C125.918 99.3776 152.461 111.304 153.761 111.591C155.893 112.041 156.603 111.319 156.603 111.319C156.603 111.319 155.628 111.879 155.424 112.056C154.533 112.31 153.586 112.31 152.695 112.056C148.877 111.001 124.928 99.1047 119.651 96.0586C114.374 93.0126 112.741 90.5491 111.463 87.6727C110.186 84.7962 98.5057 59.2991 98.0748 58.0453C97.7955 57.0863 97.6656 56.0917 97.6893 55.0951L98.3394 53.9076Z" fill="#43FF50"/>
</g>
<path style="mix-blend-mode:screen" d="M170.249 92.7839L156.792 67.2868C154.012 62.0357 149.697 57.7078 144.394 54.8517L117.435 40.2703C116.057 39.527 114.469 39.243 112.91 39.4613C111.352 39.6796 109.909 40.3884 108.802 41.4799C110.881 39.6286 113.088 39.2082 115.492 42.955C119.318 48.8923 124.065 60.9291 127.172 69.3741C128.253 72.3153 129.934 75.0118 132.115 77.3002C134.296 79.5886 136.93 81.4212 139.858 82.6869C150.805 87.4293 167.633 94.827 169.462 96.2873C169.925 96.6301 170.294 97.0782 170.538 97.5926C170.782 98.1069 170.893 98.6717 170.861 99.2375C171.488 97.0871 171.27 94.7855 170.249 92.7839Z" fill="url(#paint8_linear_13069_46486)"/>
<path style="mix-blend-mode:multiply" d="M170.853 99.2449C170.95 98.9 171.029 98.5504 171.088 98.1976C170.767 97.4068 170.195 96.7373 169.455 96.2873C166.832 94.3475 145.014 84.929 139.85 82.6869C139.004 82.3181 138.232 81.9493 137.582 81.5584C135.925 80.6357 134.005 80.2653 132.113 80.5036C130.22 80.7418 128.459 81.5757 127.097 82.8786C122.72 87.0827 117.632 91.98 116.226 93.2043C112.801 96.1545 97.9609 61.2462 97.9609 61.2462C97.9609 61.2462 105.944 79.685 109.845 88.7717C112.703 95.4096 114.736 96.4643 119.832 98.9941C130.03 104.046 147.418 112.786 147.418 112.786L148.544 113.376C149.382 113.803 150.322 114.002 151.266 113.954C152.21 113.906 153.124 113.612 153.912 113.103C162.046 107.852 167.882 103.456 167.882 103.456C169.343 102.431 170.394 100.942 170.853 99.2449Z" fill="url(#paint9_linear_13069_46486)"/>
<path style="mix-blend-mode:multiply" opacity="0.61" d="M107.97 71.3433L121.918 58.7386L127.966 60.6414L162.741 78.6229L163.135 79.3605C163.135 79.3605 128.987 63.481 126.703 62.5591C124.42 61.6371 123.128 61.7551 121.26 62.7951C119.393 63.835 104.818 77.3175 104.818 77.3175L103.888 74.9942L107.97 71.3433Z" fill="url(#paint10_linear_13069_46486)"/>
<path style="mix-blend-mode:multiply" opacity="0.61" d="M129.819 104.327L133.183 105.846L150.76 89.2437L150.329 84.7299L132.132 48.2137L131.27 47.7417C131.27 47.7417 146.246 81.1601 147.07 83.7415C147.894 86.323 148.582 88.0783 147.184 89.7747C145.785 91.4711 130.907 104.607 130.907 104.607L129.622 103.928L133.122 106.052L129.819 104.327Z" fill="url(#paint11_linear_13069_46486)"/>
<g style="mix-blend-mode:screen">
<path d="M123.513 59.8449C123.513 59.8449 130.703 74.9647 127.868 79.5375C125.033 84.1103 118.206 91.3383 118.206 91.3383C118.206 91.3383 124.398 85.3568 127.074 82.8934C129.75 80.4299 133.273 79.5817 137.559 81.5731C141.846 83.5645 146.919 85.8509 146.919 85.8509C146.919 85.8509 137.249 80.5184 132.751 75.0311C128.253 69.5437 123.513 59.8449 123.513 59.8449Z" fill="#FFE876"/>
</g>
<path d="M128.519 103.375L132.427 106.628C132.974 107.134 133.694 107.424 134.448 107.439C135.202 107.454 135.934 107.193 136.502 106.709C140.614 103.213 149.611 95.5718 151.818 93.6837C154.714 91.2055 155.243 88.3512 152.982 84.2578C150.934 80.5701 136.691 49.1725 136.691 49.1725L132.767 47.3876L132.11 48.2137C132.11 48.2137 144.961 76.9782 146.957 80.9462C148.953 84.9142 151.123 88.3217 147.464 91.3162C143.805 94.3106 131.852 105.116 131.852 105.116L128.519 103.375Z" fill="url(#paint12_linear_13069_46486)"/>
<path style="mix-blend-mode:multiply" d="M129.554 104.046L132.578 105.521L148.688 91.2941C151.342 88.9487 150.541 86.4336 149.089 83.3433C148.038 81.1306 132.76 47.4171 132.76 47.4171L132.102 48.2432C132.102 48.2432 144.954 77.0077 146.95 80.9757C148.945 84.9437 151.115 88.3512 147.456 91.3457C143.797 94.3401 131.845 105.145 131.845 105.145L128.519 103.375L129.554 104.046Z" fill="url(#paint13_linear_13069_46486)"/>
<path d="M105.355 78.7409L102.989 74.2714C102.757 73.8302 102.673 73.3288 102.751 72.8388C102.828 72.3487 103.062 71.895 103.42 71.5424C106.859 68.1866 116.272 59.0041 117.783 57.529C119.598 55.7589 122.909 56.0022 125.888 57.7797C128.866 59.5572 161.782 74.4189 161.782 74.4189L163.649 77.8338L162.757 78.6229C162.757 78.6229 131.837 63.8719 127.067 61.792C122.297 59.7121 120.951 61.1282 118.834 63.0016C116.718 64.875 104.531 76.602 104.531 76.602L105.34 78.7409H105.355Z" fill="url(#paint14_linear_13069_46486)"/>
<path style="mix-blend-mode:multiply" d="M105.355 78.741L104.546 76.6021C104.546 76.6021 116.733 64.9045 118.849 63.0016C120.966 61.0987 122.319 59.7416 127.082 61.792C131.845 63.8424 162.772 78.6229 162.772 78.6229L163.664 77.8338C163.664 77.8338 126.833 60.8701 124.882 60.1325C124.094 59.7917 123.226 59.6652 122.37 59.7665C121.515 59.8677 120.703 60.193 120.021 60.7078C119.054 61.5708 104.085 75.5621 104.085 75.5621L105.015 77.8559L105.355 78.741Z" fill="url(#paint15_linear_13069_46486)"/>
<g style="mix-blend-mode:screen">
<path d="M124.776 57.1823C121.752 55.6187 119.152 56.1571 117.768 57.5069L115.221 59.9998C115.221 59.9998 117.935 57.2856 118.691 58.0526C119.447 58.8197 118.925 61.6371 118.925 61.6371C119.25 61.2913 119.607 60.9753 119.991 60.6931C120.669 60.1716 121.482 59.8421 122.339 59.7407C123.196 59.6392 124.066 59.7697 124.852 60.1178C127.12 61.1135 123.431 59.1295 122.818 58.2002C122.206 57.2708 124.776 57.1823 124.776 57.1823Z" fill="#C8C8C7"/>
</g>
<g style="mix-blend-mode:screen" opacity="0.7">
<path d="M153.829 86.0206C154.367 87.1348 154.548 88.382 154.347 89.5982C154.146 90.8145 153.573 91.943 152.702 92.8356C151.929 93.6726 151.076 94.4357 150.154 95.1146C150.154 95.1146 153.042 92.4373 151.916 91.2277C150.517 89.7526 148.083 91.8251 148.083 91.8251C148.703 91.3373 149.255 90.7719 149.724 90.1435C150.159 89.4949 150.422 88.7508 150.489 87.9783C150.556 87.2059 150.426 86.4292 150.109 85.7182C149.315 83.4244 151.863 87.1933 152.747 87.8645C153.632 88.5356 153.829 86.0206 153.829 86.0206Z" fill="#C8C8C7"/>
</g>
<path style="mix-blend-mode:multiply" d="M142.882 69.6174C142.882 69.6174 145.309 73.4969 146.216 72.7151C147.123 71.9333 146.322 70.237 146.322 70.237L142.882 69.6174Z" fill="url(#paint16_linear_13069_46486)"/>
<path d="M144.107 66.5861C144.107 66.5861 128.647 60.4792 126.44 54.1879C124.232 47.8966 130.454 38.1461 129.524 32.6883C128.594 27.2304 108.485 10.8936 101.016 15.85C93.5464 20.8063 93.8564 32.0318 99.7909 33.6397C101.415 34.142 103.152 34.1877 104.802 33.7715C106.452 33.3554 107.948 32.4943 109.12 31.2869L110.488 33.7208C110.488 33.7208 87.7404 53.1774 89.6455 39.695C91.5506 26.2126 94.9375 20.7842 98.2487 16.3441C101.56 11.9041 107.321 14.0356 111.38 15.9385C115.44 17.8414 132.079 22.2667 133.44 27.3853C134.801 32.5039 124.829 45.706 129.796 50.2494C134.763 54.7927 144.802 65.8928 144.802 65.8928L144.107 66.5861Z" fill="url(#paint17_linear_13069_46486)"/>
<path d="M143.245 67.3974C143.245 67.3974 127.762 61.2536 125.577 54.9992C123.392 48.7447 129.592 38.9501 128.662 33.4922C127.732 28.0343 107.622 11.7049 100.153 16.6613C92.6841 21.6176 92.6539 33.7946 98.596 35.4024C104.538 37.0103 110.495 33.7208 110.495 33.7208L104.221 43.5155C104.221 43.5155 86.8857 54.0108 88.7908 40.5653C90.6959 27.1197 94.0827 21.6545 97.394 17.207C100.705 12.7596 106.889 14.5592 110.934 16.4695C114.978 18.3798 130.786 23.2476 132.147 28.3662C133.508 33.4848 123.982 46.51 128.934 51.0606C133.886 55.6113 143.948 66.7115 143.948 66.7115L143.245 67.3974Z" fill="url(#paint18_linear_13069_46486)"/>
<path style="mix-blend-mode:multiply" d="M142.527 66.4533C138.951 65.0815 129.479 60.5898 128.534 57.3003C127.589 54.0109 127.18 51.3999 131.558 55.1393C135.935 58.8787 142.527 66.4533 142.527 66.4533Z" fill="url(#paint19_linear_13069_46486)"/>
<g style="mix-blend-mode:screen">
<path d="M88.7303 40.9931C88.7303 40.9931 89.2671 43.2057 90.144 42.6231C91.021 42.0404 94.9445 36.3834 95.2696 35.3508C95.5947 34.3182 94.8085 31.309 94.8085 31.309C94.8085 31.309 95.7761 34.2592 97.8324 35.1369C99.2466 35.6683 100.755 35.919 102.27 35.8745C102.27 35.8745 99.4351 36.258 98.2482 37.0767C97.0613 37.8954 90.6883 46.0084 91.8072 46.5468C92.9261 47.0852 96.1012 47.0115 96.1012 47.0115C96.1012 47.0115 91.5653 48.4055 89.7811 46.1854C87.997 43.9654 88.7303 40.9931 88.7303 40.9931Z" fill="#EEEEED"/>
</g>
<g style="mix-blend-mode:screen">
<path d="M108.62 15.4443C108.62 15.4443 114.298 18.1659 122.137 21.3447C125.448 22.6797 133.598 26.3011 131.889 32.1203C134.346 25.4824 126.439 22.9231 123.385 21.566C120.33 20.2089 108.62 15.4443 108.62 15.4443Z" fill="#EEEEED"/>
</g>
<path d="M138.21 5.48737C137.114 8.03193 134.596 13.5267 134.203 15.8131C134.692 15.7935 135.181 15.8457 135.655 15.968C135.655 15.968 138.731 13.0842 142.897 13.5857C144.976 13.8365 146.208 14.3749 146.957 15.2599C147.444 15.2794 147.928 15.3312 148.408 15.4148C148.408 15.4148 141.823 5.50212 150.442 4.88996C159.249 4.26304 166.318 7.92867 170.906 11.4099C171.615 12.0149 172.261 12.6869 172.834 13.416C177.075 18.9256 171.473 24.9218 161.336 30.2617C152.128 35.1148 134.279 30.3723 135.36 43.5376C136.116 52.7718 140.765 63.245 143.267 67.1983C143.411 67.4122 144.719 67.3605 144.719 67.3605C144.129 66.0846 138.452 54.6452 138.603 47.5573C138.754 40.4694 155.923 36.14 163.195 32.6809C169.515 29.6643 178.988 24.826 176.1 18.0184C174.127 13.3644 168.185 4.50643 159.09 2.08726C147.153 -1.08421 139.858 1.71849 138.21 5.48737Z" fill="url(#paint20_linear_13069_46486)"/>
<path d="M148.967 4.7277C154.358 3.68775 167.179 6.46095 173.749 14.0135C180.318 21.566 169.016 29.0521 161.781 32.5186C154.547 35.9851 137.318 40.2924 137.166 47.3803C137.015 54.4682 142.693 65.9076 143.282 67.1835C143.282 67.1835 134.966 56.5112 133.916 43.3606C132.865 30.2101 150.691 34.9525 159.899 30.0847C170.029 24.7448 175.639 18.7485 171.398 13.239C167.156 7.72954 155.106 3.20835 148.967 4.7277Z" fill="url(#paint21_linear_13069_46486)"/>
<path d="M175.457 16.9637C174.86 14.81 170.46 4.42529 158.523 1.22432C146.586 -1.97665 138.391 1.54147 136.758 5.31035C135.125 9.07924 134.203 15.7615 134.203 15.7615C134.203 15.7615 137.28 12.8703 141.438 13.3718C145.596 13.8733 146.957 15.2083 146.957 15.2083C146.957 15.2083 140.349 5.2366 148.968 4.72769C164.669 3.80575 173.069 12.8703 175.457 16.9637Z" fill="url(#paint22_linear_13069_46486)"/>
<path d="M147.901 4.94159C150.857 4.65394 156.066 3.62875 161.313 5.74552C166.559 7.86229 174.036 12.8555 175.457 16.9637C176.342 19.523 175.571 19.9139 175.457 20.4523C176.077 16.5064 173.854 14.4412 169.054 10.96C157.767 2.76581 147.901 4.94159 147.901 4.94159Z" fill="url(#paint23_linear_13069_46486)"/>
<g style="mix-blend-mode:screen" opacity="0.7">
<path d="M137.325 46.1854C137.325 46.1854 137.166 45.5143 139.23 43.2352C140.271 41.9988 141.608 41.0313 143.123 40.4178C143.123 40.4178 140.523 40.3514 139.343 38.7657C138.376 37.4454 138.089 36.0146 138.512 35.5426C138.886 35.1571 139.282 34.7926 139.699 34.451C138.653 34.8122 137.661 35.3083 136.75 35.9261C135.862 36.5778 135.138 37.4189 134.633 38.3852C134.129 39.3516 133.858 40.4177 133.84 41.502C133.931 40.6243 134.883 40.521 135.548 41.1627C137.514 43.073 137.325 46.1854 137.325 46.1854Z" fill="#EEEEED"/>
</g>
<g style="mix-blend-mode:screen" opacity="0.7">
<path d="M135.889 7.78853C136.09 7.40972 136.395 7.09308 136.77 6.8742C137.145 6.65532 137.576 6.54285 138.013 6.54945C139.449 6.66008 143.071 6.71908 143.494 7.287C143.916 7.9834 144.288 8.70799 144.605 9.4554C144.455 8.46648 144.605 7.45626 145.036 6.54945C145.747 5.31036 147.69 4.88996 147.69 4.88996C146.567 5.06552 145.432 5.15675 144.295 5.16285C142.231 5.16285 138.21 5.70126 138.194 4.56543C138.167 4.27304 138.203 3.97835 138.299 3.70021C138.396 3.42208 138.551 3.16662 138.754 2.9502C138.012 3.44491 137.405 4.10808 136.985 4.88258C136.493 5.98891 135.889 7.78853 135.889 7.78853Z" fill="#EEEEED"/>
</g>
<path d="M146.609 63.7244C146.481 64.0489 148.945 57.6396 150.185 54.7484C150.941 52.9783 152.166 51.3409 150.843 49.7921C149.52 48.2432 142.882 45.9273 140.894 46.156C139.254 46.3477 135.36 48.9218 134.604 49.9101C133.848 50.8984 133.81 54.0625 136.925 58.1338C140.04 62.2051 142.587 66.3796 142.587 66.3796C142.587 66.3796 144.251 71.1442 144.855 72.5234C145.46 73.9026 148.839 80.0169 149.8 80.4816C150.76 80.9462 156.929 84.2873 159.9 81.8682C162.871 79.449 168.714 71.5425 166.25 69.079C163.785 66.6156 154.472 66.3132 149.936 66.3796C145.4 66.446 146.609 63.7244 146.609 63.7244Z" fill="url(#paint24_linear_13069_46486)"/>
<path style="mix-blend-mode:multiply" opacity="0.87" d="M137.409 50.0428C135.897 49.1061 135.36 48.9217 134.604 49.9101C133.848 50.8984 133.81 54.0625 136.925 58.1338C140.04 62.205 142.587 66.3796 142.587 66.3796C142.587 66.3796 144.251 71.1442 144.855 72.5234C145.46 73.9026 148.839 80.0169 149.8 80.4816C150.76 80.9462 156.929 84.2873 159.9 81.8682C162.871 79.449 157.344 75.835 154.184 73.8288C151.251 71.9555 145.543 69.1306 144.356 66.4533C142.368 62.1755 142.837 53.4429 137.409 50.0428Z" fill="url(#paint25_linear_13069_46486)"/>
<path style="mix-blend-mode:multiply" d="M137.937 51.3557C136.614 50.183 135.753 50.2272 135.36 51.3557C134.966 52.4841 133.802 54.0404 136.924 58.1117C140.047 62.1829 142.587 66.3796 142.587 66.3796C142.587 66.3796 144.25 71.1442 144.855 72.5234C145.46 73.9026 148.839 80.0169 149.799 80.4816C150.759 80.9462 156.323 84.0513 158.871 81.1823C160.519 79.3015 156.716 76.757 153.662 74.264C150.963 72.0514 145.346 69.5511 144.106 66.8885C142.126 62.596 142.39 55.3163 137.937 51.3557Z" fill="url(#paint26_radial_13069_46486)"/>
<path style="mix-blend-mode:multiply" d="M147.131 54.6894C145.967 54.0994 143.064 62.3083 144.039 64.2776C145.014 66.2468 146.828 61.2536 147.191 59.395C147.554 57.5364 148.129 55.1836 147.131 54.6894Z" fill="url(#paint27_linear_13069_46486)"/>
<path style="mix-blend-mode:multiply" d="M145.467 66.9475C144.092 66.859 148.794 69.8977 151.553 70.6353C154.313 71.3728 159.907 71.3212 159.045 69.7723C158.183 68.2235 148.129 66.6156 147.108 66.7631C146.568 66.8703 146.019 66.932 145.467 66.9475Z" fill="url(#paint28_linear_13069_46486)"/>
<g style="mix-blend-mode:screen" opacity="0.6">
<path d="M139.812 52.3661C139.812 52.3661 140.667 50.5739 144.983 50.8099C149.3 51.0459 149.482 51.7097 149.905 52.2039C150.328 52.698 149.905 55.5081 149.905 55.5081C149.905 55.5081 152.377 51.5991 151.251 50.3969C150.124 49.1947 146.616 47.5057 144.689 47.7417C142.761 47.9777 139.2 50.3821 138.195 49.9101C137.441 49.6007 136.647 49.3946 135.836 49.2979C136.721 49.4678 137.535 49.8916 138.172 50.5149C138.78 51.0772 139.33 51.6974 139.812 52.3661Z" fill="#DDDDDC"/>
</g>
<g style="mix-blend-mode:screen" opacity="0.6">
<path d="M161.222 67.1171C161.609 67.2498 161.936 67.5109 162.145 67.8547C162.349 68.3562 160.285 75.1343 159.718 75.6137C158.682 76.5062 155.779 74.8319 155.779 74.8319C155.779 74.8319 159.022 76.9118 160.051 78.5197C161.079 80.1275 160.633 79.9948 160.708 80.6291C160.86 79.5965 160.603 78.7778 161.109 77.8411C161.396 77.2953 163.43 74.8909 163.747 72.9438C164.065 70.9967 163.899 69.433 164.254 68.8209C164.609 68.2087 165.766 68.6881 165.766 68.6881C164.818 68.0834 163.765 67.6534 162.659 67.4195C160.852 67.0434 160.739 67.0286 160.739 67.0286L161.222 67.1171Z" fill="#DDDDDC"/>
</g>
<path d="M147.259 62.0354C147.098 62.485 146.847 62.8987 146.52 63.2521C146.192 63.6055 145.796 63.8915 145.354 64.0932C144.042 64.6266 142.777 65.2655 141.574 66.0034C140.705 66.5935 140.206 67.4785 140.561 68.1054C140.916 68.7324 142.504 71.181 142.95 71.4392C143.396 71.6973 143.592 69.1085 144.348 68.8651C145.104 68.6217 149.981 66.3796 149.981 66.3796C149.981 66.3796 147.713 66.4386 147.123 65.7748C146.533 65.111 147.259 62.0354 147.259 62.0354Z" fill="url(#paint29_linear_13069_46486)"/>
<path style="mix-blend-mode:multiply" d="M140.538 68.1055C141.121 69.0983 141.767 70.0541 142.474 70.9672C142.927 71.4392 143.985 67.5228 143.6 66.5935C143.214 65.6642 140.16 67.0508 140.538 68.1055Z" fill="url(#paint30_linear_13069_46486)"/>
<g style="mix-blend-mode:screen" opacity="0.6">
<path d="M146.745 65.9887C146.367 64.6095 146.322 64.1006 145.392 64.462C144.462 64.8234 143.056 65.3397 143.933 66.151C144.81 66.9623 146.995 66.8959 146.745 65.9887Z" fill="#DDDDDC"/>
</g>
<path style="mix-blend-mode:screen" d="M77.882 167.225C120.895 167.225 155.764 133.206 155.764 91.2424C155.764 49.2785 120.895 15.2599 77.882 15.2599C34.8689 15.2599 0 49.2785 0 91.2424C0 133.206 34.8689 167.225 77.882 167.225Z" fill="url(#paint31_radial_13069_46486)"/>
<path d="M96.3584 78.4164C96.3584 78.4164 108.968 74.028 112.514 73.6666C114.05 73.4946 115.606 73.6955 117.044 74.2513C118.481 74.8072 119.756 75.7008 120.754 76.8528C122.266 78.7852 131.497 110.175 132.797 112.993C133.553 114.615 134.377 116.939 132.858 119.306C131.338 121.674 118.925 139.028 118.925 139.028L96.3584 78.4164Z" fill="#3ABEF9"/>
<path d="M67.3589 91.5965L47.2571 114.527C46.1448 115.806 45.5342 117.429 45.5342 119.107C45.5342 120.785 46.1448 122.408 47.2571 123.687L74.3896 148.093C75.3573 149.131 76.5608 149.935 77.9038 150.438C79.2467 150.941 80.6918 151.131 82.1233 150.991L103.639 148.912C106.816 148.603 109.868 147.544 112.532 145.825C115.195 144.107 117.39 141.782 118.925 139.05L130.56 120.907C131.218 119.735 131.613 118.439 131.72 117.107C131.827 115.774 131.643 114.435 131.179 113.177L120.958 78.918C119.348 75.2302 114.669 73.4085 110.7 74.4927L82.335 82.2591C76.5083 83.8625 71.2978 87.1112 67.3589 91.5965Z" fill="url(#paint32_linear_13069_46486)"/>
<g style="mix-blend-mode:screen" opacity="0.55">
<path d="M46.9092 123.274C46.9092 123.274 49.1771 124.624 51.1125 124.322C59.0579 123.097 80.8228 117.765 85.1698 116.592C90.5902 115.117 91.2177 114.733 96.1392 109.954C101.061 105.175 118.955 81.7944 119.507 80.5479C119.785 79.9596 119.938 79.3229 119.959 78.6755C119.98 78.0281 119.867 77.3832 119.628 76.7791C120.507 77.9317 121.144 79.2427 121.503 80.6364C121.724 81.2398 121.724 81.8991 121.503 82.5025C120.497 84.9659 102.482 109.298 98.1274 114.003C93.7729 118.709 91.0136 119.55 87.6948 120.221C84.376 120.892 54.6732 127.272 53.2444 127.449C51.8155 127.626 50.2204 126.35 50.2204 126.35L46.9092 123.274Z" fill="#43FF50"/>
</g>
<g style="mix-blend-mode:screen" opacity="0.55">
<path d="M52.209 128.223C53.5588 128.785 55.0226 129.037 56.4879 128.961C64.0931 127.818 84.9433 122.81 89.1088 121.711C94.2949 120.339 94.877 119.97 99.617 115.493C104.357 111.016 121.503 87.9382 122.032 86.7803C122.924 84.8405 122.455 83.7489 122.455 83.7489C122.455 83.7489 122.796 85.0249 123.113 85.8141C123.257 86.1828 123.295 85.5854 122.728 86.9204C121.752 89.2289 103.828 111.953 99.6775 116.371C95.5271 120.789 92.6619 121.843 89.4717 122.485C86.2814 123.127 58.1511 129.639 56.7827 129.802C55.7216 129.865 54.657 129.761 53.6302 129.492L52.209 128.223Z" fill="#43FF50"/>
</g>
<g style="mix-blend-mode:screen" opacity="0.55">
<path d="M56.2305 131.771C57.6155 132.14 59.0555 132.272 60.4867 132.162C67.7593 131.055 88.7002 126.306 92.6767 125.244C97.636 123.923 98.7246 124.027 102.195 120.081C106.322 115.412 123.241 94.5098 123.755 93.3961C124.61 91.5301 123.884 88.6241 123.884 88.6241C123.884 88.6241 124.353 90.2173 125.124 92.9831C125.437 93.9461 125.416 94.9832 125.063 95.9333C124.126 98.1459 107.517 118.62 103.533 122.869C99.5486 127.117 97.0161 127.854 93.9619 128.474C90.9077 129.094 62.8151 135.001 61.5148 135.156C61.0811 135.178 60.6471 135.116 60.2383 134.973C59.8294 134.83 59.4539 134.609 59.1335 134.323L56.2305 131.771Z" fill="#43FF50"/>
</g>
<g style="mix-blend-mode:screen" opacity="0.55">
<path d="M60.8721 135.945C61.7852 136.351 62.8041 136.472 63.7902 136.292C70.9494 135.2 90.8017 130.716 94.7253 129.654C99.6089 128.349 100.153 127.995 104.614 123.754C109.074 119.513 125.025 98.8392 125.562 97.7329C126.401 95.889 125.864 95.3948 125.864 95.3948C126.063 95.9019 126.215 96.4252 126.318 96.9585C126.354 97.6051 126.171 98.2453 125.796 98.7802C124.05 102.033 108.598 120.39 104.674 124.594C100.75 128.799 98.0667 129.757 95.0654 130.406C92.0642 131.055 65.3853 136.742 64.1077 136.897C63.4016 136.997 62.6856 137.012 61.9758 136.941L60.8721 135.945Z" fill="#43FF50"/>
</g>
<g style="mix-blend-mode:screen" opacity="0.55">
<path d="M64.5391 139.154C65.9257 139.559 67.3718 139.736 68.818 139.677C75.4404 138.704 93.5917 134.456 97.2129 133.526C101.749 132.361 102.233 132.051 106.36 128.245C110.488 124.44 126.303 104.806 126.772 103.818C127.247 102.716 127.447 101.521 127.354 100.329C127.354 100.329 127.732 101.598 128.413 104.083C128.529 104.903 128.401 105.738 128.042 106.488C127.195 108.45 111.652 127.722 108.024 131.468C104.395 135.215 102.081 135.894 99.307 136.425C96.5325 136.956 70.9423 142.178 69.7554 142.325C68.8767 142.332 68.016 142.083 67.2833 141.61L64.5391 139.154Z" fill="#43FF50"/>
</g>
<g style="mix-blend-mode:screen" opacity="0.55">
<path d="M68.7949 143.085C70.0345 143.521 71.3493 143.716 72.6656 143.66C79.0386 142.709 96.4944 138.578 99.9795 137.664C104.326 136.528 104.818 136.189 108.779 132.501C112.741 128.813 128.284 109.342 128.73 108.383C128.956 107.981 129.093 107.537 129.133 107.08C129.174 106.622 129.116 106.162 128.964 105.728C129.177 106.229 129.334 106.75 129.433 107.284C129.473 107.863 129.399 108.444 129.214 108.995C128.458 110.913 112.325 129.58 108.802 133.231C105.279 136.882 102.928 137.752 100.259 138.283C97.5905 138.814 74.0264 144.184 72.8848 144.331C72.0207 144.414 71.1523 144.446 70.2842 144.427L68.7949 143.085Z" fill="#43FF50"/>
</g>
<g style="mix-blend-mode:screen" opacity="0.55">
<path d="M72.0303 145.976C72.9958 146.413 74.0623 146.594 75.1223 146.5C81.2382 145.57 100.546 141.942 103.774 140.717C106.67 139.611 107.69 139.773 110.578 136.462C114.041 132.516 129.16 114.099 129.591 113.155C130.027 112.108 130.22 110.98 130.158 109.851C130.275 110.674 130.512 111.476 130.861 112.233C130.978 113.041 130.849 113.864 130.491 114.601C129.735 116.474 115.227 135.68 111.871 139.264C108.514 142.849 106.927 142.952 104.364 143.468C101.801 143.985 77.2995 148.145 76.2033 148.277C75.4688 148.331 74.7339 148.178 74.0866 147.835L72.0303 145.976Z" fill="#43FF50"/>
</g>
<g style="mix-blend-mode:screen" opacity="0.55">
<path d="M75.2969 148.941C76.2123 149.258 77.1914 149.359 78.1545 149.236C84.2024 148.314 101.099 146.33 104.395 145.445C108.5 144.346 108.583 144.914 112.333 141.322C116.082 137.73 130.529 117.344 130.953 116.408C131.373 115.526 131.5 114.538 131.316 113.583C131.496 114.161 131.623 114.753 131.694 115.353C131.681 116.109 131.495 116.852 131.149 117.529C129.683 120.272 116.309 138.239 113.006 141.787C109.702 145.334 107.222 145.652 104.69 146.168C102.157 146.684 79.4775 149.62 78.404 149.745C77.6451 149.813 76.88 149.766 76.136 149.605L75.2969 148.941Z" fill="#43FF50"/>
</g>
<path style="mix-blend-mode:screen" d="M110.722 74.4927L82.3577 82.2591C76.5228 83.8585 71.3039 87.1075 67.3589 91.5965L47.2572 114.527C46.2331 115.697 45.6288 117.162 45.536 118.698C45.4432 120.235 45.867 121.759 46.7431 123.038C45.2992 120.678 45.3218 118.48 49.5705 116.924C56.3064 114.453 69.3774 112.322 78.5022 111.024C81.6806 110.578 84.7332 109.508 87.4751 107.877C90.217 106.247 92.5911 104.091 94.4536 101.539C101.431 92.0021 112.257 77.3691 114.109 75.9088C114.548 75.5337 115.075 75.2702 115.644 75.1416C116.212 75.0129 116.804 75.0231 117.368 75.1712C115.318 74.1413 112.946 73.8992 110.722 74.4927Z" fill="url(#paint33_linear_13069_46486)"/>
<path d="M82.8415 83.9112C81.2237 84.3685 73.1422 87.1712 69.8612 91.3973C66.5802 95.6235 50.1223 112.89 49.4041 113.723C48.6859 114.556 48.8069 115.995 52.1559 114.667C55.505 113.339 72.492 110.478 77.595 108.671C85.0112 106.045 88.9348 102.969 91.6488 100.314C93.5614 98.4336 107.804 80.0907 108.417 79.3089C109.974 77.3175 110.874 75.2081 107.086 76.5504C103.299 77.8928 83.6051 83.6973 82.8415 83.9112Z" fill="#CAFFDA"/>
<path d="M82.8416 83.9112C80.1236 84.7559 77.5057 85.8809 75.0322 87.267C77.1112 90.7925 82.6828 100.307 85.4271 105.079C87.6889 103.752 89.7694 102.151 91.6186 100.314C93.5313 98.4336 107.774 80.0907 108.386 79.3089C109.944 77.3175 110.843 75.2081 107.056 76.5504C103.268 77.8928 83.6051 83.6973 82.8416 83.9112Z" fill="url(#paint34_linear_13069_46486)"/>
<path d="M97.0234 78.1804C97.0234 78.1804 95.5568 79.2868 95.5946 79.9432C95.6324 80.5996 90.2119 81.7502 90.2119 81.7502C89.9464 81.2116 89.7955 80.6261 89.7682 80.0291C89.7409 79.4321 89.8378 78.8358 90.0532 78.2763C90.8092 76.6242 95.1939 75.0311 97.2804 75.0975C97.9052 75.145 98.5043 75.3603 99.0114 75.7196C99.5184 76.0789 99.9136 76.5681 100.153 77.1331L97.0234 78.1804Z" fill="url(#paint35_linear_13069_46486)"/>
<path style="mix-blend-mode:multiply" d="M100.153 77.1183L97.0235 78.1804C97.0235 78.1804 95.6023 79.1982 95.5947 79.9432C95.315 80.3857 93.7047 80.8577 93.7047 80.8577C93.658 80.1718 93.7695 79.4845 94.0312 78.8462C94.2929 78.208 94.698 77.6352 95.2167 77.17C95.9219 76.639 96.7854 76.3467 97.6761 76.3374C98.5669 76.3281 99.4366 76.6022 100.153 77.1183Z" fill="url(#paint36_linear_13069_46486)"/>
<path d="M59.8595 100.395C59.8595 100.395 61.4471 99.5841 62.1275 99.8644C62.8079 100.145 65.6957 96.0587 65.6957 96.0587C64.7505 95.194 63.5201 94.6866 62.2257 94.6278C60.298 94.6278 57.274 97.6886 56.6692 99.4514C56.0644 101.214 57.7956 102.608 57.7956 102.608L59.8595 100.395Z" fill="url(#paint37_linear_13069_46486)"/>
<path style="mix-blend-mode:multiply" d="M57.7722 102.608L59.8587 100.395C59.8587 100.395 61.3707 99.5915 62.1267 99.8644C62.6634 99.798 63.6387 98.6327 63.6387 98.6327C62.9736 98.3324 62.2537 98.1653 61.5213 98.1413C60.789 98.1172 60.0591 98.2367 59.3749 98.4926C58.6313 98.8616 58.0552 99.4875 57.7589 100.248C57.4626 101.009 57.4673 101.85 57.7722 102.608Z" fill="url(#paint38_linear_13069_46486)"/>
<path style="mix-blend-mode:screen" opacity="0.8" d="M94.5671 23.845L5.85938 81.9936C5.85938 81.9936 47.7336 113.398 48.5274 114.129C49.3212 114.859 49.5782 115.678 52.1561 114.667C55.5052 113.354 72.4922 110.478 77.5952 108.671C85.0114 106.045 88.935 102.97 91.649 100.314C93.5617 98.4336 107.804 80.0907 108.417 79.3089C109.974 77.3175 109.762 77.3175 109.611 76.3587C108.606 69.5806 94.5671 23.845 94.5671 23.845Z" fill="url(#paint39_linear_13069_46486)"/>
<path style="mix-blend-mode:multiply" d="M117.353 75.186C117.024 75.0239 116.686 74.8811 116.34 74.7582C115.473 74.899 114.677 75.3105 114.072 75.9309C111.592 78.055 97.7347 97.0691 94.4159 101.561C93.9184 102.248 93.3861 102.91 92.8208 103.545C91.5592 104.951 90.8026 106.72 90.6662 108.584C90.5297 110.448 91.0208 112.304 92.0648 113.871C95.4138 118.901 99.3223 124.764 100.245 126.35C102.513 130.222 103.548 131.638 104.592 133.349C105.635 135.06 112.151 143.262 109.8 145.393C106.776 148.181 89.8573 149.693 82.1084 151.006L103.624 148.926C106.801 148.618 109.853 147.558 112.517 145.84C115.18 144.122 117.375 141.797 118.91 139.065L130.545 120.922C131.203 119.749 131.599 118.454 131.705 117.122C131.812 115.789 131.628 114.45 131.165 113.192L120.959 78.918C120.239 77.302 118.964 75.982 117.353 75.186Z" fill="url(#paint40_linear_13069_46486)"/>
<path style="mix-blend-mode:multiply" opacity="0.5" d="M71.5617 110.271C70.1783 112.263 70.0498 113.391 70.6999 115.382C71.3501 117.374 92.0868 145.519 92.9109 147.252C93.7349 148.985 97.787 149.509 97.787 149.509L92.9033 149.944L66.7461 113.937L68.4093 111.068C68.4093 111.068 69.8305 110.633 71.5617 110.271Z" fill="url(#paint41_linear_13069_46486)"/>
<path style="mix-blend-mode:multiply" opacity="0.5" d="M96.2451 94.7901C99.012 94.5172 101.635 94.2664 103.049 95.9775C104.463 97.6886 119.484 127.382 120.437 129.212C121.389 131.041 121.646 134.618 121.646 134.618L122.969 132.892V128.681L103.246 92.4446L98.6189 91.9431C97.764 92.8399 96.971 93.7909 96.2451 94.7901Z" fill="url(#paint42_linear_13069_46486)"/>
<g style="mix-blend-mode:screen">
<path d="M68.1826 112.631C68.1826 112.631 84.8144 108.789 88.8816 112.418C92.9488 116.046 98.8002 124.041 98.8002 124.041C98.8002 124.041 94.0223 116.909 92.0794 113.856C90.1365 110.802 89.9929 107.218 92.8354 103.53C95.6779 99.8423 99.0194 95.417 99.0194 95.417C99.0194 95.417 91.709 103.604 85.2831 106.812C78.8572 110.021 68.1826 112.631 68.1826 112.631Z" fill="#FFE876"/>
</g>
<path d="M71.5616 110.271C67.517 112.602 68.961 115.338 70.42 117.743C71.8791 120.147 91.9355 147.444 92.5403 148.285C93.145 149.125 96.3958 149.686 96.3958 149.686L96.5243 150.829L92.4117 151.736C90.9492 151.29 89.587 150.577 88.3974 149.634C86.8855 148.27 66.0958 119.756 64.6745 117.669C63.2532 115.582 64.0622 112.602 66.4284 109.866C67.1844 109.017 69.5128 107.587 70.5712 108.391C71.8186 109.386 71.5616 110.271 71.5616 110.271Z" fill="url(#paint43_linear_13069_46486)"/>
<path style="mix-blend-mode:multiply" d="M71.562 110.271C71.5425 110.041 71.4509 109.821 71.2994 109.643C71.148 109.465 70.944 109.337 70.7153 109.276C70.0954 109.276 69.1504 110.751 68.727 111.385C68.234 112.074 67.9383 112.879 67.8705 113.716C67.8027 114.554 67.9653 115.394 68.3415 116.15C69.0067 117.256 90.2122 146.95 91.6486 148.948C93.085 150.947 96.5247 150.829 96.5247 150.829L96.3962 149.686C96.3962 149.686 93.153 149.125 92.5407 148.285C91.9283 147.444 71.8795 120.14 70.4204 117.743C68.9614 115.346 67.6308 112.351 71.562 110.271Z" fill="url(#paint44_linear_13069_46486)"/>
<g style="mix-blend-mode:screen">
<path d="M65.7713 110.891C63.5941 113.457 63.6092 116.054 64.6903 117.669L66.6861 120.619C66.6861 120.619 64.5013 117.485 65.4311 116.872C66.361 116.26 69.0901 117.374 69.0901 117.374C68.8017 116.991 68.5488 116.584 68.3341 116.157C67.9426 115.405 67.7714 114.562 67.8394 113.722C67.9074 112.881 68.212 112.075 68.7197 111.392C70.1787 109.423 67.4421 112.55 66.3837 112.949C65.3253 113.347 65.7713 110.891 65.7713 110.891Z" fill="#C8C8C7"/>
</g>
<path d="M96.7062 94.2148C96.7062 94.2148 102.384 91.8915 104.674 95.9997C106.965 100.108 120.777 126.121 122.274 129.927C122.68 131.033 122.774 132.225 122.546 133.379L123.756 133.762L125.94 130.569C125.851 129.236 125.568 127.922 125.101 126.667C123.461 122.861 109.838 95.5424 107.925 92.275C106.012 89.0077 102.913 88.2038 100.615 88.8307L100.312 88.9044C99.0106 89.2908 97.8039 89.9334 96.7667 90.7926C95.7991 91.6334 93.2287 94.7532 95.5042 95.7415C95.9447 95.2637 96.3466 94.7532 96.7062 94.2148Z" fill="url(#paint45_linear_13069_46486)"/>
<path style="mix-blend-mode:multiply" d="M104.871 94.8048C102.089 90.7925 92.7148 91.6481 95.4817 95.7415C95.9242 95.2597 96.3333 94.7497 96.7064 94.2148C96.7064 94.2148 102.384 91.8915 104.675 95.9997C106.965 100.108 120.777 126.121 122.274 129.927C122.68 131.033 122.774 132.225 122.546 133.379L123.756 133.762C123.756 133.762 123.756 129.934 122.637 127.98C121.518 126.025 107.041 97.9468 104.871 94.8048Z" fill="url(#paint46_linear_13069_46486)"/>
<g style="mix-blend-mode:screen">
<path d="M100.615 88.8528C101.844 88.5602 103.135 88.6376 104.319 89.0747C105.502 89.5117 106.522 90.288 107.245 91.3015C107.935 92.21 108.535 93.1805 109.036 94.2C109.036 94.2 106.92 90.8958 105.468 91.7292C103.669 92.7692 105.302 95.5276 105.302 95.5276C104.94 94.8331 104.482 94.1904 103.941 93.6174C103.185 92.9388 101.726 92.2013 99.0421 92.2013C96.5549 92.2013 101.416 90.9769 102.278 90.2615C103.14 89.5461 100.615 88.8528 100.615 88.8528Z" fill="#C8C8C7"/>
</g>
<g opacity="0.5">
<path style="mix-blend-mode:screen" opacity="0.8" d="M36.1516 69.7871C41.3289 69.7871 45.5259 65.6924 45.5259 60.6415C45.5259 55.5905 41.3289 51.4958 36.1516 51.4958C30.9743 51.4958 26.7773 55.5905 26.7773 60.6415C26.7773 65.6924 30.9743 69.7871 36.1516 69.7871Z" fill="url(#paint47_radial_13069_46486)"/>
</g>
<path d="M36.1516 61.9469C36.8906 61.9469 37.4897 61.3624 37.4897 60.6414C37.4897 59.9204 36.8906 59.336 36.1516 59.336C35.4126 59.336 34.8135 59.9204 34.8135 60.6414C34.8135 61.3624 35.4126 61.9469 36.1516 61.9469Z" fill="#BFFFBF"/>
<g opacity="0.5">
<path style="mix-blend-mode:screen" opacity="0.8" d="M62.6565 101.406C67.8337 101.406 72.0307 97.3112 72.0307 92.2603C72.0307 87.2093 67.8337 83.1146 62.6565 83.1146C57.4792 83.1146 53.2822 87.2093 53.2822 92.2603C53.2822 97.3112 57.4792 101.406 62.6565 101.406Z" fill="url(#paint48_radial_13069_46486)"/>
</g>
<path d="M62.6565 93.5657C63.3955 93.5657 63.9946 92.9813 63.9946 92.2603C63.9946 91.5393 63.3955 90.9548 62.6565 90.9548C61.9174 90.9548 61.3184 91.5393 61.3184 92.2603C61.3184 92.9813 61.9174 93.5657 62.6565 93.5657Z" fill="#BFFFBF"/>
<g opacity="0.5">
<path style="mix-blend-mode:screen" opacity="0.8" d="M64.8742 79.6249C69.6636 77.7066 71.9522 72.3637 69.986 67.6912C68.0198 63.0186 62.5433 60.7858 57.7539 62.7041C52.9646 64.6223 50.676 69.9653 52.6422 74.6378C54.6084 79.3104 60.0849 81.5432 64.8742 79.6249Z" fill="url(#paint49_radial_13069_46486)"/>
</g>
<path d="M61.3186 72.4644C62.0576 72.4644 62.6567 71.8799 62.6567 71.1589C62.6567 70.4379 62.0576 69.8535 61.3186 69.8535C60.5796 69.8535 59.9805 70.4379 59.9805 71.1589C59.9805 71.8799 60.5796 72.4644 61.3186 72.4644Z" fill="#BFFFBF"/>
<g opacity="0.5">
<path style="mix-blend-mode:screen" opacity="0.8" d="M72.0305 47.0189C77.2078 47.0189 81.4048 42.9242 81.4048 37.8732C81.4048 32.8222 77.2078 28.7276 72.0305 28.7276C66.8533 28.7276 62.6562 32.8222 62.6562 37.8732C62.6562 42.9242 66.8533 47.0189 72.0305 47.0189Z" fill="url(#paint50_radial_13069_46486)"/>
</g>
<path d="M72.0305 39.1787C72.7695 39.1787 73.3686 38.5942 73.3686 37.8732C73.3686 37.1523 72.7695 36.5678 72.0305 36.5678C71.2915 36.5678 70.6924 37.1523 70.6924 37.8732C70.6924 38.5942 71.2915 39.1787 72.0305 39.1787Z" fill="#BFFFBF"/>
<g opacity="0.5">
<path style="mix-blend-mode:screen" opacity="0.8" d="M99.6851 31.6999C102.29 31.6999 104.403 29.6394 104.403 27.0976C104.403 24.5558 102.29 22.4953 99.6851 22.4953C97.0798 22.4953 94.9678 24.5558 94.9678 27.0976C94.9678 29.6394 97.0798 31.6999 99.6851 31.6999Z" fill="url(#paint51_radial_13069_46486)"/>
</g>
<path d="M99.6845 27.754C100.056 27.754 100.357 27.4601 100.357 27.0976C100.357 26.7351 100.056 26.4412 99.6845 26.4412C99.313 26.4412 99.0117 26.7351 99.0117 27.0976C99.0117 27.4601 99.313 27.754 99.6845 27.754Z" fill="#BFFFBF"/>
<g opacity="0.5">
<path style="mix-blend-mode:screen" opacity="0.8" d="M44.3311 105.278C44.3341 104.368 44.6133 103.48 45.1334 102.725C45.6536 101.97 46.3914 101.383 47.2536 101.037C48.1159 100.691 49.0639 100.601 49.978 100.781C50.8921 100.96 51.7312 101.399 52.3894 102.044C53.0477 102.688 53.4955 103.508 53.6763 104.4C53.8571 105.293 53.7628 106.217 53.4053 107.057C53.0478 107.898 52.4431 108.615 51.6677 109.121C50.8923 109.626 49.9808 109.895 49.0484 109.895C48.4277 109.895 47.813 109.776 47.2397 109.543C46.6664 109.311 46.1457 108.971 45.7074 108.542C45.2692 108.113 44.922 107.604 44.6858 107.044C44.4496 106.484 44.3291 105.884 44.3311 105.278Z" fill="url(#paint52_radial_13069_46486)"/>
</g>
<path d="M49.7211 105.278C49.7211 105.41 49.681 105.538 49.6059 105.648C49.5308 105.757 49.4241 105.842 49.2993 105.892C49.1746 105.942 49.0374 105.955 48.9052 105.928C48.773 105.902 48.6518 105.838 48.557 105.745C48.4621 105.651 48.3979 105.532 48.3725 105.403C48.3471 105.274 48.3617 105.14 48.4143 105.019C48.467 104.898 48.5554 104.795 48.6683 104.723C48.7811 104.65 48.9134 104.613 49.0483 104.614C49.1373 104.614 49.2254 104.631 49.3075 104.665C49.3897 104.698 49.4642 104.747 49.5268 104.809C49.5893 104.871 49.6387 104.944 49.6721 105.025C49.7055 105.105 49.7221 105.191 49.7211 105.278Z" fill="#BFFFBF"/>
<g opacity="0.5">
<path style="mix-blend-mode:screen" opacity="0.8" d="M78.1314 81.3887C80.7368 81.3887 82.8488 79.3282 82.8488 76.7864C82.8488 74.2446 80.7368 72.1841 78.1314 72.1841C75.5261 72.1841 73.4141 74.2446 73.4141 76.7864C73.4141 79.3282 75.5261 81.3887 78.1314 81.3887Z" fill="url(#paint53_radial_13069_46486)"/>
</g>
<path d="M78.8041 76.7864C78.8056 76.9183 78.7668 77.0477 78.6926 77.158C78.6184 77.2683 78.5122 77.3545 78.3876 77.4056C78.263 77.4568 78.1255 77.4705 77.9929 77.4452C77.8602 77.4198 77.7382 77.3564 77.6426 77.2631C77.547 77.1699 77.4821 77.0509 77.4561 76.9215C77.4301 76.792 77.4442 76.658 77.4966 76.5364C77.549 76.4148 77.6374 76.3112 77.7504 76.2388C77.8635 76.1664 77.9961 76.1286 78.1313 76.13C78.3097 76.13 78.4809 76.1992 78.607 76.3223C78.7332 76.4454 78.8041 76.6123 78.8041 76.7864Z" fill="#BFFFBF"/>
<g opacity="0.5">
<path style="mix-blend-mode:screen" opacity="0.8" d="M73.4141 60.5677C73.4126 59.6571 73.688 58.7666 74.2054 58.0088C74.7228 57.251 75.4591 56.6599 76.3209 56.3105C77.1828 55.961 78.1315 55.8688 79.0471 56.0455C79.9627 56.2223 80.8039 56.66 81.4644 57.3034C82.1249 57.9467 82.575 58.7668 82.7576 59.6597C82.9402 60.5527 82.8473 61.4785 82.4904 62.3199C82.1336 63.1612 81.529 63.8805 80.7531 64.3865C79.9771 64.8925 79.0648 65.1626 78.1314 65.1626C76.8816 65.1626 75.6829 64.6788 74.7984 63.8173C73.914 62.9558 73.4161 61.787 73.4141 60.5677Z" fill="url(#paint54_radial_13069_46486)"/>
</g>
<path d="M78.8041 60.5677C78.8041 60.6993 78.764 60.8279 78.6889 60.9372C78.6138 61.0466 78.5071 61.1316 78.3823 61.1816C78.2576 61.2317 78.1204 61.2444 77.9882 61.2182C77.856 61.1919 77.7348 61.128 77.64 61.0344C77.5451 60.9408 77.4809 60.8219 77.4555 60.6926C77.4301 60.5634 77.4447 60.4297 77.4973 60.3085C77.55 60.1874 77.6384 60.0842 77.7513 60.0122C77.8641 59.9401 77.9964 59.9024 78.1313 59.9039C78.2203 59.9039 78.3084 59.9211 78.3906 59.9546C78.4727 59.988 78.5472 60.037 78.6098 60.0988C78.6723 60.1605 78.7217 60.2337 78.7551 60.3142C78.7885 60.3947 78.8051 60.4809 78.8041 60.5677Z" fill="#BFFFBF"/>
<g opacity="0.5">
<path style="mix-blend-mode:screen" opacity="0.8" d="M40.9062 18.8518C40.9062 17.9415 41.1829 17.0517 41.7013 16.2949C42.2196 15.538 42.9564 14.9482 43.8184 14.5998C44.6803 14.2515 45.6289 14.1603 46.5439 14.3379C47.459 14.5155 48.2996 14.9538 48.9593 15.5975C49.619 16.2411 50.0683 17.0612 50.2503 17.9539C50.4324 18.8467 50.3389 19.7721 49.9819 20.613C49.6249 21.454 49.0202 22.1728 48.2445 22.6785C47.4687 23.1842 46.5566 23.4541 45.6236 23.4541C44.3725 23.4541 43.1726 22.9692 42.2879 22.1061C41.4033 21.243 40.9063 20.0724 40.9062 18.8518Z" fill="url(#paint55_radial_13069_46486)"/>
</g>
<path d="M46.2968 18.8518C46.2968 18.9816 46.2574 19.1085 46.1834 19.2165C46.1095 19.3244 46.0044 19.4086 45.8815 19.4582C45.7585 19.5079 45.6233 19.5209 45.4927 19.4956C45.3622 19.4703 45.2423 19.4078 45.1482 19.316C45.0541 19.2242 44.9901 19.1072 44.9641 18.9799C44.9381 18.8525 44.9515 18.7205 45.0024 18.6006C45.0533 18.4806 45.1396 18.3781 45.2502 18.306C45.3608 18.2339 45.4909 18.1954 45.624 18.1954C45.8024 18.1954 45.9736 18.2645 46.0998 18.3876C46.2259 18.5107 46.2968 18.6777 46.2968 18.8518Z" fill="#BFFFBF"/>
<g opacity="0.5">
<path style="mix-blend-mode:screen" opacity="0.8" d="M26.9512 55.0287C26.9512 54.1184 27.2278 53.2286 27.7462 52.4718C28.2645 51.7149 29.0013 51.125 29.8633 50.7767C30.7253 50.4284 31.6738 50.3372 32.5889 50.5148C33.5039 50.6924 34.3445 51.1307 35.0042 51.7744C35.664 52.418 36.1132 53.2381 36.2953 54.1308C36.4773 55.0236 36.3839 55.949 36.0268 56.7899C35.6698 57.6309 35.0651 58.3497 34.2894 58.8554C33.5136 59.3611 32.6015 59.631 31.6685 59.631C30.4174 59.631 29.2175 59.1461 28.3329 58.283C27.4482 57.4199 26.9512 56.2493 26.9512 55.0287Z" fill="url(#paint56_radial_13069_46486)"/>
</g>
<path d="M32.3408 55.0287C32.3408 55.1585 32.3013 55.2854 32.2274 55.3934C32.1535 55.5013 32.0484 55.5854 31.9254 55.6351C31.8025 55.6848 31.6672 55.6978 31.5367 55.6725C31.4062 55.6472 31.2863 55.5846 31.1922 55.4928C31.0981 55.401 31.034 55.2841 31.008 55.1567C30.9821 55.0294 30.9954 54.8974 31.0463 54.7775C31.0973 54.6575 31.1835 54.555 31.2941 54.4829C31.4048 54.4108 31.5349 54.3723 31.6679 54.3723C31.8464 54.3723 32.0175 54.4414 32.1437 54.5645C32.2699 54.6876 32.3408 54.8546 32.3408 55.0287Z" fill="#BFFFBF"/>
<defs>
<linearGradient id="paint0_linear_13069_46486" x1="78.0216" y1="69.8638" x2="113.665" y2="167.298" gradientUnits="userSpaceOnUse">
<stop stop-color="#624E88"/>
<stop offset="1" stop-color="#3C4271"/>
</linearGradient>
<linearGradient id="paint1_linear_13069_46486" x1="139.111" y1="112.317" x2="130.673" y2="73.3379" gradientUnits="userSpaceOnUse">
<stop stop-color="#624E88"/>
<stop offset="1" stop-color="#3C4271"/>
</linearGradient>
<linearGradient id="paint2_linear_13069_46486" x1="97.209" y1="90.4041" x2="92.6737" y2="69.4355" gradientUnits="userSpaceOnUse">
<stop stop-color="#624E88"/>
<stop offset="1" stop-color="#3C4271"/>
</linearGradient>
<linearGradient id="paint3_linear_13069_46486" x1="78.0182" y1="69.8682" x2="113.661" y2="167.302" gradientUnits="userSpaceOnUse">
<stop stop-color="#624E88"/>
<stop offset="1" stop-color="#3C4271"/>
</linearGradient>
<linearGradient id="paint4_linear_13069_46486" x1="64.8941" y1="75.1638" x2="67.2104" y2="81.5075" gradientUnits="userSpaceOnUse">
<stop stop-color="#624E88"/>
<stop offset="1" stop-color="#3C4271"/>
</linearGradient>
<linearGradient id="paint5_linear_13069_46486" x1="63.1394" y1="133.213" x2="52.8301" y2="85.5798" gradientUnits="userSpaceOnUse">
<stop stop-color="#624E88"/>
<stop offset="1" stop-color="#3C4271"/>
</linearGradient>
<linearGradient id="paint6_linear_13069_46486" x1="55.0786" y1="119.534" x2="139.901" y2="119.534" gradientUnits="userSpaceOnUse">
<stop stop-color="#624E88"/>
<stop offset="1" stop-color="#3C4271"/>
</linearGradient>
<linearGradient id="paint7_linear_13069_46486" x1="146.703" y1="56.7037" x2="121.374" y2="100.945" gradientUnits="userSpaceOnUse">
<stop stop-color="#22C631"/>
<stop offset="1" stop-color="#C4AA02"/>
</linearGradient>
<linearGradient id="paint8_linear_13069_46486" x1="147.841" y1="57.0194" x2="134.561" y2="80.2146" gradientUnits="userSpaceOnUse">
<stop stop-color="#8BD514"/>
<stop offset="1" stop-color="#D38F00"/>
</linearGradient>
<linearGradient id="paint9_linear_13069_46486" x1="136.241" y1="77.4068" x2="122.667" y2="101.125" gradientUnits="userSpaceOnUse">
<stop stop-color="#22C631"/>
<stop offset="1" stop-color="#C4AA02"/>
</linearGradient>
<linearGradient id="paint10_linear_13069_46486" x1="118.734" y1="61.5154" x2="147.001" y2="93.5164" gradientUnits="userSpaceOnUse">
<stop stop-color="#B9B9B8"/>
<stop offset="1" stop-color="#B7B5B4"/>
</linearGradient>
<linearGradient id="paint11_linear_13069_46486" x1="116.664" y1="60.6125" x2="146.361" y2="94.2313" gradientUnits="userSpaceOnUse">
<stop stop-color="#B9B9B8"/>
<stop offset="1" stop-color="#B7B5B4"/>
</linearGradient>
<linearGradient id="paint12_linear_13069_46486" x1="149.026" y1="47.5131" x2="133.613" y2="107.644" gradientUnits="userSpaceOnUse">
<stop offset="0.45" stop-color="#C9C9C9"/>
<stop offset="0.54" stop-color="#C4C3C3"/>
<stop offset="0.65" stop-color="#B5B3B3"/>
<stop offset="0.78" stop-color="#9C9898"/>
<stop offset="0.92" stop-color="#7A7373"/>
<stop offset="1" stop-color="#635B5B"/>
</linearGradient>
<linearGradient id="paint13_linear_13069_46486" x1="147.265" y1="55.115" x2="125.789" y2="105.534" gradientUnits="userSpaceOnUse">
<stop offset="0.45" stop-color="#C9C9C9"/>
<stop offset="0.54" stop-color="#C4C3C3"/>
<stop offset="0.65" stop-color="#B5B3B3"/>
<stop offset="0.78" stop-color="#9C9898"/>
<stop offset="0.92" stop-color="#7A7373"/>
<stop offset="1" stop-color="#635B5B"/>
</linearGradient>
<linearGradient id="paint14_linear_13069_46486" x1="162.055" y1="63.0768" x2="104.617" y2="75.6508" gradientUnits="userSpaceOnUse">
<stop stop-color="#AFA9A6"/>
<stop offset="0.5" stop-color="#EDEAE4"/>
<stop offset="0.65" stop-color="#CDC8C3"/>
<stop offset="0.88" stop-color="#9D9694"/>
<stop offset="1" stop-color="#8B8281"/>
</linearGradient>
<linearGradient id="paint15_linear_13069_46486" x1="138.441" y1="66.5149" x2="128.49" y2="89.8629" gradientUnits="userSpaceOnUse">
<stop offset="0.45" stop-color="#C9C9C9"/>
<stop offset="0.54" stop-color="#C4C3C3"/>
<stop offset="0.65" stop-color="#B5B3B3"/>
<stop offset="0.78" stop-color="#9C9898"/>
<stop offset="0.92" stop-color="#7A7373"/>
<stop offset="1" stop-color="#635B5B"/>
</linearGradient>
<linearGradient id="paint16_linear_13069_46486" x1="144.52" y1="69.2894" x2="145.253" y2="72.9599" gradientUnits="userSpaceOnUse">
<stop stop-color="#B7B5B4"/>
<stop offset="1" stop-color="#B9B9B8"/>
</linearGradient>
<linearGradient id="paint17_linear_13069_46486" x1="98.3192" y1="23.9711" x2="142.904" y2="67.402" gradientUnits="userSpaceOnUse">
<stop stop-color="#A9A5A2"/>
<stop offset="1" stop-color="#A5A09D"/>
</linearGradient>
<linearGradient id="paint18_linear_13069_46486" x1="93.1585" y1="25.6803" x2="147.378" y2="61.5541" gradientUnits="userSpaceOnUse">
<stop offset="0.01" stop-color="#AEAAA7"/>
<stop offset="0.04" stop-color="#CECCCA"/>
<stop offset="0.07" stop-color="#E5E4E3"/>
<stop offset="0.1" stop-color="#F3F3F3"/>
<stop offset="0.12" stop-color="#F8F8F8"/>
<stop offset="0.14" stop-color="#F3F3F2"/>
<stop offset="0.17" stop-color="#E4E3E2"/>
<stop offset="0.21" stop-color="#CCC9C8"/>
<stop offset="0.25" stop-color="#ADA9A6"/>
<stop offset="0.53" stop-color="#AAA6A3"/>
<stop offset="0.74" stop-color="#A19D9A"/>
<stop offset="0.92" stop-color="#918D8A"/>
<stop offset="1" stop-color="#878381"/>
</linearGradient>
<linearGradient id="paint19_linear_13069_46486" x1="127.506" y1="54.944" x2="143.203" y2="65.3295" gradientUnits="userSpaceOnUse">
<stop stop-color="#D5D2CE"/>
<stop offset="1" stop-color="#A5A09D"/>
</linearGradient>
<linearGradient id="paint20_linear_13069_46486" x1="155.905" y1="4.6788" x2="148.403" y2="66.4863" gradientUnits="userSpaceOnUse">
<stop stop-color="#A9A5A2"/>
<stop offset="1" stop-color="#A5A09D"/>
</linearGradient>
<linearGradient id="paint21_linear_13069_46486" x1="164.378" y1="9.15957" x2="134.303" y2="62.8771" gradientUnits="userSpaceOnUse">
<stop stop-color="#6F6B69"/>
<stop offset="0.13" stop-color="#8D8A87"/>
<stop offset="0.28" stop-color="#A7A4A1"/>
<stop offset="0.41" stop-color="#B7B4B0"/>
<stop offset="0.51" stop-color="#BDBAB6"/>
<stop offset="0.7" stop-color="#B8B5B1"/>
<stop offset="0.89" stop-color="#ADA9A6"/>
</linearGradient>
<linearGradient id="paint22_linear_13069_46486" x1="139.024" y1="18.4261" x2="166.034" y2="-2.51618" gradientUnits="userSpaceOnUse">
<stop offset="0.01" stop-color="#ADA9A6"/>
<stop offset="0.02" stop-color="#AEAAA7"/>
<stop offset="0.1" stop-color="#CECCCA"/>
<stop offset="0.18" stop-color="#E5E4E3"/>
<stop offset="0.25" stop-color="#F3F3F3"/>
<stop offset="0.31" stop-color="#F8F8F8"/>
<stop offset="0.41" stop-color="#F3F2F2"/>
<stop offset="0.55" stop-color="#E3E2E2"/>
<stop offset="0.71" stop-color="#CAC8C7"/>
<stop offset="0.87" stop-color="#A7A4A2"/>
<stop offset="1" stop-color="#878381"/>
</linearGradient>
<linearGradient id="paint23_linear_13069_46486" x1="161.816" y1="6.06628" x2="152.752" y2="69.979" gradientUnits="userSpaceOnUse">
<stop stop-color="#A9A5A2"/>
<stop offset="1" stop-color="#A5A09D"/>
</linearGradient>
<linearGradient id="paint24_linear_13069_46486" x1="143.02" y1="70.2328" x2="162.339" y2="49.5805" gradientUnits="userSpaceOnUse">
<stop stop-color="#CDCDCC"/>
<stop offset="0.77" stop-color="#B3B4B3"/>
</linearGradient>
<linearGradient id="paint25_linear_13069_46486" x1="137.697" y1="72.733" x2="148.84" y2="64.2636" gradientUnits="userSpaceOnUse">
<stop stop-color="#CDCDCC"/>
<stop offset="0.77" stop-color="#B3B4B3"/>
</linearGradient>
<radialGradient id="paint26_radial_13069_46486" cx="0" cy="0" r="1" gradientTransform="matrix(12.2475 14.2672 -13.1615 10.7004 144.558 67.0729)" gradientUnits="userSpaceOnUse">
<stop stop-color="#80807F"/>
<stop offset="1" stop-color="#ACADAB"/>
</radialGradient>
<linearGradient id="paint27_linear_13069_46486" x1="148.163" y1="52.8593" x2="144.171" y2="64.9275" gradientUnits="userSpaceOnUse">
<stop offset="0.15" stop-color="white"/>
<stop offset="1" stop-color="#949492"/>
</linearGradient>
<linearGradient id="paint28_linear_13069_46486" x1="165.906" y1="69.628" x2="144.72" y2="68.5023" gradientUnits="userSpaceOnUse">
<stop offset="0.34" stop-color="white"/>
<stop offset="1" stop-color="#949492"/>
</linearGradient>
<linearGradient id="paint29_linear_13069_46486" x1="148.289" y1="61.8258" x2="142.413" y2="71.8376" gradientUnits="userSpaceOnUse">
<stop offset="0.43" stop-color="#CDCDCC"/>
<stop offset="1" stop-color="#B3B4B3"/>
</linearGradient>
<linearGradient id="paint30_linear_13069_46486" x1="140.902" y1="65.3308" x2="144.15" y2="71.2303" gradientUnits="userSpaceOnUse">
<stop offset="0.13" stop-color="white"/>
<stop offset="0.94" stop-color="#949492"/>
</linearGradient>
<radialGradient id="paint31_radial_13069_46486" cx="0" cy="0" r="1" gradientUnits="userSpaceOnUse" gradientTransform="translate(77.882 91.2424) scale(77.882 75.9825)">
<stop stop-color="#00C900"/>
<stop offset="0.18" stop-color="#00AA00"/>
<stop offset="0.58" stop-color="#005A00"/>
<stop offset="1"/>
</radialGradient>
<linearGradient id="paint32_linear_13069_46486" x1="70.85" y1="89.1878" x2="123.194" y2="137.311" gradientUnits="userSpaceOnUse">
<stop stop-color="#22C631"/>
<stop offset="1" stop-color="#C4AA02"/>
</linearGradient>
<linearGradient id="paint33_linear_13069_46486" x1="70.5843" y1="88.7072" x2="90.4808" y2="106.995" gradientUnits="userSpaceOnUse">
<stop stop-color="#8BD514"/>
<stop offset="1" stop-color="#D38F00"/>
</linearGradient>
<linearGradient id="paint34_linear_13069_46486" x1="79.2506" y1="96.7888" x2="108.295" y2="78.0575" gradientUnits="userSpaceOnUse">
<stop stop-color="#9BFFC5"/>
<stop offset="0.05" stop-color="#9EFFC6"/>
<stop offset="0.66" stop-color="#BEFFD5"/>
<stop offset="1" stop-color="#CAFFDA"/>
</linearGradient>
<linearGradient id="paint35_linear_13069_46486" x1="90.2649" y1="76.5799" x2="98.3941" y2="80.7001" gradientUnits="userSpaceOnUse">
<stop offset="0.45" stop-color="#C9C9C9"/>
<stop offset="0.54" stop-color="#C4C3C3"/>
<stop offset="0.65" stop-color="#B5B3B3"/>
<stop offset="0.78" stop-color="#9C9898"/>
<stop offset="0.92" stop-color="#7A7373"/>
<stop offset="1" stop-color="#635B5B"/>
</linearGradient>
<linearGradient id="paint36_linear_13069_46486" x1="94.8765" y1="77.5609" x2="98.319" y2="80.0453" gradientUnits="userSpaceOnUse">
<stop offset="0.45" stop-color="#C9C9C9"/>
<stop offset="0.54" stop-color="#C4C3C3"/>
<stop offset="0.65" stop-color="#B5B3B3"/>
<stop offset="0.78" stop-color="#9C9898"/>
<stop offset="0.92" stop-color="#7A7373"/>
<stop offset="1" stop-color="#635B5B"/>
</linearGradient>
<linearGradient id="paint37_linear_13069_46486" x1="60.2943" y1="95.0793" x2="60.6474" y2="103.403" gradientUnits="userSpaceOnUse">
<stop offset="0.45" stop-color="#C9C9C9"/>
<stop offset="0.54" stop-color="#C4C3C3"/>
<stop offset="0.65" stop-color="#B5B3B3"/>
<stop offset="0.78" stop-color="#9C9898"/>
<stop offset="0.92" stop-color="#7A7373"/>
<stop offset="1" stop-color="#635B5B"/>
</linearGradient>
<linearGradient id="paint38_linear_13069_46486" x1="59.8133" y1="99.2665" x2="60.5292" y2="103.17" gradientUnits="userSpaceOnUse">
<stop offset="0.45" stop-color="#C9C9C9"/>
<stop offset="0.54" stop-color="#C4C3C3"/>
<stop offset="0.65" stop-color="#B5B3B3"/>
<stop offset="0.78" stop-color="#9C9898"/>
<stop offset="0.92" stop-color="#7A7373"/>
<stop offset="1" stop-color="#635B5B"/>
</linearGradient>
<linearGradient id="paint39_linear_13069_46486" x1="82.0782" y1="104.968" x2="51.25" y2="52.072" gradientUnits="userSpaceOnUse">
<stop stop-color="#00C900"/>
<stop offset="0.08" stop-color="#00B500"/>
<stop offset="0.41" stop-color="#006800"/>
<stop offset="0.69" stop-color="#003000"/>
<stop offset="0.89" stop-color="#000D00"/>
<stop offset="1"/>
</linearGradient>
<linearGradient id="paint40_linear_13069_46486" x1="89.491" y1="103.532" x2="124.254" y2="135.484" gradientUnits="userSpaceOnUse">
<stop stop-color="#22C631"/>
<stop offset="1" stop-color="#C4AA02"/>
</linearGradient>
<linearGradient id="paint41_linear_13069_46486" x1="78.6291" y1="132.896" x2="85.5659" y2="128.68" gradientUnits="userSpaceOnUse">
<stop stop-color="#58CCFF"/>
<stop offset="0.48" stop-color="#2A7ED1"/>
<stop offset="0.83" stop-color="#0C4CB3"/>
<stop offset="1" stop-color="#0038A7"/>
</linearGradient>
<linearGradient id="paint42_linear_13069_46486" x1="108.427" y1="114.242" x2="114.568" y2="110.509" gradientUnits="userSpaceOnUse">
<stop stop-color="#58CCFF"/>
<stop offset="0.48" stop-color="#2A7ED1"/>
<stop offset="0.83" stop-color="#0C4CB3"/>
<stop offset="1" stop-color="#0038A7"/>
</linearGradient>
<linearGradient id="paint43_linear_13069_46486" x1="80.2976" y1="106.785" x2="80.7209" y2="150.759" gradientUnits="userSpaceOnUse">
<stop stop-color="#AFA9A6"/>
<stop offset="0.5" stop-color="#EDEAE4"/>
<stop offset="0.65" stop-color="#CDC8C3"/>
<stop offset="0.88" stop-color="#9D9694"/>
<stop offset="1" stop-color="#8B8281"/>
</linearGradient>
<linearGradient id="paint44_linear_13069_46486" x1="65.627" y1="118.17" x2="103.632" y2="145.524" gradientUnits="userSpaceOnUse">
<stop offset="0.45" stop-color="#C9C9C9"/>
<stop offset="0.54" stop-color="#C4C3C3"/>
<stop offset="0.65" stop-color="#B5B3B3"/>
<stop offset="0.78" stop-color="#9C9898"/>
<stop offset="0.92" stop-color="#7A7373"/>
<stop offset="1" stop-color="#635B5B"/>
</linearGradient>
<linearGradient id="paint45_linear_13069_46486" x1="88.4811" y1="99.208" x2="131.179" y2="120.822" gradientUnits="userSpaceOnUse">
<stop offset="0.45" stop-color="#C9C9C9"/>
<stop offset="0.54" stop-color="#C4C3C3"/>
<stop offset="0.65" stop-color="#B5B3B3"/>
<stop offset="0.78" stop-color="#9C9898"/>
<stop offset="0.92" stop-color="#7A7373"/>
<stop offset="1" stop-color="#635B5B"/>
</linearGradient>
<linearGradient id="paint46_linear_13069_46486" x1="92.8851" y1="99.2708" x2="131.76" y2="127.247" gradientUnits="userSpaceOnUse">
<stop offset="0.45" stop-color="#C9C9C9"/>
<stop offset="0.54" stop-color="#C4C3C3"/>
<stop offset="0.65" stop-color="#B5B3B3"/>
<stop offset="0.78" stop-color="#9C9898"/>
<stop offset="0.92" stop-color="#7A7373"/>
<stop offset="1" stop-color="#635B5B"/>
</linearGradient>
<radialGradient id="paint47_radial_13069_46486" cx="0" cy="0" r="1" gradientUnits="userSpaceOnUse" gradientTransform="translate(36.1592 60.6415) scale(9.37426 9.14563)">
<stop stop-color="#04C900"/>
<stop offset="0.22" stop-color="#039300"/>
<stop offset="0.49" stop-color="#025400"/>
<stop offset="0.72" stop-color="#012700"/>
<stop offset="0.9" stop-color="#000A00"/>
<stop offset="1"/>
</radialGradient>
<radialGradient id="paint48_radial_13069_46486" cx="0" cy="0" r="1" gradientUnits="userSpaceOnUse" gradientTransform="translate(62.6565 92.2603) scale(9.37426 9.14563)">
<stop stop-color="#04C900"/>
<stop offset="0.22" stop-color="#039300"/>
<stop offset="0.49" stop-color="#025400"/>
<stop offset="0.72" stop-color="#012700"/>
<stop offset="0.9" stop-color="#000A00"/>
<stop offset="1"/>
</radialGradient>
<radialGradient id="paint49_radial_13069_46486" cx="0" cy="0" r="1" gradientUnits="userSpaceOnUse" gradientTransform="translate(61.3142 71.168) scale(9.37426 9.14563)">
<stop stop-color="#04C900"/>
<stop offset="0.22" stop-color="#039300"/>
<stop offset="0.49" stop-color="#025400"/>
<stop offset="0.72" stop-color="#012700"/>
<stop offset="0.9" stop-color="#000A00"/>
<stop offset="1"/>
</radialGradient>
<radialGradient id="paint50_radial_13069_46486" cx="0" cy="0" r="1" gradientUnits="userSpaceOnUse" gradientTransform="translate(72.0305 37.8732) scale(9.37426 9.14563)">
<stop stop-color="#04C900"/>
<stop offset="0.22" stop-color="#039300"/>
<stop offset="0.49" stop-color="#025400"/>
<stop offset="0.72" stop-color="#012700"/>
<stop offset="0.9" stop-color="#000A00"/>
<stop offset="1"/>
</radialGradient>
<radialGradient id="paint51_radial_13069_46486" cx="0" cy="0" r="1" gradientUnits="userSpaceOnUse" gradientTransform="translate(99.6851 27.0976) scale(4.71737 4.60232)">
<stop stop-color="#04C900"/>
<stop offset="0.22" stop-color="#039300"/>
<stop offset="0.49" stop-color="#025400"/>
<stop offset="0.72" stop-color="#012700"/>
<stop offset="0.9" stop-color="#000A00"/>
<stop offset="1"/>
</radialGradient>
<radialGradient id="paint52_radial_13069_46486" cx="0" cy="0" r="1" gradientUnits="userSpaceOnUse" gradientTransform="translate(49.0485 105.278) scale(4.71737 4.60232)">
<stop stop-color="#04C900"/>
<stop offset="0.22" stop-color="#039300"/>
<stop offset="0.49" stop-color="#025400"/>
<stop offset="0.72" stop-color="#012700"/>
<stop offset="0.9" stop-color="#000A00"/>
<stop offset="1"/>
</radialGradient>
<radialGradient id="paint53_radial_13069_46486" cx="0" cy="0" r="1" gradientUnits="userSpaceOnUse" gradientTransform="translate(78.1314 76.7864) scale(4.71737 4.60232)">
<stop stop-color="#04C900"/>
<stop offset="0.22" stop-color="#039300"/>
<stop offset="0.49" stop-color="#025400"/>
<stop offset="0.72" stop-color="#012700"/>
<stop offset="0.9" stop-color="#000A00"/>
<stop offset="1"/>
</radialGradient>
<radialGradient id="paint54_radial_13069_46486" cx="0" cy="0" r="1" gradientUnits="userSpaceOnUse" gradientTransform="translate(78.1314 60.5677) scale(4.71737 4.60232)">
<stop stop-color="#04C900"/>
<stop offset="0.22" stop-color="#039300"/>
<stop offset="0.49" stop-color="#025400"/>
<stop offset="0.72" stop-color="#012700"/>
<stop offset="0.9" stop-color="#000A00"/>
<stop offset="1"/>
</radialGradient>
<radialGradient id="paint55_radial_13069_46486" cx="0" cy="0" r="1" gradientUnits="userSpaceOnUse" gradientTransform="translate(45.6236 18.8518) scale(4.71737 4.60232)">
<stop stop-color="#04C900"/>
<stop offset="0.22" stop-color="#039300"/>
<stop offset="0.49" stop-color="#025400"/>
<stop offset="0.72" stop-color="#012700"/>
<stop offset="0.9" stop-color="#000A00"/>
<stop offset="1"/>
</radialGradient>
<radialGradient id="paint56_radial_13069_46486" cx="0" cy="0" r="1" gradientUnits="userSpaceOnUse" gradientTransform="translate(31.6685 55.0287) scale(4.71737 4.60232)">
<stop stop-color="#04C900"/>
<stop offset="0.22" stop-color="#039300"/>
<stop offset="0.49" stop-color="#025400"/>
<stop offset="0.72" stop-color="#012700"/>
<stop offset="0.9" stop-color="#000A00"/>
<stop offset="1"/>
</radialGradient>
</defs>
</svg>
