<?xml version="1.0" encoding="UTF-8"?>
<svg id="Capa_1" data-name="Capa 1" xmlns="http://www.w3.org/2000/svg" xmlns:xlink="http://www.w3.org/1999/xlink" viewBox="0 0 1080 1080">
  <defs>
    <style>
      .cls-1 {
        fill: url(#linear-gradient-15);
      }

      .cls-2 {
        fill: url(#linear-gradient-13);
      }

      .cls-3 {
        fill: #3abef9;
      }

      .cls-4 {
        fill: url(#linear-gradient-2);
      }

      .cls-5 {
        fill: url(#linear-gradient-10);
      }

      .cls-6 {
        fill: url(#linear-gradient-12);
      }

      .cls-7 {
        fill: url(#linear-gradient-4);
      }

      .cls-8 {
        fill: url(#radial-gradient);
      }

      .cls-9 {
        fill: url(#linear-gradient-3);
      }

      .cls-10 {
        fill: url(#linear-gradient-5);
      }

      .cls-11 {
        fill: url(#linear-gradient-8);
      }

      .cls-12 {
        fill: url(#radial-gradient-2);
      }

      .cls-13 {
        fill: url(#linear-gradient-14);
      }

      .cls-14 {
        fill: url(#linear-gradient-17);
      }

      .cls-15 {
        fill: url(#linear-gradient-7);
      }

      .cls-16 {
        fill: url(#linear-gradient-9);
      }

      .cls-17 {
        fill: url(#linear-gradient-11);
      }

      .cls-18 {
        fill: url(#linear-gradient-6);
      }

      .cls-19 {
        fill: url(#linear-gradient-16);
      }

      .cls-20 {
        fill: url(#linear-gradient);
      }

      .cls-21 {
        fill: url(#linear-gradient-18);
      }
    </style>
    <linearGradient id="linear-gradient" x1="1096.19" y1="823.3" x2="1096.19" y2="712.14" gradientTransform="translate(1939.09) rotate(-180) scale(1 -1)" gradientUnits="userSpaceOnUse">
      <stop offset="0" stop-color="#3abef9"/>
      <stop offset="1" stop-color="#1a1f29"/>
    </linearGradient>
    <linearGradient id="linear-gradient-2" x1="237.1" y1="823.3" x2="237.1" y2="712.14" gradientUnits="userSpaceOnUse">
      <stop offset="0" stop-color="#3abef9"/>
      <stop offset="1" stop-color="#1a1f29"/>
    </linearGradient>
    <linearGradient id="linear-gradient-3" x1="233.7" y1="604" x2="352.38" y2="697.48" gradientUnits="userSpaceOnUse">
      <stop offset="0" stop-color="#1a1f29"/>
      <stop offset="1" stop-color="#000"/>
    </linearGradient>
    <linearGradient id="linear-gradient-4" x1="659.49" y1="531.35" x2="659.49" y2="144.12" gradientUnits="userSpaceOnUse">
      <stop offset="0" stop-color="#3abef9"/>
      <stop offset="1" stop-color="#000"/>
    </linearGradient>
    <linearGradient id="linear-gradient-5" x1="441.16" y1="947.92" x2="441.16" y2="669.3" gradientUnits="userSpaceOnUse">
      <stop offset="0" stop-color="#3abef9"/>
      <stop offset="1" stop-color="#000"/>
    </linearGradient>
    <linearGradient id="linear-gradient-6" x1="540" y1="808.61" x2="737.68" y2="808.61" xlink:href="#linear-gradient-5"/>
    <radialGradient id="radial-gradient" cx="366.73" cy="317.67" fx="366.73" fy="317.67" r="203.87" gradientUnits="userSpaceOnUse">
      <stop offset="0" stop-color="#3abef9"/>
      <stop offset="1" stop-color="#1a1f29"/>
    </radialGradient>
    <linearGradient id="linear-gradient-7" x1="250.41" y1="734.79" x2="250.41" y2="491.57" gradientUnits="userSpaceOnUse">
      <stop offset="0" stop-color="#3abef9"/>
      <stop offset="1" stop-color="#1a1f29"/>
    </linearGradient>
    <linearGradient id="linear-gradient-8" x1="6823.6" y1="919.6" x2="6877.35" y2="865.85" gradientTransform="translate(7201.38) rotate(-180) scale(1 -1)" gradientUnits="userSpaceOnUse">
      <stop offset="0" stop-color="#3abef9"/>
      <stop offset=".04" stop-color="#38b5ed"/>
      <stop offset=".23" stop-color="#2f87b2"/>
      <stop offset=".42" stop-color="#276281"/>
      <stop offset=".59" stop-color="#21455a"/>
      <stop offset=".75" stop-color="#1d303f"/>
      <stop offset=".89" stop-color="#1a232e"/>
      <stop offset="1" stop-color="#1a1f29"/>
      <stop offset="1" stop-color="#000"/>
    </linearGradient>
    <linearGradient id="linear-gradient-9" x1="6824.34" y1="888.15" x2="6891.55" y2="820.94" gradientTransform="translate(7201.38) rotate(-180) scale(1 -1)" gradientUnits="userSpaceOnUse">
      <stop offset="0" stop-color="#3abef9"/>
      <stop offset=".04" stop-color="#38b5ed"/>
      <stop offset=".23" stop-color="#2f87b2"/>
      <stop offset=".42" stop-color="#276281"/>
      <stop offset=".59" stop-color="#21455a"/>
      <stop offset=".75" stop-color="#1d303f"/>
      <stop offset=".89" stop-color="#1a232e"/>
      <stop offset="1" stop-color="#1a1f29"/>
      <stop offset="1" stop-color="#000"/>
    </linearGradient>
    <linearGradient id="linear-gradient-10" x1="6825.77" y1="802.79" x2="6899.11" y2="729.45" gradientTransform="translate(7201.38) rotate(-180) scale(1 -1)" gradientUnits="userSpaceOnUse">
      <stop offset="0" stop-color="#3abef9"/>
      <stop offset=".04" stop-color="#38b5ed"/>
      <stop offset=".23" stop-color="#2f87b2"/>
      <stop offset=".42" stop-color="#276281"/>
      <stop offset=".59" stop-color="#21455a"/>
      <stop offset=".75" stop-color="#1d303f"/>
      <stop offset=".89" stop-color="#1a232e"/>
      <stop offset="1" stop-color="#1a1f29"/>
      <stop offset="1" stop-color="#000"/>
    </linearGradient>
    <linearGradient id="linear-gradient-11" x1="6823.44" y1="847.03" x2="6894.39" y2="776.09" gradientTransform="translate(7201.38) rotate(-180) scale(1 -1)" gradientUnits="userSpaceOnUse">
      <stop offset="0" stop-color="#3abef9"/>
      <stop offset=".04" stop-color="#38b5ed"/>
      <stop offset=".23" stop-color="#2f87b2"/>
      <stop offset=".42" stop-color="#276281"/>
      <stop offset=".59" stop-color="#21455a"/>
      <stop offset=".75" stop-color="#1d303f"/>
      <stop offset=".89" stop-color="#1a232e"/>
      <stop offset="1" stop-color="#1a1f29"/>
      <stop offset="1" stop-color="#171c25"/>
      <stop offset="1" stop-color="#0c0f14"/>
      <stop offset="1" stop-color="#050608"/>
      <stop offset="1" stop-color="#010101"/>
      <stop offset="1" stop-color="#000"/>
    </linearGradient>
    <linearGradient id="linear-gradient-12" x1="553.72" y1="919.6" x2="607.47" y2="865.85" gradientTransform="translate(148.5)" gradientUnits="userSpaceOnUse">
      <stop offset="0" stop-color="#3abef9"/>
      <stop offset=".04" stop-color="#38b5ed"/>
      <stop offset=".23" stop-color="#2f87b2"/>
      <stop offset=".42" stop-color="#276281"/>
      <stop offset=".59" stop-color="#21455a"/>
      <stop offset=".75" stop-color="#1d303f"/>
      <stop offset=".89" stop-color="#1a232e"/>
      <stop offset="1" stop-color="#1a1f29"/>
      <stop offset="1" stop-color="#000"/>
    </linearGradient>
    <linearGradient id="linear-gradient-13" x1="554.46" y1="888.15" x2="621.67" y2="820.94" gradientTransform="translate(148.5)" gradientUnits="userSpaceOnUse">
      <stop offset="0" stop-color="#3abef9"/>
      <stop offset=".04" stop-color="#38b5ed"/>
      <stop offset=".23" stop-color="#2f87b2"/>
      <stop offset=".42" stop-color="#276281"/>
      <stop offset=".59" stop-color="#21455a"/>
      <stop offset=".75" stop-color="#1d303f"/>
      <stop offset=".89" stop-color="#1a232e"/>
      <stop offset="1" stop-color="#1a1f29"/>
      <stop offset="1" stop-color="#000"/>
    </linearGradient>
    <linearGradient id="linear-gradient-14" x1="555.89" y1="802.79" x2="629.23" y2="729.45" gradientTransform="translate(148.5)" gradientUnits="userSpaceOnUse">
      <stop offset="0" stop-color="#3abef9"/>
      <stop offset=".04" stop-color="#38b5ed"/>
      <stop offset=".23" stop-color="#2f87b2"/>
      <stop offset=".42" stop-color="#276281"/>
      <stop offset=".59" stop-color="#21455a"/>
      <stop offset=".75" stop-color="#1d303f"/>
      <stop offset=".89" stop-color="#1a232e"/>
      <stop offset="1" stop-color="#1a1f29"/>
      <stop offset="1" stop-color="#000"/>
    </linearGradient>
    <linearGradient id="linear-gradient-15" x1="553.56" y1="847.03" x2="624.51" y2="776.09" gradientTransform="translate(148.5)" gradientUnits="userSpaceOnUse">
      <stop offset="0" stop-color="#3abef9"/>
      <stop offset=".04" stop-color="#38b5ed"/>
      <stop offset=".23" stop-color="#2f87b2"/>
      <stop offset=".42" stop-color="#276281"/>
      <stop offset=".59" stop-color="#21455a"/>
      <stop offset=".75" stop-color="#1d303f"/>
      <stop offset=".89" stop-color="#1a232e"/>
      <stop offset="1" stop-color="#1a1f29"/>
      <stop offset="1" stop-color="#000"/>
    </linearGradient>
    <linearGradient id="linear-gradient-16" x1="6727.86" y1="-1448.7" x2="6727.86" y2="-1359.86" gradientTransform="translate(7267.86 -767.41) rotate(-180)" gradientUnits="userSpaceOnUse">
      <stop offset="0" stop-color="#3abef9"/>
      <stop offset="1" stop-color="#000"/>
    </linearGradient>
    <linearGradient id="linear-gradient-17" x1="6629.02" y1="-1285" x2="6629.02" y2="-1380.54" gradientTransform="translate(7267.86 -767.41) rotate(-180)" gradientUnits="userSpaceOnUse">
      <stop offset="0" stop-color="#3abef9"/>
      <stop offset="1" stop-color="#000"/>
    </linearGradient>
    <linearGradient id="linear-gradient-18" x1="6727.86" y1="-1332.77" x2="6925.53" y2="-1332.77" gradientTransform="translate(7267.86 -767.41) rotate(-180)" gradientUnits="userSpaceOnUse">
      <stop offset="0" stop-color="#3abef9"/>
      <stop offset="1" stop-color="#000"/>
    </linearGradient>
    <radialGradient id="radial-gradient-2" cx="536.01" cy="714.67" fx="536.01" fy="714.67" r="232.33" gradientTransform="translate(0 132.29) scale(1 .81)" gradientUnits="userSpaceOnUse">
      <stop offset=".02" stop-color="#3abef9"/>
      <stop offset="1" stop-color="#3abef9" stop-opacity="0"/>
    </radialGradient>
  </defs>
  <path d="M948.6,753.29c-11.64-41.15-78.05-206.24-112.08-232.65-23.71-18.4-64.54-34.6-83.48-41.56,0,0,18.43-35.1,18.43-63.43s-16.82-92.08-88.66-183.38c-71.84-91.3-116.17-114.91-142.8-114.91s-70.96,23.61-142.8,114.91c-71.84,91.3-88.66,155.05-88.66,183.38s18.43,63.43,18.43,63.43c-18.95,6.96-59.77,23.16-83.48,41.56-34.03,26.41-100.44,191.5-112.08,232.65-12.03,42.51-10.23,69.77,36.14,105.84,37.74,29.36,195.25,85.41,202.32,43.89,24.47-8.56,315.81-8.56,340.28,0,7.07,41.52,164.58-14.53,202.32-43.89,46.37-36.07,48.16-63.33,36.14-105.84Z"/>
  <path class="cls-20" d="M803.26,715.25c39.21,20.06,58.28,65.63,57.83,108.05,12.83-27.09,12.51-67.34-8.76-90.12,13.06-1.89,30.38,5.91,40.19,13.88-20.14-30.28-64.01-42.92-99.23-29.71,2.5.31,7.53-2.89,9.97-2.1Z"/>
  <path class="cls-4" d="M276.74,715.25c-39.21,20.06-58.28,65.63-57.83,108.05-12.83-27.09-12.51-67.34,8.76-90.12-13.06-1.89-30.38,5.91-40.19,13.88,20.14-30.28,64.01-42.92,99.23-29.71-2.5.31-7.53-2.89-9.97-2.1Z"/>
  <path class="cls-9" d="M334.52,491.57s52.95,85.82,102.39,107.27c49.44,21.45-144.95,108.81-144.95,108.81l-5.25-89.72-23.87,74.77s-66.5,1.97-106.64,42.11c0,0,68.17-164.63,98.2-193.22,30.03-28.59,80.12-50.01,80.12-50.01Z"/>
  <path class="cls-7" d="M673.53,531.35s83.03-49.98,83.03-110.18c0-60.21-47.48-131.96-83.03-177.61-35.55-45.65-86.82-97.07-111.1-99.43,0,0,75.53,57.37,117.74,133.99,34.46,62.55,50.16,101.86,44.39,156.95-5.77,55.09-51.03,96.28-51.03,96.28Z"/>
  <g>
    <polygon points="342.32 684.01 342.32 897.58 540 962.64 540 777.97 342.32 684.01"/>
    <polygon points="737.68 684.01 737.68 897.58 540 962.64 540 777.97 737.68 684.01"/>
  </g>
  <g>
    <polygon class="cls-10" points="342.32 669.3 342.32 882.87 540 947.92 540 716.28 342.32 669.3"/>
    <polygon class="cls-18" points="737.68 669.3 737.68 882.87 540 947.92 540 716.28 737.68 669.3"/>
  </g>
  <path class="cls-3" d="M429.48,358.15c-5.69,41.54,43.54,76.22,77.69,39.98-27.22-11.36-54.77-21.8-77.69-39.98Z"/>
  <path class="cls-3" d="M572.83,398.13c34.15,36.24,83.38,1.56,77.69-39.98-22.92,18.18-50.46,28.62-77.69,39.98Z"/>
  <path class="cls-8" d="M406.47,531.35s-83.03-49.98-83.03-110.18,47.48-131.96,83.03-177.61c35.55-45.65,86.44-104.94,111.1-104.94s66.4,76.6-25.83,123.83c0,0,44.19-16.79,91.41,5.77,0,0-61.91-16.27-129.86,22.56-67.95,38.83-103.63,89.2-97.85,144.29,5.77,55.09,51.03,96.28,51.03,96.28Z"/>
  <path class="cls-15" d="M334.52,491.57s-68.2,26.51-81.91,39.78c-13.71,13.27-73.98,124.67-96.41,203.45,34.24-72.01,96.61-179.25,104.68-187.31,8.07-8.07,83.76-40.23,83.76-40.23l-10.11-15.69Z"/>
  <g>
    <path class="cls-11" d="M349.75,881.72c10.61.06,39.26-9.68,43.04.46,1.94,8.34,3.16,18.08-2.81,25.23-63.03,17.48-84.34,14.93-79.6-27.89,13.99,1.45,24.14,4.98,39.37,2.2Z"/>
    <path class="cls-16" d="M328.6,835.51c35.66,3.96,81.52-19.69,68.68,29.45-5.76,18.2-31.85,14.61-49.4,15.28-54.97,2.13-70.57-3.36-49.94-47.38,7.42,3.96,18.83,4.66,30.67,2.66Z"/>
    <path class="cls-5" d="M342.32,707.01v30.76s19.55.62,24.72,2.09c19.53,2.33,30.16,16.14,28.54,32.1,2.53,33.37-51.1,24.73-76.5,22.72-70.49-8.24-21.26-80.83,23.24-87.66Z"/>
    <path class="cls-17" d="M328.6,790.41c35.66,3.96,81.52-14.81,68.68,34.33-5.76,18.2-31.85,14.61-49.4,15.28-31.39,1.21-49.94-1.65-56.24-12.52-4.73-8.17-9.35-36.07,6.3-39.74,7.42,3.96,18.83,4.66,30.67,2.66Z"/>
    <path d="M342.48,890.91c-8.92,0-17.21-.49-23.51-1.31-18.4-2.37-23.39-7.02-25.55-10.32-13.84-21.18-9.18-35.32-2.84-43.46l11,8.57c-5.14,6.6-3.99,15.73,3.42,27.13,2.6,2.47,17.33,5.87,41.09,5.44,23.12-.42,39.62-4.29,43.41-7.72,2.12-1.92,4.55-9.35,3.59-18.31-.64-5.97-2.74-10.79-5.34-12.29l6.95-12.09c6.74,3.87,11.09,12,12.26,22.89,1.11,10.35-.96,23.69-8.1,30.14-9.27,8.39-34.68,11.32-56.39,11.32Z"/>
    <path d="M343.99,925.36c-10.61,0-20.02-1.07-25.06-3.36-9-4.09-12.78-14.84-14.23-20.88-2.01-8.35-2.47-20.47,2.83-27.12l10.91,8.69c-1.05,1.32-2.01,7.52-.17,15.17,1.59,6.6,4.38,10.5,6.44,11.44,10.57,4.8,54.62.67,61.24-4.35,1.94-2.53,2.81-7.55,2.21-12.89-.67-6-2.75-9.45-3.59-10.09l8.52-11.05c4.61,3.56,7.95,10.88,8.93,19.58,1.06,9.45-.92,18.02-5.45,23.5-5.93,7.19-31.6,11.37-52.57,11.37Z"/>
    <path d="M344.14,706.61c-17.24,6.03-35.81,16.26-43.83,33.22-3.5,10.15-4.68,23.69-2.31,33.68,1.33,4.02,1.52,4.73,4.57,6.33,12.72,5.31,28.06,5.7,42.04,6.19,12.79.01,26.21-.4,38.43-3.92,1.58-.47,2.98-1.1,3.92-1.67-.19.2.02.06.18-.25,3.27-7.11,2.07-16.59-.18-23.93-1.2-3.27-2.3-5.68-4.45-7.2-1.6-.71-3.24-1.36-4.96-1.81-19.24-4.72-39.03-1.99-59.54-1.81,6.1-3.76,12.7-6.48,19.49-8.68,16.25-5.01,34.51-7.46,50.93-.56,13.16,6.68,16.35,25.37,15.84,38.54-.52,6.11-1.63,12.27-6.32,17.14-2.89,2.81-6.46,4.31-9.74,5.52-7.43,2.54-14.58,3.54-22.12,4.41-20.22,1.97-61.73,3.1-77.61-10.7-9.68-9.68-9.55-24.28-8.57-36.73.92-7.85,2.06-15.88,5.67-23.09,10.11-19.25,29.65-30.49,49.56-36.7,1.82-.55,3.47-1.01,5.56-1.5l3.41,13.52h0Z"/>
    <path d="M334.43,847.45c-25.73,0-41.2-2.44-46.02-7.28-7.19-7.21-11.67-25.13-9.78-39.12,1.37-10.16,5.86-17.69,12.98-21.76l6.92,12.11c-4.06,2.32-5.54,7.54-6.08,11.51-1.52,11.31,2.74,23.89,5.62,27.18,9.17,4.98,79.12,4.6,92.61-2.14.88-.51,3.41-5.03,3.27-14.27-.15-10.26-3.55-18.4-6.62-20.07l6.66-12.26c10.6,5.76,14.11,21.93,13.91,34.03-.22,12.53-4.22,21.66-10.99,25.03-12.04,6.01-48.58,6.85-55.78,6.96-2.31.03-4.54.05-6.7.05ZM297.89,829.98"/>
  </g>
  <g>
    <path class="cls-6" d="M730.25,881.72c-10.61.06-39.26-9.68-43.04.46-1.94,8.34-3.16,18.08,2.81,25.23,63.03,17.48,84.34,14.93,79.6-27.89-13.99,1.45-24.14,4.98-39.37,2.2Z"/>
    <path class="cls-2" d="M751.4,835.51c-35.66,3.96-81.52-19.69-68.68,29.45,5.76,18.2,31.85,14.61,49.4,15.28,54.97,2.13,70.57-3.36,49.94-47.38-7.42,3.96-18.83,4.66-30.67,2.66Z"/>
    <path class="cls-13" d="M737.68,707.01v30.76s-19.55.62-24.72,2.09c-19.53,2.33-30.16,16.14-28.54,32.1-2.53,33.37,51.1,24.73,76.5,22.72,70.49-8.24,21.26-80.83-23.24-87.66Z"/>
    <path class="cls-1" d="M751.4,790.41c-35.66,3.96-81.52-14.81-68.68,34.33,5.76,18.2,31.85,14.61,49.4,15.28,31.39,1.21,49.94-1.65,56.24-12.52,4.73-8.17,9.35-36.07-6.3-39.74-7.42,3.96-18.83,4.66-30.67,2.66Z"/>
    <path d="M737.52,890.91c-21.71,0-47.12-2.93-56.39-11.32-7.13-6.46-9.21-19.79-8.1-30.14,1.17-10.89,5.52-19.02,12.26-22.89l6.95,12.09c-2.61,1.5-4.7,6.32-5.34,12.29-.96,8.96,1.46,16.39,3.59,18.31,3.79,3.43,20.29,7.3,43.41,7.72,23.78.43,38.49-2.97,41.09-5.44,7.42-11.4,8.57-20.53,3.43-27.13l11-8.57c6.34,8.14,11,22.29-2.84,43.46-2.15,3.29-7.14,7.95-25.54,10.32-6.3.81-14.59,1.31-23.51,1.31Z"/>
    <path d="M736.01,925.36c-20.97,0-46.64-4.18-52.57-11.37-4.52-5.48-6.51-14.05-5.45-23.5.98-8.7,4.32-16.02,8.93-19.58l8.52,11.05c-.84.65-2.91,4.09-3.59,10.09-.6,5.34.26,10.36,2.21,12.89,6.61,5.03,50.67,9.15,61.24,4.35,2.06-.94,4.85-4.84,6.44-11.44,1.84-7.65.88-13.85-.17-15.17l10.91-8.69c5.3,6.65,4.83,18.76,2.83,27.12-1.45,6.04-5.23,16.79-14.23,20.88-5.04,2.29-14.45,3.36-25.06,3.36Z"/>
    <path d="M739.27,693.09c22.51,5.72,45.03,17.83,55.81,39.57,4.29,10.59,5.52,21.85,5.39,33.2-.35,15.09-5.65,27.56-21.34,31.93-14.71,4.47-28.82,5.16-43.71,5.2-10.83-.11-21.67-.79-32.41-2.74-7.2-1.49-15.05-2.99-20.98-8.38-7.3-8.02-6.93-19.24-5.76-29.08,1.69-9.97,5.1-21.51,15.28-26.61,22.05-9.17,50.62-2.25,70.42,9.24-14.22-.31-27.84-1.27-40.97-.72-8.46.48-16.19,1.07-23.53,4.33-6.62,5.29-8.44,23.71-4.62,31.13.16.32.37.46.18.25,3.6,2.02,8.34,2.89,12.82,3.69,16.19,2.5,33.08,2.37,49.36.73,6.48-.7,12.99-1.76,18.52-3.55,2-.63,4.64-1.72,5.87-2.86,6.12-7.8,3.52-29.14.1-38.62-5.13-11.22-15.45-19.52-26.37-25.54-5.48-2.98-11.55-5.76-17.45-7.67,0,0,3.41-13.52,3.41-13.52h0Z"/>
    <path d="M745.57,847.45c-2.16,0-4.39-.02-6.7-.05-7.2-.11-43.75-.95-55.78-6.96-6.77-3.38-10.77-12.5-10.99-25.03-.21-12.1,3.31-28.27,13.91-34.03l6.66,12.26c-3.06,1.67-6.47,9.81-6.62,20.07-.14,9.23,2.39,13.75,3.28,14.27,13.48,6.73,83.43,7.11,92.6,2.13,2.89-3.3,7.15-15.87,5.62-27.18-.53-3.97-2.02-9.19-6.08-11.51l6.92-12.11c7.12,4.07,11.61,11.6,12.98,21.76,1.88,14-2.59,31.91-9.78,39.12-4.82,4.83-20.29,7.28-46.02,7.28ZM782.11,829.98h0s0,0,0,0Z"/>
  </g>
  <polygon class="cls-19" points="540 642.33 737.68 613.14 540 583.94 342.32 613.14 540 642.33"/>
  <path d="M540,646.31c-.19,0-.39-.01-.58-.04l-197.68-29.19c-1.95-.29-3.4-1.97-3.4-3.94s1.45-3.65,3.4-3.94l197.68-29.19c.39-.06.78-.06,1.16,0l197.68,29.19c1.95.29,3.4,1.97,3.4,3.94s-1.45,3.65-3.4,3.94l-197.68,29.19c-.19.03-.39.04-.58.04ZM369.6,613.13l170.4,25.16,170.4-25.16-170.4-25.16-170.4,25.16Z"/>
  <polygon class="cls-14" points="737.68 613.14 737.68 566.96 540 517.59 540 583.94 737.68 613.14"/>
  <path d="M737.68,617.12c-.19,0-.39-.01-.58-.04l-197.68-29.19c-1.95-.29-3.4-1.97-3.4-3.94v-66.36c0-1.23.57-2.39,1.53-3.14s2.23-1.02,3.42-.73l197.68,49.37c1.77.44,3.02,2.04,3.02,3.87v46.17c0,1.16-.5,2.26-1.38,3.02-.73.63-1.65.97-2.6.97ZM543.99,580.5l189.71,28.02v-38.45l-189.71-47.38v57.81Z"/>
  <polygon class="cls-21" points="342.32 613.14 342.32 566.96 540 517.59 540 583.94 342.32 613.14"/>
  <path d="M342.32,617.12c-.95,0-1.88-.34-2.6-.97-.88-.76-1.38-1.86-1.38-3.02v-46.17c0-1.83,1.25-3.42,3.02-3.87l197.68-49.37c1.19-.3,2.45-.03,3.42.73.97.76,1.53,1.91,1.53,3.14v66.36c0,1.98-1.45,3.65-3.4,3.94l-197.68,29.19c-.19.03-.39.04-.58.04ZM346.31,570.07v38.45l189.71-28.02v-57.81l-189.71,47.38Z"/>
  <path class="cls-12" d="M312.22,657.07l223.79,59.39,223.79-59.39s-40.19-134.38-223.79-134.38-223.79,134.38-223.79,134.38Z"/>
  <polygon points="741.66 737.77 733.69 737.77 733.69 674.34 540 720.38 539.08 720.16 346.31 674.34 346.31 737.77 338.34 737.77 338.34 664.26 540 712.18 741.66 664.26 741.66 737.77"/>
  <rect x="536.01" y="716.28" width="7.97" height="236.05"/>
</svg>