<svg width="36" height="37" viewBox="0 0 36 37" fill="none" xmlns="http://www.w3.org/2000/svg">
<path fill-rule="evenodd" clip-rule="evenodd" d="M17.205 3.93265C17.4434 3.78366 17.7189 3.70465 18 3.70465C18.2811 3.70465 18.5566 3.78366 18.795 3.93265L29.151 10.4052L18 16.9647L6.84901 10.4052L17.205 3.93265ZM4.51201 12.5112C4.50384 12.5753 4.49983 12.64 4.50001 12.7047V24.7047C4.50001 24.9591 4.56471 25.2093 4.68804 25.4318C4.81137 25.6543 4.98927 25.8418 5.20501 25.9767L16.5 33.0357V19.5627L4.51201 12.5112ZM19.5 33.0357L30.795 25.9767C31.0107 25.8418 31.1886 25.6543 31.312 25.4318C31.4353 25.2093 31.5 24.9591 31.5 24.7047V12.7047C31.5 12.6397 31.496 12.5752 31.488 12.5112L19.5 19.5612V33.0357Z" fill="#32405B"/>
</svg>
